{"glyphs":{"0":{"ha":694,"x_min":115,"x_max":694,"o":"m 347 347 l 347 463 l 347 579 l 463 579 l 463 463 l 463 347 l 347 347 m 463 926 l 579 926 l 579 810 l 463 810 l 347 810 l 232 810 l 232 926 l 347 926 l 463 926 m 579 810 l 694 810 l 694 694 l 694 579 l 694 463 l 694 347 l 694 232 l 694 115 l 579 115 l 579 232 l 579 347 l 579 463 l 579 579 l 579 694 l 579 810 m 232 810 l 232 694 l 232 579 l 232 463 l 232 347 l 232 232 l 232 115 l 115 115 l 115 232 l 115 347 l 115 463 l 115 579 l 115 694 l 115 810 l 232 810 m 579 115 l 579 0 l 347 0 l 232 0 l 232 115 l 347 115 l 463 115 l 579 115 z "},"1":{"ha":694,"x_min":115,"x_max":694,"o":"m 115 579 l 115 694 l 232 694 l 232 810 l 347 810 l 347 926 l 463 926 l 463 810 l 463 694 l 463 579 l 463 463 l 463 347 l 463 232 l 463 115 l 579 115 l 694 115 l 694 0 l 463 0 l 232 0 l 115 0 l 115 115 l 232 115 l 347 115 l 347 232 l 347 347 l 347 463 l 347 579 l 347 694 l 232 694 l 232 579 l 115 579 z "},"2":{"ha":694,"x_min":115,"x_max":694,"o":"m 115 694 l 115 810 l 232 810 l 232 926 l 347 926 l 463 926 l 579 926 l 579 810 l 463 810 l 347 810 l 232 810 l 232 694 l 115 694 m 579 810 l 694 810 l 694 694 l 694 579 l 579 579 l 579 694 l 579 810 m 579 579 l 579 463 l 463 463 l 463 579 l 579 579 m 463 463 l 463 347 l 347 347 l 347 463 l 463 463 m 347 347 l 347 232 l 232 232 l 232 347 l 347 347 m 232 232 l 232 115 l 347 115 l 463 115 l 579 115 l 694 115 l 694 0 l 463 0 l 232 0 l 115 0 l 115 115 l 115 232 l 232 232 z "},"3":{"ha":694,"x_min":115,"x_max":694,"o":"m 115 694 l 115 810 l 232 810 l 232 926 l 347 926 l 463 926 l 579 926 l 579 810 l 463 810 l 347 810 l 232 810 l 232 694 l 115 694 m 579 810 l 694 810 l 694 694 l 694 579 l 579 579 l 579 694 l 579 810 m 579 579 l 579 463 l 463 463 l 347 463 l 347 579 l 463 579 l 579 579 m 579 463 l 694 463 l 694 347 l 694 232 l 694 115 l 579 115 l 579 232 l 579 347 l 579 463 m 579 115 l 579 0 l 347 0 l 232 0 l 232 115 l 115 115 l 115 232 l 232 232 l 232 115 l 347 115 l 463 115 l 579 115 z "},"4":{"ha":694,"x_min":115,"x_max":810,"o":"m 579 0 l 579 115 l 579 232 l 463 232 l 347 232 l 232 232 l 115 232 l 115 347 l 115 463 l 232 463 l 232 579 l 347 579 l 347 694 l 463 694 l 463 579 l 347 579 l 347 463 l 232 463 l 232 347 l 347 347 l 463 347 l 579 347 l 579 463 l 579 579 l 579 694 l 463 694 l 463 810 l 579 810 l 579 926 l 694 926 l 694 810 l 694 694 l 694 579 l 694 463 l 694 347 l 810 347 l 810 232 l 694 232 l 694 115 l 694 0 l 579 0 z "},"5":{"ha":694,"x_min":115,"x_max":694,"o":"m 579 926 l 694 926 l 694 810 l 579 810 l 463 810 l 347 810 l 232 810 l 232 694 l 232 579 l 347 579 l 463 579 l 579 579 l 579 463 l 463 463 l 347 463 l 232 463 l 115 463 l 115 579 l 115 694 l 115 810 l 115 926 l 232 926 l 347 926 l 463 926 l 579 926 m 579 463 l 694 463 l 694 347 l 694 232 l 694 115 l 579 115 l 579 232 l 579 347 l 579 463 m 579 115 l 579 0 l 347 0 l 232 0 l 232 115 l 115 115 l 115 232 l 232 232 l 232 115 l 347 115 l 463 115 l 579 115 z "},"6":{"ha":694,"x_min":115,"x_max":694,"o":"m 463 926 l 579 926 l 579 810 l 463 810 l 347 810 l 347 926 l 463 926 m 347 810 l 347 694 l 232 694 l 232 810 l 347 810 m 232 694 l 232 579 l 347 579 l 463 579 l 579 579 l 579 463 l 463 463 l 347 463 l 232 463 l 232 347 l 232 232 l 232 115 l 115 115 l 115 232 l 115 347 l 115 463 l 115 579 l 115 694 l 232 694 m 579 463 l 694 463 l 694 347 l 694 232 l 694 115 l 579 115 l 579 232 l 579 347 l 579 463 m 579 115 l 579 0 l 347 0 l 232 0 l 232 115 l 347 115 l 463 115 l 579 115 z "},"7":{"ha":694,"x_min":115,"x_max":694,"o":"m 232 0 l 232 115 l 232 232 l 347 232 l 347 347 l 347 463 l 463 463 l 463 579 l 463 694 l 579 694 l 579 810 l 463 810 l 347 810 l 232 810 l 115 810 l 115 926 l 232 926 l 347 926 l 463 926 l 579 926 l 694 926 l 694 810 l 694 694 l 579 694 l 579 579 l 579 463 l 463 463 l 463 347 l 463 232 l 347 232 l 347 115 l 347 0 l 232 0 z "},"8":{"ha":694,"x_min":115,"x_max":694,"o":"m 463 926 l 579 926 l 579 810 l 463 810 l 347 810 l 232 810 l 232 926 l 347 926 l 463 926 m 579 810 l 694 810 l 694 694 l 694 579 l 579 579 l 579 694 l 579 810 m 232 810 l 232 694 l 232 579 l 115 579 l 115 694 l 115 810 l 232 810 m 579 579 l 579 463 l 463 463 l 347 463 l 232 463 l 232 579 l 347 579 l 463 579 l 579 579 m 579 463 l 694 463 l 694 347 l 694 232 l 694 115 l 579 115 l 579 232 l 579 347 l 579 463 m 232 463 l 232 347 l 232 232 l 232 115 l 115 115 l 115 232 l 115 347 l 115 463 l 232 463 m 579 115 l 579 0 l 347 0 l 232 0 l 232 115 l 347 115 l 463 115 l 579 115 z "},"9":{"ha":694,"x_min":115,"x_max":694,"o":"m 463 926 l 579 926 l 579 810 l 463 810 l 347 810 l 232 810 l 232 926 l 347 926 l 463 926 m 579 810 l 694 810 l 694 694 l 694 579 l 694 463 l 694 347 l 694 232 l 579 232 l 579 347 l 463 347 l 347 347 l 232 347 l 232 463 l 115 463 l 115 579 l 115 694 l 115 810 l 232 810 l 232 694 l 232 579 l 232 463 l 347 463 l 463 463 l 579 463 l 579 579 l 579 694 l 579 810 m 579 232 l 579 115 l 463 115 l 463 232 l 579 232 m 463 115 l 463 0 l 232 0 l 232 115 l 347 115 l 463 115 z "},"Ȭ":{"ha":507,"x_min":46,"x_max":415,"o":"m 46 0 l 46 925 l 415 925 l 415 0 l 46 0 m 92 46 l 369 46 l 369 879 l 92 879 l 92 46 z "},"Ȱ":{"ha":507,"x_min":46,"x_max":415,"o":"m 46 0 l 46 925 l 415 925 l 415 0 l 46 0 m 92 46 l 369 46 l 369 879 l 92 879 l 92 46 z "},"Ƀ":{"ha":507,"x_min":46,"x_max":415,"o":"m 46 0 l 46 925 l 415 925 l 415 0 l 46 0 m 92 46 l 369 46 l 369 879 l 92 879 l 92 46 z "},"Ʉ":{"ha":507,"x_min":46,"x_max":415,"o":"m 46 0 l 46 925 l 415 925 l 415 0 l 46 0 m 92 46 l 369 46 l 369 879 l 92 879 l 92 46 z "},"Ʌ":{"ha":507,"x_min":46,"x_max":415,"o":"m 46 0 l 46 925 l 415 925 l 415 0 l 46 0 m 92 46 l 369 46 l 369 879 l 92 879 l 92 46 z "},"·":{"ha":507,"x_min":46,"x_max":415,"o":"m 46 0 l 46 925 l 415 925 l 415 0 l 46 0 m 92 46 l 369 46 l 369 879 l 92 879 l 92 46 z "},"΋":{"ha":507,"x_min":46,"x_max":415,"o":"m 46 0 l 46 925 l 415 925 l 415 0 l 46 0 m 92 46 l 369 46 l 369 879 l 92 879 l 92 46 z "},"ϵ":{"ha":507,"x_min":46,"x_max":415,"o":"m 46 0 l 46 925 l 415 925 l 415 0 l 46 0 m 92 46 l 369 46 l 369 879 l 92 879 l 92 46 z "},"϶":{"ha":507,"x_min":46,"x_max":415,"o":"m 46 0 l 46 925 l 415 925 l 415 0 l 46 0 m 92 46 l 369 46 l 369 879 l 92 879 l 92 46 z "},"὚":{"ha":507,"x_min":46,"x_max":415,"o":"m 46 0 l 46 925 l 415 925 l 415 0 l 46 0 m 92 46 l 369 46 l 369 879 l 92 879 l 92 46 z "},"὜":{"ha":507,"x_min":46,"x_max":415,"o":"m 46 0 l 46 925 l 415 925 l 415 0 l 46 0 m 92 46 l 369 46 l 369 879 l 92 879 l 92 46 z "},"₫":{"ha":507,"x_min":46,"x_max":415,"o":"m 46 0 l 46 925 l 415 925 l 415 0 l 46 0 m 92 46 l 369 46 l 369 879 l 92 879 l 92 46 z "},"₾":{"ha":507,"x_min":46,"x_max":415,"o":"m 46 0 l 46 925 l 415 925 l 415 0 l 46 0 m 92 46 l 369 46 l 369 879 l 92 879 l 92 46 z "},"∛":{"ha":507,"x_min":46,"x_max":415,"o":"m 46 0 l 46 925 l 415 925 l 415 0 l 46 0 m 92 46 l 369 46 l 369 879 l 92 879 l 92 46 z "},"∜":{"ha":507,"x_min":46,"x_max":415,"o":"m 46 0 l 46 925 l 415 925 l 415 0 l 46 0 m 92 46 l 369 46 l 369 879 l 92 879 l 92 46 z "},"∝":{"ha":507,"x_min":46,"x_max":415,"o":"m 46 0 l 46 925 l 415 925 l 415 0 l 46 0 m 92 46 l 369 46 l 369 879 l 92 879 l 92 46 z "},"≢":{"ha":507,"x_min":46,"x_max":415,"o":"m 46 0 l 46 925 l 415 925 l 415 0 l 46 0 m 92 46 l 369 46 l 369 879 l 92 879 l 92 46 z "},"≣":{"ha":507,"x_min":46,"x_max":415,"o":"m 46 0 l 46 925 l 415 925 l 415 0 l 46 0 m 92 46 l 369 46 l 369 879 l 92 879 l 92 46 z "},"⊠":{"ha":507,"x_min":46,"x_max":415,"o":"m 46 0 l 46 925 l 415 925 l 415 0 l 46 0 m 92 46 l 369 46 l 369 879 l 92 879 l 92 46 z "},"⌁":{"ha":507,"x_min":46,"x_max":415,"o":"m 46 0 l 46 925 l 415 925 l 415 0 l 46 0 m 92 46 l 369 46 l 369 879 l 92 879 l 92 46 z "},"△":{"ha":507,"x_min":46,"x_max":415,"o":"m 46 0 l 46 925 l 415 925 l 415 0 l 46 0 m 92 46 l 369 46 l 369 879 l 92 879 l 92 46 z "},"▴":{"ha":507,"x_min":46,"x_max":415,"o":"m 46 0 l 46 925 l 415 925 l 415 0 l 46 0 m 92 46 l 369 46 l 369 879 l 92 879 l 92 46 z "},"▵":{"ha":507,"x_min":46,"x_max":415,"o":"m 46 0 l 46 925 l 415 925 l 415 0 l 46 0 m 92 46 l 369 46 l 369 879 l 92 879 l 92 46 z "},"▽":{"ha":507,"x_min":46,"x_max":415,"o":"m 46 0 l 46 925 l 415 925 l 415 0 l 46 0 m 92 46 l 369 46 l 369 879 l 92 879 l 92 46 z "},"▾":{"ha":507,"x_min":46,"x_max":415,"o":"m 46 0 l 46 925 l 415 925 l 415 0 l 46 0 m 92 46 l 369 46 l 369 879 l 92 879 l 92 46 z "},"▿":{"ha":507,"x_min":46,"x_max":415,"o":"m 46 0 l 46 925 l 415 925 l 415 0 l 46 0 m 92 46 l 369 46 l 369 879 l 92 879 l 92 46 z "},"◊":{"ha":507,"x_min":46,"x_max":415,"o":"m 46 0 l 46 925 l 415 925 l 415 0 l 46 0 m 92 46 l 369 46 l 369 879 l 92 879 l 92 46 z "},"☂":{"ha":507,"x_min":46,"x_max":415,"o":"m 46 0 l 46 925 l 415 925 l 415 0 l 46 0 m 92 46 l 369 46 l 369 879 l 92 879 l 92 46 z "},"☓":{"ha":507,"x_min":46,"x_max":415,"o":"m 46 0 l 46 925 l 415 925 l 415 0 l 46 0 m 92 46 l 369 46 l 369 879 l 92 879 l 92 46 z "},"☔":{"ha":507,"x_min":46,"x_max":415,"o":"m 46 0 l 46 925 l 415 925 l 415 0 l 46 0 m 92 46 l 369 46 l 369 879 l 92 879 l 92 46 z "},"☼":{"ha":507,"x_min":46,"x_max":415,"o":"m 46 0 l 46 925 l 415 925 l 415 0 l 46 0 m 92 46 l 369 46 l 369 879 l 92 879 l 92 46 z "},"☽":{"ha":507,"x_min":46,"x_max":415,"o":"m 46 0 l 46 925 l 415 925 l 415 0 l 46 0 m 92 46 l 369 46 l 369 879 l 92 879 l 92 46 z "},"☾":{"ha":507,"x_min":46,"x_max":415,"o":"m 46 0 l 46 925 l 415 925 l 415 0 l 46 0 m 92 46 l 369 46 l 369 879 l 92 879 l 92 46 z "},"✧":{"ha":507,"x_min":46,"x_max":415,"o":"m 46 0 l 46 925 l 415 925 l 415 0 l 46 0 m 92 46 l 369 46 l 369 879 l 92 879 l 92 46 z "},"":{"ha":507,"x_min":46,"x_max":415,"o":"m 46 0 l 46 925 l 415 925 l 415 0 l 46 0 m 92 46 l 369 46 l 369 879 l 92 879 l 92 46 z "},"":{"ha":507,"x_min":46,"x_max":415,"o":"m 46 0 l 46 925 l 415 925 l 415 0 l 46 0 m 92 46 l 369 46 l 369 879 l 92 879 l 92 46 z "},"":{"ha":507,"x_min":46,"x_max":415,"o":"m 46 0 l 46 925 l 415 925 l 415 0 l 46 0 m 92 46 l 369 46 l 369 879 l 92 879 l 92 46 z "},"":{"ha":507,"x_min":46,"x_max":415,"o":"m 46 0 l 46 925 l 415 925 l 415 0 l 46 0 m 92 46 l 369 46 l 369 879 l 92 879 l 92 46 z "},"":{"ha":507,"x_min":46,"x_max":415,"o":"m 46 0 l 46 925 l 415 925 l 415 0 l 46 0 m 92 46 l 369 46 l 369 879 l 92 879 l 92 46 z "},"":{"ha":507,"x_min":46,"x_max":415,"o":"m 46 0 l 46 925 l 415 925 l 415 0 l 46 0 m 92 46 l 369 46 l 369 879 l 92 879 l 92 46 z "},"":{"ha":507,"x_min":46,"x_max":415,"o":"m 46 0 l 46 925 l 415 925 l 415 0 l 46 0 m 92 46 l 369 46 l 369 879 l 92 879 l 92 46 z "},"":{"ha":507,"x_min":46,"x_max":415,"o":"m 46 0 l 46 925 l 415 925 l 415 0 l 46 0 m 92 46 l 369 46 l 369 879 l 92 879 l 92 46 z "},"":{"ha":507,"x_min":46,"x_max":415,"o":"m 46 0 l 46 925 l 415 925 l 415 0 l 46 0 m 92 46 l 369 46 l 369 879 l 92 879 l 92 46 z "},"":{"ha":507,"x_min":46,"x_max":415,"o":"m 46 0 l 46 925 l 415 925 l 415 0 l 46 0 m 92 46 l 369 46 l 369 879 l 92 879 l 92 46 z "},"":{"ha":507,"x_min":46,"x_max":415,"o":"m 46 0 l 46 925 l 415 925 l 415 0 l 46 0 m 92 46 l 369 46 l 369 879 l 92 879 l 92 46 z "},"":{"ha":507,"x_min":46,"x_max":415,"o":"m 46 0 l 46 925 l 415 925 l 415 0 l 46 0 m 92 46 l 369 46 l 369 879 l 92 879 l 92 46 z "},"":{"ha":507,"x_min":46,"x_max":415,"o":"m 46 0 l 46 925 l 415 925 l 415 0 l 46 0 m 92 46 l 369 46 l 369 879 l 92 879 l 92 46 z "},"":{"ha":507,"x_min":46,"x_max":415,"o":"m 46 0 l 46 925 l 415 925 l 415 0 l 46 0 m 92 46 l 369 46 l 369 879 l 92 879 l 92 46 z "},"":{"ha":507,"x_min":46,"x_max":415,"o":"m 46 0 l 46 925 l 415 925 l 415 0 l 46 0 m 92 46 l 369 46 l 369 879 l 92 879 l 92 46 z "},"":{"ha":507,"x_min":46,"x_max":415,"o":"m 46 0 l 46 925 l 415 925 l 415 0 l 46 0 m 92 46 l 369 46 l 369 879 l 92 879 l 92 46 z "},"":{"ha":507,"x_min":46,"x_max":415,"o":"m 46 0 l 46 925 l 415 925 l 415 0 l 46 0 m 92 46 l 369 46 l 369 879 l 92 879 l 92 46 z "},"":{"ha":507,"x_min":46,"x_max":415,"o":"m 46 0 l 46 925 l 415 925 l 415 0 l 46 0 m 92 46 l 369 46 l 369 879 l 92 879 l 92 46 z "},"":{"ha":507,"x_min":46,"x_max":415,"o":"m 46 0 l 46 925 l 415 925 l 415 0 l 46 0 m 92 46 l 369 46 l 369 879 l 92 879 l 92 46 z "},"":{"ha":507,"x_min":46,"x_max":415,"o":"m 46 0 l 46 925 l 415 925 l 415 0 l 46 0 m 92 46 l 369 46 l 369 879 l 92 879 l 92 46 z "},"":{"ha":507,"x_min":46,"x_max":415,"o":"m 46 0 l 46 925 l 415 925 l 415 0 l 46 0 m 92 46 l 369 46 l 369 879 l 92 879 l 92 46 z "},"":{"ha":507,"x_min":46,"x_max":415,"o":"m 46 0 l 46 925 l 415 925 l 415 0 l 46 0 m 92 46 l 369 46 l 369 879 l 92 879 l 92 46 z "},"":{"ha":507,"x_min":46,"x_max":415,"o":"m 46 0 l 46 925 l 415 925 l 415 0 l 46 0 m 92 46 l 369 46 l 369 879 l 92 879 l 92 46 z "},"":{"ha":507,"x_min":46,"x_max":415,"o":"m 46 0 l 46 925 l 415 925 l 415 0 l 46 0 m 92 46 l 369 46 l 369 879 l 92 879 l 92 46 z "},"":{"ha":507,"x_min":46,"x_max":415,"o":"m 46 0 l 46 925 l 415 925 l 415 0 l 46 0 m 92 46 l 369 46 l 369 879 l 92 879 l 92 46 z "},"":{"ha":507,"x_min":46,"x_max":415,"o":"m 46 0 l 46 925 l 415 925 l 415 0 l 46 0 m 92 46 l 369 46 l 369 879 l 92 879 l 92 46 z "},"":{"ha":507,"x_min":46,"x_max":415,"o":"m 46 0 l 46 925 l 415 925 l 415 0 l 46 0 m 92 46 l 369 46 l 369 879 l 92 879 l 92 46 z "},"":{"ha":507,"x_min":46,"x_max":415,"o":"m 46 0 l 46 925 l 415 925 l 415 0 l 46 0 m 92 46 l 369 46 l 369 879 l 92 879 l 92 46 z "},"":{"ha":507,"x_min":46,"x_max":415,"o":"m 46 0 l 46 925 l 415 925 l 415 0 l 46 0 m 92 46 l 369 46 l 369 879 l 92 879 l 92 46 z "},"":{"ha":507,"x_min":46,"x_max":415,"o":"m 46 0 l 46 925 l 415 925 l 415 0 l 46 0 m 92 46 l 369 46 l 369 879 l 92 879 l 92 46 z "},"":{"ha":507,"x_min":46,"x_max":415,"o":"m 46 0 l 46 925 l 415 925 l 415 0 l 46 0 m 92 46 l 369 46 l 369 879 l 92 879 l 92 46 z "},"":{"ha":507,"x_min":46,"x_max":415,"o":"m 46 0 l 46 925 l 415 925 l 415 0 l 46 0 m 92 46 l 369 46 l 369 879 l 92 879 l 92 46 z "},"":{"ha":507,"x_min":46,"x_max":415,"o":"m 46 0 l 46 925 l 415 925 l 415 0 l 46 0 m 92 46 l 369 46 l 369 879 l 92 879 l 92 46 z "},"":{"ha":507,"x_min":46,"x_max":415,"o":"m 46 0 l 46 925 l 415 925 l 415 0 l 46 0 m 92 46 l 369 46 l 369 879 l 92 879 l 92 46 z "},"":{"ha":507,"x_min":46,"x_max":415,"o":"m 46 0 l 46 925 l 415 925 l 415 0 l 46 0 m 92 46 l 369 46 l 369 879 l 92 879 l 92 46 z "},"":{"ha":507,"x_min":46,"x_max":415,"o":"m 46 0 l 46 925 l 415 925 l 415 0 l 46 0 m 92 46 l 369 46 l 369 879 l 92 879 l 92 46 z "},"":{"ha":507,"x_min":46,"x_max":415,"o":"m 46 0 l 46 925 l 415 925 l 415 0 l 46 0 m 92 46 l 369 46 l 369 879 l 92 879 l 92 46 z "},"":{"ha":507,"x_min":46,"x_max":415,"o":"m 46 0 l 46 925 l 415 925 l 415 0 l 46 0 m 92 46 l 369 46 l 369 879 l 92 879 l 92 46 z "},"":{"ha":507,"x_min":46,"x_max":415,"o":"m 46 0 l 46 925 l 415 925 l 415 0 l 46 0 m 92 46 l 369 46 l 369 879 l 92 879 l 92 46 z "},"":{"ha":507,"x_min":46,"x_max":415,"o":"m 46 0 l 46 925 l 415 925 l 415 0 l 46 0 m 92 46 l 369 46 l 369 879 l 92 879 l 92 46 z "},"":{"ha":507,"x_min":46,"x_max":415,"o":"m 46 0 l 46 925 l 415 925 l 415 0 l 46 0 m 92 46 l 369 46 l 369 879 l 92 879 l 92 46 z "},"":{"ha":507,"x_min":46,"x_max":415,"o":"m 46 0 l 46 925 l 415 925 l 415 0 l 46 0 m 92 46 l 369 46 l 369 879 l 92 879 l 92 46 z "},"":{"ha":507,"x_min":46,"x_max":415,"o":"m 46 0 l 46 925 l 415 925 l 415 0 l 46 0 m 92 46 l 369 46 l 369 879 l 92 879 l 92 46 z "},"":{"ha":507,"x_min":46,"x_max":415,"o":"m 46 0 l 46 925 l 415 925 l 415 0 l 46 0 m 92 46 l 369 46 l 369 879 l 92 879 l 92 46 z "},"":{"ha":507,"x_min":46,"x_max":415,"o":"m 46 0 l 46 925 l 415 925 l 415 0 l 46 0 m 92 46 l 369 46 l 369 879 l 92 879 l 92 46 z "},"":{"ha":507,"x_min":46,"x_max":415,"o":"m 46 0 l 46 925 l 415 925 l 415 0 l 46 0 m 92 46 l 369 46 l 369 879 l 92 879 l 92 46 z "},"":{"ha":507,"x_min":46,"x_max":415,"o":"m 46 0 l 46 925 l 415 925 l 415 0 l 46 0 m 92 46 l 369 46 l 369 879 l 92 879 l 92 46 z "},"":{"ha":507,"x_min":46,"x_max":415,"o":"m 46 0 l 46 925 l 415 925 l 415 0 l 46 0 m 92 46 l 369 46 l 369 879 l 92 879 l 92 46 z "},"":{"ha":507,"x_min":46,"x_max":415,"o":"m 46 0 l 46 925 l 415 925 l 415 0 l 46 0 m 92 46 l 369 46 l 369 879 l 92 879 l 92 46 z "},"":{"ha":507,"x_min":46,"x_max":415,"o":"m 46 0 l 46 925 l 415 925 l 415 0 l 46 0 m 92 46 l 369 46 l 369 879 l 92 879 l 92 46 z "},"":{"ha":507,"x_min":46,"x_max":415,"o":"m 46 0 l 46 925 l 415 925 l 415 0 l 46 0 m 92 46 l 369 46 l 369 879 l 92 879 l 92 46 z "},"":{"ha":507,"x_min":46,"x_max":415,"o":"m 46 0 l 46 925 l 415 925 l 415 0 l 46 0 m 92 46 l 369 46 l 369 879 l 92 879 l 92 46 z "},"":{"ha":507,"x_min":46,"x_max":415,"o":"m 46 0 l 46 925 l 415 925 l 415 0 l 46 0 m 92 46 l 369 46 l 369 879 l 92 879 l 92 46 z "},"":{"ha":507,"x_min":46,"x_max":415,"o":"m 46 0 l 46 925 l 415 925 l 415 0 l 46 0 m 92 46 l 369 46 l 369 879 l 92 879 l 92 46 z "},"":{"ha":507,"x_min":46,"x_max":415,"o":"m 46 0 l 46 925 l 415 925 l 415 0 l 46 0 m 92 46 l 369 46 l 369 879 l 92 879 l 92 46 z "},"":{"ha":507,"x_min":46,"x_max":415,"o":"m 46 0 l 46 925 l 415 925 l 415 0 l 46 0 m 92 46 l 369 46 l 369 879 l 92 879 l 92 46 z "},"":{"ha":507,"x_min":46,"x_max":415,"o":"m 46 0 l 46 925 l 415 925 l 415 0 l 46 0 m 92 46 l 369 46 l 369 879 l 92 879 l 92 46 z "},"":{"ha":507,"x_min":46,"x_max":415,"o":"m 46 0 l 46 925 l 415 925 l 415 0 l 46 0 m 92 46 l 369 46 l 369 879 l 92 879 l 92 46 z "},"":{"ha":507,"x_min":46,"x_max":415,"o":"m 46 0 l 46 925 l 415 925 l 415 0 l 46 0 m 92 46 l 369 46 l 369 879 l 92 879 l 92 46 z "},"":{"ha":507,"x_min":46,"x_max":415,"o":"m 46 0 l 46 925 l 415 925 l 415 0 l 46 0 m 92 46 l 369 46 l 369 879 l 92 879 l 92 46 z "},"":{"ha":507,"x_min":46,"x_max":415,"o":"m 46 0 l 46 925 l 415 925 l 415 0 l 46 0 m 92 46 l 369 46 l 369 879 l 92 879 l 92 46 z "},"":{"ha":507,"x_min":46,"x_max":415,"o":"m 46 0 l 46 925 l 415 925 l 415 0 l 46 0 m 92 46 l 369 46 l 369 879 l 92 879 l 92 46 z "},"":{"ha":507,"x_min":46,"x_max":415,"o":"m 46 0 l 46 925 l 415 925 l 415 0 l 46 0 m 92 46 l 369 46 l 369 879 l 92 879 l 92 46 z "},"":{"ha":507,"x_min":46,"x_max":415,"o":"m 46 0 l 46 925 l 415 925 l 415 0 l 46 0 m 92 46 l 369 46 l 369 879 l 92 879 l 92 46 z "},"":{"ha":507,"x_min":46,"x_max":415,"o":"m 46 0 l 46 925 l 415 925 l 415 0 l 46 0 m 92 46 l 369 46 l 369 879 l 92 879 l 92 46 z "},"":{"ha":507,"x_min":46,"x_max":415,"o":"m 46 0 l 46 925 l 415 925 l 415 0 l 46 0 m 92 46 l 369 46 l 369 879 l 92 879 l 92 46 z "},"":{"ha":507,"x_min":46,"x_max":415,"o":"m 46 0 l 46 925 l 415 925 l 415 0 l 46 0 m 92 46 l 369 46 l 369 879 l 92 879 l 92 46 z "},"":{"ha":507,"x_min":46,"x_max":415,"o":"m 46 0 l 46 925 l 415 925 l 415 0 l 46 0 m 92 46 l 369 46 l 369 879 l 92 879 l 92 46 z "},"":{"ha":507,"x_min":46,"x_max":415,"o":"m 46 0 l 46 925 l 415 925 l 415 0 l 46 0 m 92 46 l 369 46 l 369 879 l 92 879 l 92 46 z "},"":{"ha":507,"x_min":46,"x_max":415,"o":"m 46 0 l 46 925 l 415 925 l 415 0 l 46 0 m 92 46 l 369 46 l 369 879 l 92 879 l 92 46 z "},"":{"ha":507,"x_min":46,"x_max":415,"o":"m 46 0 l 46 925 l 415 925 l 415 0 l 46 0 m 92 46 l 369 46 l 369 879 l 92 879 l 92 46 z "},"":{"ha":507,"x_min":46,"x_max":415,"o":"m 46 0 l 46 925 l 415 925 l 415 0 l 46 0 m 92 46 l 369 46 l 369 879 l 92 879 l 92 46 z "},"":{"ha":507,"x_min":46,"x_max":415,"o":"m 46 0 l 46 925 l 415 925 l 415 0 l 46 0 m 92 46 l 369 46 l 369 879 l 92 879 l 92 46 z "},"":{"ha":507,"x_min":46,"x_max":415,"o":"m 46 0 l 46 925 l 415 925 l 415 0 l 46 0 m 92 46 l 369 46 l 369 879 l 92 879 l 92 46 z "},"":{"ha":507,"x_min":46,"x_max":415,"o":"m 46 0 l 46 925 l 415 925 l 415 0 l 46 0 m 92 46 l 369 46 l 369 879 l 92 879 l 92 46 z "},"":{"ha":507,"x_min":46,"x_max":415,"o":"m 46 0 l 46 925 l 415 925 l 415 0 l 46 0 m 92 46 l 369 46 l 369 879 l 92 879 l 92 46 z "},"":{"ha":507,"x_min":46,"x_max":415,"o":"m 46 0 l 46 925 l 415 925 l 415 0 l 46 0 m 92 46 l 369 46 l 369 879 l 92 879 l 92 46 z "},"":{"ha":507,"x_min":46,"x_max":415,"o":"m 46 0 l 46 925 l 415 925 l 415 0 l 46 0 m 92 46 l 369 46 l 369 879 l 92 879 l 92 46 z "},"":{"ha":507,"x_min":46,"x_max":415,"o":"m 46 0 l 46 925 l 415 925 l 415 0 l 46 0 m 92 46 l 369 46 l 369 879 l 92 879 l 92 46 z "},"":{"ha":507,"x_min":46,"x_max":415,"o":"m 46 0 l 46 925 l 415 925 l 415 0 l 46 0 m 92 46 l 369 46 l 369 879 l 92 879 l 92 46 z "},"":{"ha":507,"x_min":46,"x_max":415,"o":"m 46 0 l 46 925 l 415 925 l 415 0 l 46 0 m 92 46 l 369 46 l 369 879 l 92 879 l 92 46 z "},"":{"ha":507,"x_min":46,"x_max":415,"o":"m 46 0 l 46 925 l 415 925 l 415 0 l 46 0 m 92 46 l 369 46 l 369 879 l 92 879 l 92 46 z "},"":{"ha":507,"x_min":46,"x_max":415,"o":"m 46 0 l 46 925 l 415 925 l 415 0 l 46 0 m 92 46 l 369 46 l 369 879 l 92 879 l 92 46 z "},"":{"ha":507,"x_min":46,"x_max":415,"o":"m 46 0 l 46 925 l 415 925 l 415 0 l 46 0 m 92 46 l 369 46 l 369 879 l 92 879 l 92 46 z "},"":{"ha":507,"x_min":46,"x_max":415,"o":"m 46 0 l 46 925 l 415 925 l 415 0 l 46 0 m 92 46 l 369 46 l 369 879 l 92 879 l 92 46 z "},"":{"ha":507,"x_min":46,"x_max":415,"o":"m 46 0 l 46 925 l 415 925 l 415 0 l 46 0 m 92 46 l 369 46 l 369 879 l 92 879 l 92 46 z "},"":{"ha":507,"x_min":46,"x_max":415,"o":"m 46 0 l 46 925 l 415 925 l 415 0 l 46 0 m 92 46 l 369 46 l 369 879 l 92 879 l 92 46 z "},"":{"ha":507,"x_min":46,"x_max":415,"o":"m 46 0 l 46 925 l 415 925 l 415 0 l 46 0 m 92 46 l 369 46 l 369 879 l 92 879 l 92 46 z "},"":{"ha":507,"x_min":46,"x_max":415,"o":"m 46 0 l 46 925 l 415 925 l 415 0 l 46 0 m 92 46 l 369 46 l 369 879 l 92 879 l 92 46 z "},"":{"ha":507,"x_min":46,"x_max":415,"o":"m 46 0 l 46 925 l 415 925 l 415 0 l 46 0 m 92 46 l 369 46 l 369 879 l 92 879 l 92 46 z "},"":{"ha":507,"x_min":46,"x_max":415,"o":"m 46 0 l 46 925 l 415 925 l 415 0 l 46 0 m 92 46 l 369 46 l 369 879 l 92 879 l 92 46 z "},"":{"ha":507,"x_min":46,"x_max":415,"o":"m 46 0 l 46 925 l 415 925 l 415 0 l 46 0 m 92 46 l 369 46 l 369 879 l 92 879 l 92 46 z "},"":{"ha":507,"x_min":46,"x_max":415,"o":"m 46 0 l 46 925 l 415 925 l 415 0 l 46 0 m 92 46 l 369 46 l 369 879 l 92 879 l 92 46 z "},"":{"ha":507,"x_min":46,"x_max":415,"o":"m 46 0 l 46 925 l 415 925 l 415 0 l 46 0 m 92 46 l 369 46 l 369 879 l 92 879 l 92 46 z "},"":{"ha":507,"x_min":46,"x_max":415,"o":"m 46 0 l 46 925 l 415 925 l 415 0 l 46 0 m 92 46 l 369 46 l 369 879 l 92 879 l 92 46 z "},"":{"ha":507,"x_min":46,"x_max":415,"o":"m 46 0 l 46 925 l 415 925 l 415 0 l 46 0 m 92 46 l 369 46 l 369 879 l 92 879 l 92 46 z "},"":{"ha":507,"x_min":46,"x_max":415,"o":"m 46 0 l 46 925 l 415 925 l 415 0 l 46 0 m 92 46 l 369 46 l 369 879 l 92 879 l 92 46 z "},"":{"ha":507,"x_min":46,"x_max":415,"o":"m 46 0 l 46 925 l 415 925 l 415 0 l 46 0 m 92 46 l 369 46 l 369 879 l 92 879 l 92 46 z "},"":{"ha":507,"x_min":46,"x_max":415,"o":"m 46 0 l 46 925 l 415 925 l 415 0 l 46 0 m 92 46 l 369 46 l 369 879 l 92 879 l 92 46 z "},"":{"ha":507,"x_min":46,"x_max":415,"o":"m 46 0 l 46 925 l 415 925 l 415 0 l 46 0 m 92 46 l 369 46 l 369 879 l 92 879 l 92 46 z "},"":{"ha":507,"x_min":46,"x_max":415,"o":"m 46 0 l 46 925 l 415 925 l 415 0 l 46 0 m 92 46 l 369 46 l 369 879 l 92 879 l 92 46 z "},"":{"ha":507,"x_min":46,"x_max":415,"o":"m 46 0 l 46 925 l 415 925 l 415 0 l 46 0 m 92 46 l 369 46 l 369 879 l 92 879 l 92 46 z "},"":{"ha":507,"x_min":46,"x_max":415,"o":"m 46 0 l 46 925 l 415 925 l 415 0 l 46 0 m 92 46 l 369 46 l 369 879 l 92 879 l 92 46 z "},"":{"ha":507,"x_min":46,"x_max":415,"o":"m 46 0 l 46 925 l 415 925 l 415 0 l 46 0 m 92 46 l 369 46 l 369 879 l 92 879 l 92 46 z "},"":{"ha":507,"x_min":46,"x_max":415,"o":"m 46 0 l 46 925 l 415 925 l 415 0 l 46 0 m 92 46 l 369 46 l 369 879 l 92 879 l 92 46 z "},"":{"ha":507,"x_min":46,"x_max":415,"o":"m 46 0 l 46 925 l 415 925 l 415 0 l 46 0 m 92 46 l 369 46 l 369 879 l 92 879 l 92 46 z "},"":{"ha":507,"x_min":46,"x_max":415,"o":"m 46 0 l 46 925 l 415 925 l 415 0 l 46 0 m 92 46 l 369 46 l 369 879 l 92 879 l 92 46 z "},"":{"ha":507,"x_min":46,"x_max":415,"o":"m 46 0 l 46 925 l 415 925 l 415 0 l 46 0 m 92 46 l 369 46 l 369 879 l 92 879 l 92 46 z "},"":{"ha":507,"x_min":46,"x_max":415,"o":"m 46 0 l 46 925 l 415 925 l 415 0 l 46 0 m 92 46 l 369 46 l 369 879 l 92 879 l 92 46 z "},"":{"ha":507,"x_min":46,"x_max":415,"o":"m 46 0 l 46 925 l 415 925 l 415 0 l 46 0 m 92 46 l 369 46 l 369 879 l 92 879 l 92 46 z "},"":{"ha":507,"x_min":46,"x_max":415,"o":"m 46 0 l 46 925 l 415 925 l 415 0 l 46 0 m 92 46 l 369 46 l 369 879 l 92 879 l 92 46 z "},"":{"ha":507,"x_min":46,"x_max":415,"o":"m 46 0 l 46 925 l 415 925 l 415 0 l 46 0 m 92 46 l 369 46 l 369 879 l 92 879 l 92 46 z "},"":{"ha":507,"x_min":46,"x_max":415,"o":"m 46 0 l 46 925 l 415 925 l 415 0 l 46 0 m 92 46 l 369 46 l 369 879 l 92 879 l 92 46 z "},"":{"ha":507,"x_min":46,"x_max":415,"o":"m 46 0 l 46 925 l 415 925 l 415 0 l 46 0 m 92 46 l 369 46 l 369 879 l 92 879 l 92 46 z "},"":{"ha":507,"x_min":46,"x_max":415,"o":"m 46 0 l 46 925 l 415 925 l 415 0 l 46 0 m 92 46 l 369 46 l 369 879 l 92 879 l 92 46 z "},"":{"ha":507,"x_min":46,"x_max":415,"o":"m 46 0 l 46 925 l 415 925 l 415 0 l 46 0 m 92 46 l 369 46 l 369 879 l 92 879 l 92 46 z "},"":{"ha":507,"x_min":46,"x_max":415,"o":"m 46 0 l 46 925 l 415 925 l 415 0 l 46 0 m 92 46 l 369 46 l 369 879 l 92 879 l 92 46 z "},"":{"ha":507,"x_min":46,"x_max":415,"o":"m 46 0 l 46 925 l 415 925 l 415 0 l 46 0 m 92 46 l 369 46 l 369 879 l 92 879 l 92 46 z "},"":{"ha":507,"x_min":46,"x_max":415,"o":"m 46 0 l 46 925 l 415 925 l 415 0 l 46 0 m 92 46 l 369 46 l 369 879 l 92 879 l 92 46 z "},"":{"ha":507,"x_min":46,"x_max":415,"o":"m 46 0 l 46 925 l 415 925 l 415 0 l 46 0 m 92 46 l 369 46 l 369 879 l 92 879 l 92 46 z "},"":{"ha":507,"x_min":46,"x_max":415,"o":"m 46 0 l 46 925 l 415 925 l 415 0 l 46 0 m 92 46 l 369 46 l 369 879 l 92 879 l 92 46 z "},"":{"ha":507,"x_min":46,"x_max":415,"o":"m 46 0 l 46 925 l 415 925 l 415 0 l 46 0 m 92 46 l 369 46 l 369 879 l 92 879 l 92 46 z "},"ﴄ":{"ha":507,"x_min":46,"x_max":415,"o":"m 46 0 l 46 925 l 415 925 l 415 0 l 46 0 m 92 46 l 369 46 l 369 879 l 92 879 l 92 46 z "},"﹧":{"ha":507,"x_min":46,"x_max":415,"o":"m 46 0 l 46 925 l 415 925 l 415 0 l 46 0 m 92 46 l 369 46 l 369 879 l 92 879 l 92 46 z "},"\u0000":{"ha":694,"x_min":0,"x_max":810,"o":"m 694 1042 l 694 1157 l 810 1157 l 810 1042 l 694 1042 m 463 1042 l 463 1157 l 579 1157 l 579 1042 l 463 1042 m 232 1042 l 232 1157 l 347 1157 l 347 1042 l 232 1042 m 0 1042 l 0 1157 l 115 1157 l 115 1042 l 0 1042 m 694 810 l 694 926 l 810 926 l 810 810 l 694 810 m 0 810 l 0 926 l 115 926 l 115 810 l 0 810 m 694 579 l 694 694 l 810 694 l 810 579 l 694 579 m 0 579 l 0 694 l 115 694 l 115 579 l 0 579 m 694 347 l 694 463 l 810 463 l 810 347 l 694 347 m 0 347 l 0 463 l 115 463 l 115 347 l 0 347 m 694 115 l 694 232 l 810 232 l 810 115 l 694 115 m 0 115 l 0 232 l 115 232 l 115 115 l 0 115 m 694 -115 l 694 0 l 810 0 l 810 -115 l 694 -115 m 0 -115 l 0 0 l 115 0 l 115 -115 l 0 -115 m 694 -347 l 694 -232 l 810 -232 l 810 -347 l 694 -347 m 463 -347 l 463 -232 l 579 -232 l 579 -347 l 463 -347 m 232 -347 l 232 -232 l 347 -232 l 347 -347 l 232 -347 m 0 -347 l 0 -232 l 115 -232 l 115 -347 l 0 -347 z "},"\r":{"ha":694,"x_min":115,"x_max":694,"o":"m 579 810 l 694 810 l 694 694 l 694 579 l 694 463 l 694 347 l 694 232 l 694 115 l 579 115 l 463 115 l 347 115 l 232 115 l 115 115 l 115 232 l 115 347 l 115 463 l 115 579 l 115 694 l 115 810 l 232 810 l 347 810 l 463 810 l 579 810 m 463 694 l 347 694 l 232 694 l 232 579 l 232 463 l 232 347 l 232 232 l 347 232 l 463 232 l 579 232 l 579 347 l 579 463 l 579 579 l 579 694 l 463 694 z "},"\u0001":{"ha":694,"x_min":115,"x_max":694,"o":"m 579 810 l 694 810 l 694 694 l 694 579 l 694 463 l 694 347 l 694 232 l 694 115 l 579 115 l 463 115 l 347 115 l 232 115 l 115 115 l 115 232 l 115 347 l 115 463 l 115 579 l 115 694 l 115 810 l 232 810 l 347 810 l 463 810 l 579 810 m 463 694 l 347 694 l 232 694 l 232 579 l 232 463 l 232 347 l 232 232 l 347 232 l 463 232 l 579 232 l 579 347 l 579 463 l 579 579 l 579 694 l 463 694 z "},"\u0002":{"ha":694,"x_min":115,"x_max":694,"o":"m 579 810 l 694 810 l 694 694 l 694 579 l 694 463 l 694 347 l 694 232 l 694 115 l 579 115 l 463 115 l 347 115 l 232 115 l 115 115 l 115 232 l 115 347 l 115 463 l 115 579 l 115 694 l 115 810 l 232 810 l 347 810 l 463 810 l 579 810 m 463 694 l 347 694 l 232 694 l 232 579 l 232 463 l 232 347 l 232 232 l 347 232 l 463 232 l 579 232 l 579 347 l 579 463 l 579 579 l 579 694 l 463 694 z "},"\u0003":{"ha":694,"x_min":115,"x_max":694,"o":"m 579 810 l 694 810 l 694 694 l 694 579 l 694 463 l 694 347 l 694 232 l 694 115 l 579 115 l 463 115 l 347 115 l 232 115 l 115 115 l 115 232 l 115 347 l 115 463 l 115 579 l 115 694 l 115 810 l 232 810 l 347 810 l 463 810 l 579 810 m 463 694 l 347 694 l 232 694 l 232 579 l 232 463 l 232 347 l 232 232 l 347 232 l 463 232 l 579 232 l 579 347 l 579 463 l 579 579 l 579 694 l 463 694 z "},"\u0004":{"ha":694,"x_min":115,"x_max":694,"o":"m 579 810 l 694 810 l 694 694 l 694 579 l 694 463 l 694 347 l 694 232 l 694 115 l 579 115 l 463 115 l 347 115 l 232 115 l 115 115 l 115 232 l 115 347 l 115 463 l 115 579 l 115 694 l 115 810 l 232 810 l 347 810 l 463 810 l 579 810 m 463 694 l 347 694 l 232 694 l 232 579 l 232 463 l 232 347 l 232 232 l 347 232 l 463 232 l 579 232 l 579 347 l 579 463 l 579 579 l 579 694 l 463 694 z "},"\u0005":{"ha":694,"x_min":115,"x_max":694,"o":"m 579 810 l 694 810 l 694 694 l 694 579 l 694 463 l 694 347 l 694 232 l 694 115 l 579 115 l 463 115 l 347 115 l 232 115 l 115 115 l 115 232 l 115 347 l 115 463 l 115 579 l 115 694 l 115 810 l 232 810 l 347 810 l 463 810 l 579 810 m 463 694 l 347 694 l 232 694 l 232 579 l 232 463 l 232 347 l 232 232 l 347 232 l 463 232 l 579 232 l 579 347 l 579 463 l 579 579 l 579 694 l 463 694 z "},"\u0006":{"ha":694,"x_min":115,"x_max":694,"o":"m 579 810 l 694 810 l 694 694 l 694 579 l 694 463 l 694 347 l 694 232 l 694 115 l 579 115 l 463 115 l 347 115 l 232 115 l 115 115 l 115 232 l 115 347 l 115 463 l 115 579 l 115 694 l 115 810 l 232 810 l 347 810 l 463 810 l 579 810 m 463 694 l 347 694 l 232 694 l 232 579 l 232 463 l 232 347 l 232 232 l 347 232 l 463 232 l 579 232 l 579 347 l 579 463 l 579 579 l 579 694 l 463 694 z "},"\u0007":{"ha":694,"x_min":115,"x_max":694,"o":"m 579 810 l 694 810 l 694 694 l 694 579 l 694 463 l 694 347 l 694 232 l 694 115 l 579 115 l 463 115 l 347 115 l 232 115 l 115 115 l 115 232 l 115 347 l 115 463 l 115 579 l 115 694 l 115 810 l 232 810 l 347 810 l 463 810 l 579 810 m 463 694 l 347 694 l 232 694 l 232 579 l 232 463 l 232 347 l 232 232 l 347 232 l 463 232 l 579 232 l 579 347 l 579 463 l 579 579 l 579 694 l 463 694 z "},"\b":{"ha":694,"x_min":115,"x_max":694,"o":"m 579 810 l 694 810 l 694 694 l 694 579 l 694 463 l 694 347 l 694 232 l 694 115 l 579 115 l 463 115 l 347 115 l 232 115 l 115 115 l 115 232 l 115 347 l 115 463 l 115 579 l 115 694 l 115 810 l 232 810 l 347 810 l 463 810 l 579 810 m 463 694 l 347 694 l 232 694 l 232 579 l 232 463 l 232 347 l 232 232 l 347 232 l 463 232 l 579 232 l 579 347 l 579 463 l 579 579 l 579 694 l 463 694 z "},"\t":{"ha":694,"x_min":0,"x_max":0,"o":""},"\n":{"ha":694,"x_min":115,"x_max":694,"o":"m 579 810 l 694 810 l 694 694 l 694 579 l 694 463 l 694 347 l 694 232 l 694 115 l 579 115 l 463 115 l 347 115 l 232 115 l 115 115 l 115 232 l 115 347 l 115 463 l 115 579 l 115 694 l 115 810 l 232 810 l 347 810 l 463 810 l 579 810 m 463 694 l 347 694 l 232 694 l 232 579 l 232 463 l 232 347 l 232 232 l 347 232 l 463 232 l 579 232 l 579 347 l 579 463 l 579 579 l 579 694 l 463 694 z "},"\u000b":{"ha":694,"x_min":115,"x_max":694,"o":"m 579 810 l 694 810 l 694 694 l 694 579 l 694 463 l 694 347 l 694 232 l 694 115 l 579 115 l 463 115 l 347 115 l 232 115 l 115 115 l 115 232 l 115 347 l 115 463 l 115 579 l 115 694 l 115 810 l 232 810 l 347 810 l 463 810 l 579 810 m 463 694 l 347 694 l 232 694 l 232 579 l 232 463 l 232 347 l 232 232 l 347 232 l 463 232 l 579 232 l 579 347 l 579 463 l 579 579 l 579 694 l 463 694 z "},"\f":{"ha":694,"x_min":115,"x_max":694,"o":"m 579 810 l 694 810 l 694 694 l 694 579 l 694 463 l 694 347 l 694 232 l 694 115 l 579 115 l 463 115 l 347 115 l 232 115 l 115 115 l 115 232 l 115 347 l 115 463 l 115 579 l 115 694 l 115 810 l 232 810 l 347 810 l 463 810 l 579 810 m 463 694 l 347 694 l 232 694 l 232 579 l 232 463 l 232 347 l 232 232 l 347 232 l 463 232 l 579 232 l 579 347 l 579 463 l 579 579 l 579 694 l 463 694 z "},"\u000e":{"ha":694,"x_min":0,"x_max":463,"o":"m 347 1042 l 347 1157 l 463 1157 l 463 1042 l 463 926 l 463 810 l 463 694 l 463 579 l 463 463 l 463 347 l 347 347 l 232 347 l 115 347 l 0 347 l 0 463 l 115 463 l 232 463 l 347 463 l 347 579 l 347 694 l 347 810 l 347 926 l 347 1042 z "},"\u000f":{"ha":694,"x_min":347,"x_max":810,"o":"m 347 1042 l 347 1157 l 463 1157 l 463 1042 l 463 926 l 463 810 l 463 694 l 463 579 l 463 463 l 579 463 l 694 463 l 810 463 l 810 347 l 694 347 l 579 347 l 463 347 l 347 347 l 347 463 l 347 579 l 347 694 l 347 810 l 347 926 l 347 1042 z "},"\u0010":{"ha":694,"x_min":347,"x_max":810,"o":"m 347 -347 l 347 -232 l 347 -115 l 347 0 l 347 115 l 347 232 l 347 347 l 347 463 l 463 463 l 579 463 l 694 463 l 810 463 l 810 347 l 694 347 l 579 347 l 463 347 l 463 232 l 463 115 l 463 0 l 463 -115 l 463 -232 l 463 -347 l 347 -347 z "},"\u0011":{"ha":694,"x_min":0,"x_max":463,"o":"m 347 -347 l 347 -232 l 347 -115 l 347 0 l 347 115 l 347 232 l 347 347 l 232 347 l 115 347 l 0 347 l 0 463 l 115 463 l 232 463 l 347 463 l 463 463 l 463 347 l 463 232 l 463 115 l 463 0 l 463 -115 l 463 -232 l 463 -347 l 347 -347 z "},"\u0012":{"ha":694,"x_min":0,"x_max":810,"o":"m 694 463 l 810 463 l 810 347 l 694 347 l 579 347 l 463 347 l 347 347 l 232 347 l 115 347 l 0 347 l 0 463 l 115 463 l 232 463 l 347 463 l 463 463 l 579 463 l 694 463 z "},"\u0013":{"ha":694,"x_min":347,"x_max":463,"o":"m 347 -347 l 347 -232 l 347 -115 l 347 0 l 347 115 l 347 232 l 347 347 l 347 463 l 347 579 l 347 694 l 347 810 l 347 926 l 347 1042 l 347 1157 l 463 1157 l 463 1042 l 463 926 l 463 810 l 463 694 l 463 579 l 463 463 l 463 347 l 463 232 l 463 115 l 463 0 l 463 -115 l 463 -232 l 463 -347 l 347 -347 z "},"\u0014":{"ha":694,"x_min":0,"x_max":463,"o":"m 347 -347 l 347 -232 l 347 -115 l 347 0 l 347 115 l 347 232 l 347 347 l 232 347 l 115 347 l 0 347 l 0 463 l 115 463 l 232 463 l 347 463 l 347 579 l 347 694 l 347 810 l 347 926 l 347 1042 l 347 1157 l 463 1157 l 463 1042 l 463 926 l 463 810 l 463 694 l 463 579 l 463 463 l 463 347 l 463 232 l 463 115 l 463 0 l 463 -115 l 463 -232 l 463 -347 l 347 -347 z "},"\u0015":{"ha":694,"x_min":0,"x_max":810,"o":"m 347 1042 l 347 1157 l 463 1157 l 463 1042 l 463 926 l 463 810 l 463 694 l 463 579 l 463 463 l 579 463 l 694 463 l 810 463 l 810 347 l 694 347 l 579 347 l 463 347 l 347 347 l 232 347 l 115 347 l 0 347 l 0 463 l 115 463 l 232 463 l 347 463 l 347 579 l 347 694 l 347 810 l 347 926 l 347 1042 z "},"\u0016":{"ha":694,"x_min":347,"x_max":810,"o":"m 347 -347 l 347 -232 l 347 -115 l 347 0 l 347 115 l 347 232 l 347 347 l 347 463 l 347 579 l 347 694 l 347 810 l 347 926 l 347 1042 l 347 1157 l 463 1157 l 463 1042 l 463 926 l 463 810 l 463 694 l 463 579 l 463 463 l 579 463 l 694 463 l 810 463 l 810 347 l 694 347 l 579 347 l 463 347 l 463 232 l 463 115 l 463 0 l 463 -115 l 463 -232 l 463 -347 l 347 -347 z "},"\u0017":{"ha":694,"x_min":0,"x_max":810,"o":"m 347 -347 l 347 -232 l 347 -115 l 347 0 l 347 115 l 347 232 l 347 347 l 232 347 l 115 347 l 0 347 l 0 463 l 115 463 l 232 463 l 347 463 l 463 463 l 579 463 l 694 463 l 810 463 l 810 347 l 694 347 l 579 347 l 463 347 l 463 232 l 463 115 l 463 0 l 463 -115 l 463 -232 l 463 -347 l 347 -347 z "},"\u0018":{"ha":694,"x_min":0,"x_max":810,"o":"m 347 -347 l 347 -232 l 347 -115 l 347 0 l 347 115 l 347 232 l 347 347 l 232 347 l 115 347 l 0 347 l 0 463 l 115 463 l 232 463 l 347 463 l 347 579 l 347 694 l 347 810 l 347 926 l 347 1042 l 347 1157 l 463 1157 l 463 1042 l 463 926 l 463 810 l 463 694 l 463 579 l 463 463 l 579 463 l 694 463 l 810 463 l 810 347 l 694 347 l 579 347 l 463 347 l 463 232 l 463 115 l 463 0 l 463 -115 l 463 -232 l 463 -347 l 347 -347 z "},"\u0019":{"ha":694,"x_min":0,"x_max":810,"o":"m 694 -347 l 694 -232 l 579 -232 l 579 -115 l 463 -115 l 463 0 l 347 0 l 347 115 l 232 115 l 232 232 l 115 232 l 115 347 l 0 347 l 0 463 l 115 463 l 115 347 l 232 347 l 232 232 l 347 232 l 347 115 l 463 115 l 463 0 l 579 0 l 579 -115 l 694 -115 l 694 0 l 579 0 l 579 115 l 463 115 l 463 232 l 347 232 l 347 347 l 232 347 l 232 463 l 115 463 l 115 579 l 0 579 l 0 694 l 115 694 l 115 579 l 232 579 l 232 463 l 347 463 l 347 347 l 463 347 l 463 232 l 579 232 l 579 115 l 694 115 l 694 232 l 579 232 l 579 347 l 463 347 l 463 463 l 347 463 l 347 579 l 232 579 l 232 694 l 115 694 l 115 810 l 0 810 l 0 926 l 115 926 l 115 810 l 232 810 l 232 694 l 347 694 l 347 579 l 463 579 l 463 463 l 579 463 l 579 347 l 694 347 l 694 463 l 579 463 l 579 579 l 463 579 l 463 694 l 347 694 l 347 810 l 232 810 l 232 926 l 115 926 l 115 1042 l 0 1042 l 0 1157 l 115 1157 l 115 1042 l 232 1042 l 232 926 l 347 926 l 347 810 l 463 810 l 463 694 l 579 694 l 579 579 l 694 579 l 694 694 l 579 694 l 579 810 l 463 810 l 463 926 l 347 926 l 347 1042 l 232 1042 l 232 1157 l 347 1157 l 347 1042 l 463 1042 l 463 926 l 579 926 l 579 810 l 694 810 l 694 926 l 579 926 l 579 1042 l 463 1042 l 463 1157 l 579 1157 l 579 1042 l 694 1042 l 694 1157 l 810 1157 l 810 1042 l 694 1042 l 694 926 l 810 926 l 810 810 l 694 810 l 694 694 l 810 694 l 810 579 l 694 579 l 694 463 l 810 463 l 810 347 l 694 347 l 694 232 l 810 232 l 810 115 l 694 115 l 694 0 l 810 0 l 810 -115 l 694 -115 l 694 -232 l 810 -232 l 810 -347 l 694 -347 m 463 -347 l 463 -232 l 347 -232 l 347 -115 l 232 -115 l 232 0 l 115 0 l 115 115 l 0 115 l 0 232 l 115 232 l 115 115 l 232 115 l 232 0 l 347 0 l 347 -115 l 463 -115 l 463 -232 l 579 -232 l 579 -347 l 463 -347 m 232 -347 l 232 -232 l 115 -232 l 115 -115 l 0 -115 l 0 0 l 115 0 l 115 -115 l 232 -115 l 232 -232 l 347 -232 l 347 -347 l 232 -347 m 0 -347 l 0 -232 l 115 -232 l 115 -347 l 0 -347 z "},"\u001a":{"ha":694,"x_min":115,"x_max":694,"o":"m 232 115 l 232 232 l 115 232 l 115 347 l 232 347 l 347 347 l 347 463 l 232 463 l 115 463 l 115 579 l 232 579 l 347 579 l 463 579 l 463 694 l 579 694 l 579 579 l 694 579 l 694 463 l 579 463 l 463 463 l 463 347 l 579 347 l 694 347 l 694 232 l 579 232 l 463 232 l 347 232 l 347 115 l 232 115 z "},"\u001b":{"ha":694,"x_min":115,"x_max":694,"o":"m 579 810 l 694 810 l 694 694 l 579 694 l 463 694 l 463 810 l 579 810 m 463 694 l 463 579 l 347 579 l 232 579 l 232 694 l 347 694 l 463 694 m 232 579 l 232 463 l 115 463 l 115 579 l 232 579 m 232 463 l 347 463 l 463 463 l 463 347 l 347 347 l 232 347 l 232 463 m 463 347 l 579 347 l 694 347 l 694 232 l 579 232 l 463 232 l 463 347 m 579 115 l 694 115 l 694 0 l 463 0 l 232 0 l 115 0 l 115 115 l 232 115 l 347 115 l 463 115 l 579 115 z "},"\u001c":{"ha":694,"x_min":115,"x_max":694,"o":"m 463 0 l 463 115 l 463 232 l 463 347 l 463 463 l 463 579 l 347 579 l 347 463 l 347 347 l 347 232 l 347 115 l 347 0 l 232 0 l 232 115 l 232 232 l 232 347 l 232 463 l 232 579 l 115 579 l 115 694 l 232 694 l 347 694 l 463 694 l 579 694 l 694 694 l 694 579 l 579 579 l 579 463 l 579 347 l 579 232 l 579 115 l 579 0 l 463 0 z "},"\u001d":{"ha":694,"x_min":115,"x_max":694,"o":"m 232 810 l 347 810 l 347 694 l 232 694 l 115 694 l 115 810 l 232 810 m 347 694 l 463 694 l 579 694 l 579 579 l 463 579 l 347 579 l 347 694 m 579 579 l 694 579 l 694 463 l 579 463 l 579 579 m 579 463 l 579 347 l 463 347 l 347 347 l 347 463 l 463 463 l 579 463 m 347 347 l 347 232 l 232 232 l 115 232 l 115 347 l 232 347 l 347 347 m 579 115 l 694 115 l 694 0 l 463 0 l 232 0 l 115 0 l 115 115 l 232 115 l 347 115 l 463 115 l 579 115 z "},"\u001e":{"ha":694,"x_min":115,"x_max":694,"o":"m 463 926 l 579 926 l 579 810 l 463 810 l 347 810 l 347 926 l 463 926 m 347 810 l 347 694 l 347 579 l 463 579 l 579 579 l 579 463 l 463 463 l 347 463 l 347 347 l 347 232 l 232 232 l 232 347 l 232 463 l 115 463 l 115 579 l 232 579 l 232 694 l 232 810 l 347 810 m 232 232 l 232 115 l 347 115 l 463 115 l 579 115 l 694 115 l 694 0 l 463 0 l 232 0 l 115 0 l 115 115 l 115 232 l 232 232 z "},"\u001f":{"ha":694,"x_min":232,"x_max":579,"o":"m 463 463 l 579 463 l 579 347 l 463 347 l 347 347 l 232 347 l 232 463 l 347 463 l 463 463 z "}," ":{"ha":694,"x_min":0,"x_max":0,"o":""},"!":{"ha":694,"x_min":347,"x_max":463,"o":"m 347 232 l 347 347 l 347 463 l 347 579 l 347 694 l 347 810 l 347 926 l 463 926 l 463 810 l 463 694 l 463 579 l 463 463 l 463 347 l 463 232 l 347 232 m 347 0 l 347 115 l 463 115 l 463 0 l 347 0 z "},"\"":{"ha":694,"x_min":232,"x_max":579,"o":"m 463 694 l 463 810 l 463 926 l 463 1042 l 579 1042 l 579 926 l 579 810 l 579 694 l 463 694 m 232 694 l 232 810 l 232 926 l 232 1042 l 347 1042 l 347 926 l 347 810 l 347 694 l 232 694 z "},"#":{"ha":694,"x_min":115,"x_max":694,"o":"m 463 0 l 463 115 l 463 232 l 347 232 l 347 115 l 347 0 l 232 0 l 232 115 l 232 232 l 115 232 l 115 347 l 232 347 l 232 463 l 232 579 l 115 579 l 115 694 l 232 694 l 232 810 l 232 926 l 347 926 l 347 810 l 347 694 l 463 694 l 463 810 l 463 926 l 579 926 l 579 810 l 579 694 l 694 694 l 694 579 l 579 579 l 579 463 l 579 347 l 694 347 l 694 232 l 579 232 l 579 115 l 579 0 l 463 0 m 463 579 l 347 579 l 347 463 l 347 347 l 463 347 l 463 463 l 463 579 z "},"$":{"ha":694,"x_min":115,"x_max":694,"o":"m 579 694 l 579 810 l 463 810 l 463 694 l 463 579 l 579 579 l 579 463 l 694 463 l 694 347 l 694 232 l 694 115 l 579 115 l 579 0 l 463 0 l 463 -115 l 347 -115 l 347 0 l 232 0 l 232 115 l 115 115 l 115 232 l 232 232 l 232 115 l 347 115 l 347 232 l 347 347 l 347 463 l 232 463 l 232 579 l 115 579 l 115 694 l 115 810 l 232 810 l 232 694 l 232 579 l 347 579 l 347 694 l 347 810 l 232 810 l 232 926 l 347 926 l 347 1042 l 463 1042 l 463 926 l 579 926 l 579 810 l 694 810 l 694 694 l 579 694 m 579 463 l 463 463 l 463 347 l 463 232 l 463 115 l 579 115 l 579 232 l 579 347 l 579 463 z "},"%":{"ha":694,"x_min":115,"x_max":694,"o":"m 232 694 l 232 810 l 115 810 l 115 926 l 232 926 l 232 810 l 347 810 l 347 926 l 232 926 l 232 1042 l 347 1042 l 347 926 l 463 926 l 463 810 l 347 810 l 347 694 l 232 694 m 115 232 l 115 347 l 232 347 l 232 463 l 347 463 l 347 579 l 463 579 l 463 694 l 579 694 l 579 810 l 694 810 l 694 694 l 579 694 l 579 579 l 463 579 l 463 463 l 347 463 l 347 347 l 232 347 l 232 232 l 115 232 m 463 0 l 463 115 l 347 115 l 347 232 l 463 232 l 463 115 l 579 115 l 579 232 l 463 232 l 463 347 l 579 347 l 579 232 l 694 232 l 694 115 l 579 115 l 579 0 l 463 0 z "},"&":{"ha":694,"x_min":115,"x_max":694,"o":"m 579 0 l 579 115 l 463 115 l 463 232 l 463 347 l 463 463 l 347 463 l 232 463 l 232 579 l 347 579 l 347 694 l 232 694 l 232 810 l 232 926 l 347 926 l 347 810 l 347 694 l 463 694 l 463 810 l 463 926 l 347 926 l 347 1042 l 463 1042 l 463 926 l 579 926 l 579 810 l 579 694 l 463 694 l 463 579 l 463 463 l 579 463 l 579 579 l 694 579 l 694 463 l 579 463 l 579 347 l 579 232 l 579 115 l 694 115 l 694 0 l 579 0 m 232 463 l 232 347 l 232 232 l 232 115 l 115 115 l 115 232 l 115 347 l 115 463 l 232 463 m 463 115 l 463 0 l 232 0 l 232 115 l 347 115 l 463 115 z "},"'":{"ha":694,"x_min":347,"x_max":463,"o":"m 347 694 l 347 810 l 347 926 l 347 1042 l 463 1042 l 463 926 l 463 810 l 463 694 l 347 694 z "},"(":{"ha":694,"x_min":232,"x_max":579,"o":"m 463 -232 l 463 -115 l 347 -115 l 347 0 l 347 115 l 232 115 l 232 232 l 232 347 l 232 463 l 232 579 l 232 694 l 347 694 l 347 810 l 347 926 l 463 926 l 463 1042 l 579 1042 l 579 926 l 463 926 l 463 810 l 463 694 l 347 694 l 347 579 l 347 463 l 347 347 l 347 232 l 347 115 l 463 115 l 463 0 l 463 -115 l 579 -115 l 579 -232 l 463 -232 z "},")":{"ha":694,"x_min":232,"x_max":579,"o":"m 232 -232 l 232 -115 l 347 -115 l 347 0 l 347 115 l 463 115 l 463 232 l 463 347 l 463 463 l 463 579 l 463 694 l 347 694 l 347 810 l 347 926 l 232 926 l 232 1042 l 347 1042 l 347 926 l 463 926 l 463 810 l 463 694 l 579 694 l 579 579 l 579 463 l 579 347 l 579 232 l 579 115 l 463 115 l 463 0 l 463 -115 l 347 -115 l 347 -232 l 232 -232 z "},"*":{"ha":694,"x_min":115,"x_max":694,"o":"m 463 115 l 463 232 l 347 232 l 347 347 l 232 347 l 115 347 l 115 463 l 232 463 l 347 463 l 347 579 l 232 579 l 232 694 l 347 694 l 347 579 l 463 579 l 463 694 l 579 694 l 579 579 l 463 579 l 463 463 l 579 463 l 694 463 l 694 347 l 579 347 l 463 347 l 463 232 l 579 232 l 579 115 l 463 115 m 232 115 l 232 232 l 347 232 l 347 115 l 232 115 z "},"+":{"ha":694,"x_min":115,"x_max":694,"o":"m 347 115 l 347 232 l 347 347 l 232 347 l 115 347 l 115 463 l 232 463 l 347 463 l 347 579 l 347 694 l 463 694 l 463 579 l 463 463 l 579 463 l 694 463 l 694 347 l 579 347 l 463 347 l 463 232 l 463 115 l 347 115 z "},",":{"ha":694,"x_min":232,"x_max":463,"o":"m 232 -232 l 232 -115 l 347 -115 l 347 0 l 232 0 l 232 115 l 232 232 l 347 232 l 463 232 l 463 115 l 463 0 l 463 -115 l 347 -115 l 347 -232 l 232 -232 z "},"-":{"ha":694,"x_min":115,"x_max":694,"o":"m 579 463 l 694 463 l 694 347 l 579 347 l 463 347 l 347 347 l 232 347 l 115 347 l 115 463 l 232 463 l 347 463 l 463 463 l 579 463 z "},".":{"ha":694,"x_min":232,"x_max":463,"o":"m 347 232 l 463 232 l 463 115 l 463 0 l 232 0 l 232 115 l 232 232 l 347 232 z "},"/":{"ha":694,"x_min":115,"x_max":694,"o":"m 115 -115 l 115 0 l 115 115 l 232 115 l 232 232 l 232 347 l 347 347 l 347 463 l 347 579 l 463 579 l 463 694 l 463 810 l 579 810 l 579 926 l 579 1042 l 694 1042 l 694 926 l 694 810 l 579 810 l 579 694 l 579 579 l 463 579 l 463 463 l 463 347 l 347 347 l 347 232 l 347 115 l 232 115 l 232 0 l 232 -115 l 115 -115 z "},":":{"ha":694,"x_min":232,"x_max":463,"o":"m 347 694 l 463 694 l 463 579 l 463 463 l 347 463 l 232 463 l 232 579 l 232 694 l 347 694 m 347 232 l 463 232 l 463 115 l 463 0 l 232 0 l 232 115 l 232 232 l 347 232 z "},";":{"ha":694,"x_min":232,"x_max":463,"o":"m 232 -232 l 232 -115 l 347 -115 l 347 0 l 232 0 l 232 115 l 232 232 l 347 232 l 463 232 l 463 115 l 463 0 l 463 -115 l 347 -115 l 347 -232 l 232 -232 m 347 694 l 463 694 l 463 579 l 463 463 l 347 463 l 232 463 l 232 579 l 232 694 l 347 694 z "},"<":{"ha":694,"x_min":232,"x_max":694,"o":"m 579 0 l 579 115 l 463 115 l 463 232 l 347 232 l 347 347 l 232 347 l 232 463 l 347 463 l 347 579 l 463 579 l 463 694 l 579 694 l 579 810 l 694 810 l 694 694 l 579 694 l 579 579 l 463 579 l 463 463 l 347 463 l 347 347 l 463 347 l 463 232 l 579 232 l 579 115 l 694 115 l 694 0 l 579 0 z "},"=":{"ha":694,"x_min":115,"x_max":694,"o":"m 579 579 l 694 579 l 694 463 l 579 463 l 463 463 l 347 463 l 232 463 l 115 463 l 115 579 l 232 579 l 347 579 l 463 579 l 579 579 m 579 347 l 694 347 l 694 232 l 579 232 l 463 232 l 347 232 l 232 232 l 115 232 l 115 347 l 232 347 l 347 347 l 463 347 l 579 347 z "},">":{"ha":694,"x_min":115,"x_max":579,"o":"m 115 0 l 115 115 l 232 115 l 232 232 l 347 232 l 347 347 l 463 347 l 463 463 l 347 463 l 347 579 l 232 579 l 232 694 l 115 694 l 115 810 l 232 810 l 232 694 l 347 694 l 347 579 l 463 579 l 463 463 l 579 463 l 579 347 l 463 347 l 463 232 l 347 232 l 347 115 l 232 115 l 232 0 l 115 0 z "},"?":{"ha":694,"x_min":115,"x_max":694,"o":"m 115 694 l 115 810 l 232 810 l 232 926 l 347 926 l 463 926 l 579 926 l 579 810 l 463 810 l 347 810 l 232 810 l 232 694 l 115 694 m 347 232 l 347 347 l 347 463 l 463 463 l 463 579 l 579 579 l 579 694 l 579 810 l 694 810 l 694 694 l 694 579 l 579 579 l 579 463 l 463 463 l 463 347 l 463 232 l 347 232 m 347 0 l 347 115 l 463 115 l 463 0 l 347 0 z "},"@":{"ha":694,"x_min":115,"x_max":694,"o":"m 463 926 l 579 926 l 579 810 l 463 810 l 347 810 l 232 810 l 232 926 l 347 926 l 463 926 m 579 810 l 694 810 l 694 694 l 694 579 l 694 463 l 694 347 l 694 232 l 579 232 l 463 232 l 347 232 l 347 347 l 347 463 l 347 579 l 463 579 l 579 579 l 579 694 l 579 810 m 232 810 l 232 694 l 232 579 l 232 463 l 232 347 l 232 232 l 232 115 l 115 115 l 115 232 l 115 347 l 115 463 l 115 579 l 115 694 l 115 810 l 232 810 m 579 463 l 463 463 l 463 347 l 579 347 l 579 463 m 579 115 l 694 115 l 694 0 l 463 0 l 232 0 l 232 115 l 347 115 l 463 115 l 579 115 z "},"A":{"ha":694,"x_min":115,"x_max":694,"o":"m 579 0 l 579 115 l 579 232 l 579 347 l 463 347 l 347 347 l 232 347 l 232 232 l 232 115 l 232 0 l 115 0 l 115 115 l 115 232 l 115 347 l 115 463 l 115 579 l 115 694 l 115 810 l 232 810 l 232 694 l 232 579 l 232 463 l 347 463 l 463 463 l 579 463 l 579 579 l 579 694 l 579 810 l 463 810 l 347 810 l 232 810 l 232 926 l 347 926 l 463 926 l 579 926 l 579 810 l 694 810 l 694 694 l 694 579 l 694 463 l 694 347 l 694 232 l 694 115 l 694 0 l 579 0 z "},"B":{"ha":694,"x_min":115,"x_max":694,"o":"m 463 926 l 579 926 l 579 810 l 694 810 l 694 694 l 694 579 l 579 579 l 579 463 l 694 463 l 694 347 l 694 232 l 694 115 l 579 115 l 579 0 l 347 0 l 115 0 l 115 115 l 115 232 l 115 347 l 115 463 l 115 579 l 115 694 l 115 810 l 115 926 l 232 926 l 347 926 l 463 926 m 463 810 l 347 810 l 232 810 l 232 694 l 232 579 l 347 579 l 463 579 l 579 579 l 579 694 l 579 810 l 463 810 m 463 463 l 347 463 l 232 463 l 232 347 l 232 232 l 232 115 l 347 115 l 463 115 l 579 115 l 579 232 l 579 347 l 579 463 l 463 463 z "},"C":{"ha":694,"x_min":115,"x_max":694,"o":"m 579 694 l 579 810 l 463 810 l 347 810 l 232 810 l 232 926 l 347 926 l 463 926 l 579 926 l 579 810 l 694 810 l 694 694 l 579 694 m 232 810 l 232 694 l 232 579 l 232 463 l 232 347 l 232 232 l 232 115 l 115 115 l 115 232 l 115 347 l 115 463 l 115 579 l 115 694 l 115 810 l 232 810 m 579 115 l 579 232 l 694 232 l 694 115 l 579 115 m 579 115 l 579 0 l 347 0 l 232 0 l 232 115 l 347 115 l 463 115 l 579 115 z "},"D":{"ha":694,"x_min":115,"x_max":694,"o":"m 347 926 l 463 926 l 463 810 l 579 810 l 579 694 l 694 694 l 694 579 l 694 463 l 694 347 l 694 232 l 579 232 l 579 115 l 463 115 l 463 0 l 232 0 l 115 0 l 115 115 l 115 232 l 115 347 l 115 463 l 115 579 l 115 694 l 115 810 l 115 926 l 232 926 l 347 926 m 347 810 l 232 810 l 232 694 l 232 579 l 232 463 l 232 347 l 232 232 l 232 115 l 347 115 l 463 115 l 463 232 l 579 232 l 579 347 l 579 463 l 579 579 l 579 694 l 463 694 l 463 810 l 347 810 z "},"E":{"ha":694,"x_min":115,"x_max":694,"o":"m 579 926 l 694 926 l 694 810 l 579 810 l 463 810 l 347 810 l 232 810 l 232 694 l 232 579 l 347 579 l 463 579 l 579 579 l 579 463 l 463 463 l 347 463 l 232 463 l 232 347 l 232 232 l 232 115 l 347 115 l 463 115 l 579 115 l 694 115 l 694 0 l 463 0 l 232 0 l 115 0 l 115 115 l 115 232 l 115 347 l 115 463 l 115 579 l 115 694 l 115 810 l 115 926 l 232 926 l 347 926 l 463 926 l 579 926 z "},"F":{"ha":694,"x_min":115,"x_max":694,"o":"m 115 0 l 115 115 l 115 232 l 115 347 l 115 463 l 115 579 l 115 694 l 115 810 l 115 926 l 232 926 l 347 926 l 463 926 l 579 926 l 694 926 l 694 810 l 579 810 l 463 810 l 347 810 l 232 810 l 232 694 l 232 579 l 347 579 l 463 579 l 579 579 l 579 463 l 463 463 l 347 463 l 232 463 l 232 347 l 232 232 l 232 115 l 232 0 l 115 0 z "},"G":{"ha":694,"x_min":115,"x_max":694,"o":"m 579 694 l 579 810 l 463 810 l 347 810 l 232 810 l 232 926 l 347 926 l 463 926 l 579 926 l 579 810 l 694 810 l 694 694 l 579 694 m 232 810 l 232 694 l 232 579 l 232 463 l 232 347 l 232 232 l 232 115 l 115 115 l 115 232 l 115 347 l 115 463 l 115 579 l 115 694 l 115 810 l 232 810 m 579 463 l 694 463 l 694 347 l 694 232 l 694 115 l 579 115 l 579 232 l 579 347 l 463 347 l 463 463 l 579 463 m 579 115 l 579 0 l 347 0 l 232 0 l 232 115 l 347 115 l 463 115 l 579 115 z "},"H":{"ha":694,"x_min":115,"x_max":694,"o":"m 579 0 l 579 115 l 579 232 l 579 347 l 579 463 l 463 463 l 347 463 l 232 463 l 232 347 l 232 232 l 232 115 l 232 0 l 115 0 l 115 115 l 115 232 l 115 347 l 115 463 l 115 579 l 115 694 l 115 810 l 115 926 l 232 926 l 232 810 l 232 694 l 232 579 l 347 579 l 463 579 l 579 579 l 579 694 l 579 810 l 579 926 l 694 926 l 694 810 l 694 694 l 694 579 l 694 463 l 694 347 l 694 232 l 694 115 l 694 0 l 579 0 z "},"I":{"ha":694,"x_min":232,"x_max":579,"o":"m 463 926 l 579 926 l 579 810 l 463 810 l 463 694 l 463 579 l 463 463 l 463 347 l 463 232 l 463 115 l 579 115 l 579 0 l 347 0 l 232 0 l 232 115 l 347 115 l 347 232 l 347 347 l 347 463 l 347 579 l 347 694 l 347 810 l 232 810 l 232 926 l 347 926 l 463 926 z "},"J":{"ha":694,"x_min":115,"x_max":694,"o":"m 579 926 l 694 926 l 694 810 l 694 694 l 694 579 l 694 463 l 694 347 l 694 232 l 694 115 l 579 115 l 579 232 l 579 347 l 579 463 l 579 579 l 579 694 l 579 810 l 463 810 l 347 810 l 347 926 l 463 926 l 579 926 m 115 232 l 115 347 l 232 347 l 232 232 l 232 115 l 115 115 l 115 232 m 579 115 l 579 0 l 347 0 l 232 0 l 232 115 l 347 115 l 463 115 l 579 115 z "},"K":{"ha":694,"x_min":115,"x_max":694,"o":"m 579 0 l 579 115 l 579 232 l 463 232 l 463 347 l 463 463 l 347 463 l 232 463 l 232 347 l 232 232 l 232 115 l 232 0 l 115 0 l 115 115 l 115 232 l 115 347 l 115 463 l 115 579 l 115 694 l 115 810 l 115 926 l 232 926 l 232 810 l 232 694 l 232 579 l 347 579 l 347 694 l 463 694 l 463 810 l 579 810 l 579 926 l 694 926 l 694 810 l 579 810 l 579 694 l 463 694 l 463 579 l 463 463 l 579 463 l 579 347 l 579 232 l 694 232 l 694 115 l 694 0 l 579 0 z "},"L":{"ha":694,"x_min":115,"x_max":694,"o":"m 115 810 l 115 926 l 232 926 l 232 810 l 232 694 l 232 579 l 232 463 l 232 347 l 232 232 l 232 115 l 347 115 l 463 115 l 579 115 l 694 115 l 694 0 l 463 0 l 232 0 l 115 0 l 115 115 l 115 232 l 115 347 l 115 463 l 115 579 l 115 694 l 115 810 z "},"M":{"ha":694,"x_min":115,"x_max":694,"o":"m 347 463 l 347 579 l 347 694 l 232 694 l 232 579 l 232 463 l 232 347 l 232 232 l 232 115 l 232 0 l 115 0 l 115 115 l 115 232 l 115 347 l 115 463 l 115 579 l 115 694 l 115 810 l 115 926 l 232 926 l 232 810 l 347 810 l 347 694 l 463 694 l 463 810 l 579 810 l 579 926 l 694 926 l 694 810 l 694 694 l 694 579 l 694 463 l 694 347 l 694 232 l 694 115 l 694 0 l 579 0 l 579 115 l 579 232 l 579 347 l 579 463 l 579 579 l 579 694 l 463 694 l 463 579 l 463 463 l 347 463 z "},"N":{"ha":694,"x_min":115,"x_max":694,"o":"m 579 0 l 579 115 l 463 115 l 463 232 l 463 347 l 347 347 l 347 463 l 347 579 l 232 579 l 232 463 l 232 347 l 232 232 l 232 115 l 232 0 l 115 0 l 115 115 l 115 232 l 115 347 l 115 463 l 115 579 l 115 694 l 115 810 l 115 926 l 232 926 l 232 810 l 347 810 l 347 694 l 347 579 l 463 579 l 463 463 l 463 347 l 579 347 l 579 463 l 579 579 l 579 694 l 579 810 l 579 926 l 694 926 l 694 810 l 694 694 l 694 579 l 694 463 l 694 347 l 694 232 l 694 115 l 694 0 l 579 0 z "},"O":{"ha":694,"x_min":115,"x_max":694,"o":"m 463 926 l 579 926 l 579 810 l 463 810 l 347 810 l 232 810 l 232 926 l 347 926 l 463 926 m 579 810 l 694 810 l 694 694 l 694 579 l 694 463 l 694 347 l 694 232 l 694 115 l 579 115 l 579 232 l 579 347 l 579 463 l 579 579 l 579 694 l 579 810 m 232 810 l 232 694 l 232 579 l 232 463 l 232 347 l 232 232 l 232 115 l 115 115 l 115 232 l 115 347 l 115 463 l 115 579 l 115 694 l 115 810 l 232 810 m 579 115 l 579 0 l 347 0 l 232 0 l 232 115 l 347 115 l 463 115 l 579 115 z "},"P":{"ha":694,"x_min":115,"x_max":694,"o":"m 115 0 l 115 115 l 115 232 l 115 347 l 115 463 l 115 579 l 115 694 l 115 810 l 115 926 l 232 926 l 347 926 l 463 926 l 579 926 l 579 810 l 694 810 l 694 694 l 694 579 l 694 463 l 579 463 l 579 347 l 463 347 l 347 347 l 232 347 l 232 232 l 232 115 l 232 0 l 115 0 m 463 810 l 347 810 l 232 810 l 232 694 l 232 579 l 232 463 l 347 463 l 463 463 l 579 463 l 579 579 l 579 694 l 579 810 l 463 810 z "},"Q":{"ha":694,"x_min":115,"x_max":694,"o":"m 579 -115 l 579 0 l 579 115 l 463 115 l 463 232 l 579 232 l 579 347 l 579 463 l 579 579 l 579 694 l 579 810 l 463 810 l 347 810 l 232 810 l 232 926 l 347 926 l 463 926 l 579 926 l 579 810 l 694 810 l 694 694 l 694 579 l 694 463 l 694 347 l 694 232 l 579 232 l 579 115 l 694 115 l 694 0 l 694 -115 l 579 -115 m 232 810 l 232 694 l 232 579 l 232 463 l 232 347 l 232 232 l 232 115 l 115 115 l 115 232 l 115 347 l 115 463 l 115 579 l 115 694 l 115 810 l 232 810 m 463 115 l 463 0 l 232 0 l 232 115 l 347 115 l 463 115 z "},"R":{"ha":694,"x_min":115,"x_max":694,"o":"m 579 0 l 579 115 l 579 232 l 579 347 l 463 347 l 463 463 l 347 463 l 232 463 l 232 347 l 232 232 l 232 115 l 232 0 l 115 0 l 115 115 l 115 232 l 115 347 l 115 463 l 115 579 l 115 694 l 115 810 l 115 926 l 232 926 l 347 926 l 463 926 l 579 926 l 579 810 l 694 810 l 694 694 l 694 579 l 579 579 l 579 463 l 579 347 l 694 347 l 694 232 l 694 115 l 694 0 l 579 0 m 463 810 l 347 810 l 232 810 l 232 694 l 232 579 l 347 579 l 463 579 l 579 579 l 579 694 l 579 810 l 463 810 z "},"S":{"ha":694,"x_min":115,"x_max":694,"o":"m 579 694 l 579 810 l 463 810 l 347 810 l 232 810 l 232 926 l 347 926 l 463 926 l 579 926 l 579 810 l 694 810 l 694 694 l 579 694 m 232 810 l 232 694 l 232 579 l 115 579 l 115 694 l 115 810 l 232 810 m 463 579 l 579 579 l 579 463 l 463 463 l 347 463 l 232 463 l 232 579 l 347 579 l 463 579 m 579 463 l 694 463 l 694 347 l 694 232 l 694 115 l 579 115 l 579 232 l 579 347 l 579 463 m 579 115 l 579 0 l 347 0 l 232 0 l 232 115 l 115 115 l 115 232 l 232 232 l 232 115 l 347 115 l 463 115 l 579 115 z "},"T":{"ha":694,"x_min":115,"x_max":694,"o":"m 347 0 l 347 115 l 347 232 l 347 347 l 347 463 l 347 579 l 347 694 l 347 810 l 232 810 l 115 810 l 115 926 l 232 926 l 347 926 l 463 926 l 579 926 l 694 926 l 694 810 l 579 810 l 463 810 l 463 694 l 463 579 l 463 463 l 463 347 l 463 232 l 463 115 l 463 0 l 347 0 z "},"U":{"ha":694,"x_min":115,"x_max":694,"o":"m 579 810 l 579 926 l 694 926 l 694 810 l 694 694 l 694 579 l 694 463 l 694 347 l 694 232 l 694 115 l 579 115 l 579 232 l 579 347 l 579 463 l 579 579 l 579 694 l 579 810 m 115 810 l 115 926 l 232 926 l 232 810 l 232 694 l 232 579 l 232 463 l 232 347 l 232 232 l 232 115 l 115 115 l 115 232 l 115 347 l 115 463 l 115 579 l 115 694 l 115 810 m 579 115 l 579 0 l 347 0 l 232 0 l 232 115 l 347 115 l 463 115 l 579 115 z "},"V":{"ha":694,"x_min":115,"x_max":694,"o":"m 347 0 l 347 115 l 347 232 l 232 232 l 232 347 l 232 463 l 232 579 l 115 579 l 115 694 l 115 810 l 115 926 l 232 926 l 232 810 l 232 694 l 232 579 l 347 579 l 347 463 l 347 347 l 347 232 l 463 232 l 463 347 l 463 463 l 463 579 l 579 579 l 579 694 l 579 810 l 579 926 l 694 926 l 694 810 l 694 694 l 694 579 l 579 579 l 579 463 l 579 347 l 579 232 l 463 232 l 463 115 l 463 0 l 347 0 z "},"W":{"ha":694,"x_min":115,"x_max":694,"o":"m 463 0 l 463 115 l 463 232 l 347 232 l 347 115 l 347 0 l 232 0 l 232 115 l 232 232 l 232 347 l 115 347 l 115 463 l 115 579 l 115 694 l 115 810 l 115 926 l 232 926 l 232 810 l 232 694 l 232 579 l 232 463 l 232 347 l 347 347 l 347 463 l 347 579 l 463 579 l 463 463 l 463 347 l 579 347 l 579 463 l 579 579 l 579 694 l 579 810 l 579 926 l 694 926 l 694 810 l 694 694 l 694 579 l 694 463 l 694 347 l 579 347 l 579 232 l 579 115 l 579 0 l 463 0 z "},"X":{"ha":694,"x_min":115,"x_max":694,"o":"m 579 0 l 579 115 l 579 232 l 463 232 l 463 347 l 347 347 l 347 463 l 347 579 l 232 579 l 232 694 l 115 694 l 115 810 l 115 926 l 232 926 l 232 810 l 232 694 l 347 694 l 347 579 l 463 579 l 463 694 l 579 694 l 579 810 l 579 926 l 694 926 l 694 810 l 694 694 l 579 694 l 579 579 l 463 579 l 463 463 l 463 347 l 579 347 l 579 232 l 694 232 l 694 115 l 694 0 l 579 0 m 115 0 l 115 115 l 115 232 l 232 232 l 232 347 l 347 347 l 347 232 l 232 232 l 232 115 l 232 0 l 115 0 z "},"Y":{"ha":694,"x_min":115,"x_max":694,"o":"m 347 0 l 347 115 l 347 232 l 347 347 l 347 463 l 232 463 l 232 579 l 115 579 l 115 694 l 115 810 l 115 926 l 232 926 l 232 810 l 232 694 l 232 579 l 347 579 l 347 463 l 463 463 l 463 579 l 579 579 l 579 694 l 579 810 l 579 926 l 694 926 l 694 810 l 694 694 l 694 579 l 579 579 l 579 463 l 463 463 l 463 347 l 463 232 l 463 115 l 463 0 l 347 0 z "},"Z":{"ha":694,"x_min":115,"x_max":694,"o":"m 579 926 l 694 926 l 694 810 l 579 810 l 579 694 l 463 694 l 463 810 l 347 810 l 232 810 l 115 810 l 115 926 l 232 926 l 347 926 l 463 926 l 579 926 m 463 694 l 463 579 l 463 463 l 347 463 l 347 579 l 347 694 l 463 694 m 347 463 l 347 347 l 347 232 l 232 232 l 232 347 l 232 463 l 347 463 m 232 232 l 232 115 l 347 115 l 463 115 l 579 115 l 694 115 l 694 0 l 463 0 l 232 0 l 115 0 l 115 115 l 115 232 l 232 232 z "},"[":{"ha":694,"x_min":232,"x_max":579,"o":"m 463 1042 l 579 1042 l 579 926 l 463 926 l 347 926 l 347 810 l 347 694 l 347 579 l 347 463 l 347 347 l 347 232 l 347 115 l 347 0 l 347 -115 l 463 -115 l 579 -115 l 579 -232 l 463 -232 l 347 -232 l 232 -232 l 232 -115 l 232 0 l 232 115 l 232 232 l 232 347 l 232 463 l 232 579 l 232 694 l 232 810 l 232 926 l 232 1042 l 347 1042 l 463 1042 z "},"\\":{"ha":694,"x_min":115,"x_max":694,"o":"m 579 -115 l 579 0 l 579 115 l 463 115 l 463 232 l 463 347 l 347 347 l 347 463 l 347 579 l 232 579 l 232 694 l 232 810 l 115 810 l 115 926 l 115 1042 l 232 1042 l 232 926 l 232 810 l 347 810 l 347 694 l 347 579 l 463 579 l 463 463 l 463 347 l 579 347 l 579 232 l 579 115 l 694 115 l 694 0 l 694 -115 l 579 -115 z "},"]":{"ha":694,"x_min":232,"x_max":579,"o":"m 463 1042 l 579 1042 l 579 926 l 579 810 l 579 694 l 579 579 l 579 463 l 579 347 l 579 232 l 579 115 l 579 0 l 579 -115 l 579 -232 l 463 -232 l 347 -232 l 232 -232 l 232 -115 l 347 -115 l 463 -115 l 463 0 l 463 115 l 463 232 l 463 347 l 463 463 l 463 579 l 463 694 l 463 810 l 463 926 l 347 926 l 232 926 l 232 1042 l 347 1042 l 463 1042 z "},"^":{"ha":694,"x_min":115,"x_max":694,"o":"m 579 810 l 579 926 l 463 926 l 463 1042 l 347 1042 l 347 1157 l 463 1157 l 463 1042 l 579 1042 l 579 926 l 694 926 l 694 810 l 579 810 m 115 810 l 115 926 l 232 926 l 232 1042 l 347 1042 l 347 926 l 232 926 l 232 810 l 115 810 z "},"_":{"ha":694,"x_min":115,"x_max":694,"o":"m 463 0 l 694 0 l 694 -115 l 579 -115 l 463 -115 l 347 -115 l 232 -115 l 115 -115 l 115 0 l 347 0 l 463 0 z "},"`":{"ha":694,"x_min":232,"x_max":463,"o":"m 347 810 l 347 926 l 232 926 l 232 1042 l 347 1042 l 347 926 l 463 926 l 463 810 l 347 810 z "},"a":{"ha":694,"x_min":115,"x_max":694,"o":"m 579 0 l 579 115 l 463 115 l 463 232 l 579 232 l 579 347 l 579 463 l 579 579 l 463 579 l 347 579 l 232 579 l 232 694 l 347 694 l 463 694 l 579 694 l 694 694 l 694 579 l 694 463 l 694 347 l 694 232 l 694 115 l 694 0 l 579 0 m 232 579 l 232 463 l 232 347 l 232 232 l 232 115 l 115 115 l 115 232 l 115 347 l 115 463 l 115 579 l 232 579 m 463 115 l 463 0 l 232 0 l 232 115 l 347 115 l 463 115 z "},"b":{"ha":694,"x_min":115,"x_max":694,"o":"m 115 926 l 115 1042 l 232 1042 l 232 926 l 232 810 l 232 694 l 347 694 l 463 694 l 579 694 l 579 579 l 694 579 l 694 463 l 694 347 l 694 232 l 694 115 l 579 115 l 579 0 l 347 0 l 115 0 l 115 115 l 115 232 l 115 347 l 115 463 l 115 579 l 115 694 l 115 810 l 115 926 m 463 579 l 347 579 l 232 579 l 232 463 l 232 347 l 232 232 l 232 115 l 347 115 l 463 115 l 579 115 l 579 232 l 579 347 l 579 463 l 579 579 l 463 579 z "},"c":{"ha":694,"x_min":115,"x_max":694,"o":"m 579 463 l 579 579 l 463 579 l 347 579 l 232 579 l 232 694 l 347 694 l 463 694 l 579 694 l 579 579 l 694 579 l 694 463 l 579 463 m 232 579 l 232 463 l 232 347 l 232 232 l 232 115 l 115 115 l 115 232 l 115 347 l 115 463 l 115 579 l 232 579 m 579 115 l 579 232 l 694 232 l 694 115 l 579 115 m 579 115 l 579 0 l 347 0 l 232 0 l 232 115 l 347 115 l 463 115 l 579 115 z "},"d":{"ha":694,"x_min":115,"x_max":694,"o":"m 579 926 l 579 1042 l 694 1042 l 694 926 l 694 810 l 694 694 l 694 579 l 694 463 l 694 347 l 694 232 l 694 115 l 694 0 l 463 0 l 232 0 l 232 115 l 115 115 l 115 232 l 115 347 l 115 463 l 115 579 l 232 579 l 232 463 l 232 347 l 232 232 l 232 115 l 347 115 l 463 115 l 579 115 l 579 232 l 579 347 l 579 463 l 579 579 l 463 579 l 347 579 l 232 579 l 232 694 l 347 694 l 463 694 l 579 694 l 579 810 l 579 926 z "},"e":{"ha":694,"x_min":115,"x_max":694,"o":"m 463 694 l 579 694 l 579 579 l 463 579 l 347 579 l 232 579 l 232 694 l 347 694 l 463 694 m 579 579 l 694 579 l 694 463 l 694 347 l 579 347 l 463 347 l 347 347 l 232 347 l 232 232 l 232 115 l 115 115 l 115 232 l 115 347 l 115 463 l 115 579 l 232 579 l 232 463 l 347 463 l 463 463 l 579 463 l 579 579 m 579 115 l 579 232 l 694 232 l 694 115 l 579 115 m 579 115 l 579 0 l 347 0 l 232 0 l 232 115 l 347 115 l 463 115 l 579 115 z "},"f":{"ha":694,"x_min":115,"x_max":694,"o":"m 232 0 l 232 115 l 232 232 l 232 347 l 232 463 l 232 579 l 115 579 l 115 694 l 232 694 l 232 810 l 232 926 l 347 926 l 347 1042 l 463 1042 l 579 1042 l 694 1042 l 694 926 l 579 926 l 463 926 l 347 926 l 347 810 l 347 694 l 463 694 l 579 694 l 579 579 l 463 579 l 347 579 l 347 463 l 347 347 l 347 232 l 347 115 l 347 0 l 232 0 z "},"g":{"ha":694,"x_min":115,"x_max":694,"o":"m 579 694 l 694 694 l 694 579 l 694 463 l 694 347 l 694 232 l 694 115 l 694 0 l 694 -115 l 694 -232 l 579 -232 l 579 -115 l 579 0 l 347 0 l 232 0 l 232 115 l 115 115 l 115 232 l 115 347 l 115 463 l 115 579 l 232 579 l 232 463 l 232 347 l 232 232 l 232 115 l 347 115 l 463 115 l 579 115 l 579 232 l 579 347 l 579 463 l 579 579 l 463 579 l 347 579 l 232 579 l 232 694 l 347 694 l 463 694 l 579 694 m 579 -232 l 579 -347 l 463 -347 l 347 -347 l 232 -347 l 232 -232 l 347 -232 l 463 -232 l 579 -232 z "},"h":{"ha":694,"x_min":115,"x_max":694,"o":"m 579 0 l 579 115 l 579 232 l 579 347 l 579 463 l 579 579 l 463 579 l 347 579 l 232 579 l 232 463 l 232 347 l 232 232 l 232 115 l 232 0 l 115 0 l 115 115 l 115 232 l 115 347 l 115 463 l 115 579 l 115 694 l 115 810 l 115 926 l 115 1042 l 232 1042 l 232 926 l 232 810 l 232 694 l 347 694 l 463 694 l 579 694 l 579 579 l 694 579 l 694 463 l 694 347 l 694 232 l 694 115 l 694 0 l 579 0 z "},"i":{"ha":694,"x_min":232,"x_max":694,"o":"m 347 810 l 347 926 l 463 926 l 463 810 l 347 810 m 347 694 l 463 694 l 463 579 l 463 463 l 463 347 l 463 232 l 463 115 l 347 115 l 347 232 l 347 347 l 347 463 l 347 579 l 232 579 l 232 694 l 347 694 m 463 115 l 579 115 l 694 115 l 694 0 l 463 0 l 463 115 z "},"j":{"ha":694,"x_min":232,"x_max":579,"o":"m 463 810 l 463 926 l 579 926 l 579 810 l 463 810 m 347 -232 l 347 -115 l 232 -115 l 232 0 l 347 0 l 347 -115 l 463 -115 l 463 0 l 463 115 l 463 232 l 463 347 l 463 463 l 463 579 l 347 579 l 347 694 l 463 694 l 579 694 l 579 579 l 579 463 l 579 347 l 579 232 l 579 115 l 579 0 l 579 -115 l 463 -115 l 463 -232 l 347 -232 z "},"k":{"ha":694,"x_min":115,"x_max":694,"o":"m 579 0 l 579 115 l 463 115 l 463 232 l 347 232 l 232 232 l 232 115 l 232 0 l 115 0 l 115 115 l 115 232 l 115 347 l 115 463 l 115 579 l 115 694 l 115 810 l 115 926 l 115 1042 l 232 1042 l 232 926 l 232 810 l 232 694 l 232 579 l 232 463 l 232 347 l 347 347 l 347 463 l 463 463 l 463 579 l 579 579 l 579 694 l 694 694 l 694 579 l 579 579 l 579 463 l 463 463 l 463 347 l 463 232 l 579 232 l 579 115 l 694 115 l 694 0 l 579 0 z "},"l":{"ha":694,"x_min":232,"x_max":579,"o":"m 347 1042 l 463 1042 l 463 926 l 463 810 l 463 694 l 463 579 l 463 463 l 463 347 l 463 232 l 463 115 l 579 115 l 579 0 l 347 0 l 347 115 l 347 232 l 347 347 l 347 463 l 347 579 l 347 694 l 347 810 l 347 926 l 232 926 l 232 1042 l 347 1042 z "},"m":{"ha":694,"x_min":115,"x_max":694,"o":"m 579 0 l 579 115 l 579 232 l 579 347 l 579 463 l 579 579 l 463 579 l 463 694 l 579 694 l 579 579 l 694 579 l 694 463 l 694 347 l 694 232 l 694 115 l 694 0 l 579 0 m 347 0 l 347 115 l 347 232 l 347 347 l 347 463 l 347 579 l 232 579 l 232 463 l 232 347 l 232 232 l 232 115 l 232 0 l 115 0 l 115 115 l 115 232 l 115 347 l 115 463 l 115 579 l 115 694 l 232 694 l 347 694 l 347 579 l 463 579 l 463 463 l 463 347 l 463 232 l 463 115 l 463 0 l 347 0 z "},"n":{"ha":694,"x_min":115,"x_max":694,"o":"m 579 0 l 579 115 l 579 232 l 579 347 l 579 463 l 579 579 l 463 579 l 347 579 l 232 579 l 232 463 l 232 347 l 232 232 l 232 115 l 232 0 l 115 0 l 115 115 l 115 232 l 115 347 l 115 463 l 115 579 l 115 694 l 232 694 l 347 694 l 463 694 l 579 694 l 579 579 l 694 579 l 694 463 l 694 347 l 694 232 l 694 115 l 694 0 l 579 0 z "},"o":{"ha":694,"x_min":115,"x_max":694,"o":"m 463 694 l 579 694 l 579 579 l 463 579 l 347 579 l 232 579 l 232 694 l 347 694 l 463 694 m 579 579 l 694 579 l 694 463 l 694 347 l 694 232 l 694 115 l 579 115 l 579 232 l 579 347 l 579 463 l 579 579 m 232 579 l 232 463 l 232 347 l 232 232 l 232 115 l 115 115 l 115 232 l 115 347 l 115 463 l 115 579 l 232 579 m 579 115 l 579 0 l 347 0 l 232 0 l 232 115 l 347 115 l 463 115 l 579 115 z "},"p":{"ha":694,"x_min":115,"x_max":694,"o":"m 115 -347 l 115 -232 l 115 -115 l 115 0 l 115 115 l 115 232 l 115 347 l 115 463 l 115 579 l 115 694 l 232 694 l 347 694 l 463 694 l 579 694 l 579 579 l 694 579 l 694 463 l 694 347 l 694 232 l 694 115 l 579 115 l 579 0 l 347 0 l 232 0 l 232 -115 l 232 -232 l 232 -347 l 115 -347 m 463 579 l 347 579 l 232 579 l 232 463 l 232 347 l 232 232 l 232 115 l 347 115 l 463 115 l 579 115 l 579 232 l 579 347 l 579 463 l 579 579 l 463 579 z "},"q":{"ha":694,"x_min":115,"x_max":810,"o":"m 579 694 l 694 694 l 694 579 l 694 463 l 694 347 l 694 232 l 694 115 l 694 0 l 694 -115 l 694 -232 l 810 -232 l 810 -347 l 694 -347 l 579 -347 l 579 -232 l 579 -115 l 579 0 l 347 0 l 232 0 l 232 115 l 115 115 l 115 232 l 115 347 l 115 463 l 115 579 l 232 579 l 232 463 l 232 347 l 232 232 l 232 115 l 347 115 l 463 115 l 579 115 l 579 232 l 579 347 l 579 463 l 579 579 l 463 579 l 347 579 l 232 579 l 232 694 l 347 694 l 463 694 l 579 694 z "},"r":{"ha":694,"x_min":115,"x_max":694,"o":"m 579 463 l 579 579 l 463 579 l 347 579 l 232 579 l 232 463 l 232 347 l 232 232 l 232 115 l 232 0 l 115 0 l 115 115 l 115 232 l 115 347 l 115 463 l 115 579 l 115 694 l 232 694 l 347 694 l 463 694 l 579 694 l 579 579 l 694 579 l 694 463 l 579 463 z "},"s":{"ha":694,"x_min":115,"x_max":694,"o":"m 579 694 l 694 694 l 694 579 l 579 579 l 463 579 l 347 579 l 232 579 l 232 694 l 347 694 l 463 694 l 579 694 m 232 579 l 232 463 l 115 463 l 115 579 l 232 579 m 463 463 l 579 463 l 579 347 l 463 347 l 347 347 l 232 347 l 232 463 l 347 463 l 463 463 m 579 347 l 694 347 l 694 232 l 694 115 l 579 115 l 579 232 l 579 347 m 579 115 l 579 0 l 347 0 l 115 0 l 115 115 l 232 115 l 347 115 l 463 115 l 579 115 z "},"t":{"ha":694,"x_min":115,"x_max":694,"o":"m 232 810 l 232 926 l 347 926 l 347 810 l 347 694 l 463 694 l 579 694 l 579 579 l 463 579 l 347 579 l 347 463 l 347 347 l 347 232 l 347 115 l 232 115 l 232 232 l 232 347 l 232 463 l 232 579 l 115 579 l 115 694 l 232 694 l 232 810 m 579 115 l 694 115 l 694 0 l 463 0 l 347 0 l 347 115 l 463 115 l 579 115 z "},"u":{"ha":694,"x_min":115,"x_max":694,"o":"m 579 579 l 579 694 l 694 694 l 694 579 l 694 463 l 694 347 l 694 232 l 694 115 l 694 0 l 463 0 l 232 0 l 232 115 l 115 115 l 115 232 l 115 347 l 115 463 l 115 579 l 115 694 l 232 694 l 232 579 l 232 463 l 232 347 l 232 232 l 232 115 l 347 115 l 463 115 l 579 115 l 579 232 l 579 347 l 579 463 l 579 579 z "},"v":{"ha":694,"x_min":115,"x_max":694,"o":"m 347 0 l 347 115 l 347 232 l 232 232 l 232 347 l 232 463 l 115 463 l 115 579 l 115 694 l 232 694 l 232 579 l 232 463 l 347 463 l 347 347 l 347 232 l 463 232 l 463 347 l 463 463 l 579 463 l 579 579 l 579 694 l 694 694 l 694 579 l 694 463 l 579 463 l 579 347 l 579 232 l 463 232 l 463 115 l 463 0 l 347 0 z "},"w":{"ha":694,"x_min":115,"x_max":694,"o":"m 463 0 l 463 115 l 463 232 l 347 232 l 347 347 l 347 463 l 463 463 l 463 347 l 463 232 l 579 232 l 579 347 l 579 463 l 579 579 l 579 694 l 694 694 l 694 579 l 694 463 l 694 347 l 694 232 l 579 232 l 579 115 l 579 0 l 463 0 m 232 0 l 232 115 l 232 232 l 115 232 l 115 347 l 115 463 l 115 579 l 115 694 l 232 694 l 232 579 l 232 463 l 232 347 l 232 232 l 347 232 l 347 115 l 347 0 l 232 0 z "},"x":{"ha":694,"x_min":115,"x_max":694,"o":"m 579 0 l 579 115 l 463 115 l 463 232 l 347 232 l 347 347 l 347 463 l 232 463 l 232 579 l 115 579 l 115 694 l 232 694 l 232 579 l 347 579 l 347 463 l 463 463 l 463 579 l 579 579 l 579 694 l 694 694 l 694 579 l 579 579 l 579 463 l 463 463 l 463 347 l 463 232 l 579 232 l 579 115 l 694 115 l 694 0 l 579 0 m 115 0 l 115 115 l 232 115 l 232 232 l 347 232 l 347 115 l 232 115 l 232 0 l 115 0 z "},"y":{"ha":694,"x_min":115,"x_max":694,"o":"m 579 579 l 579 694 l 694 694 l 694 579 l 694 463 l 694 347 l 694 232 l 694 115 l 694 0 l 694 -115 l 694 -232 l 579 -232 l 579 -115 l 579 0 l 347 0 l 232 0 l 232 115 l 115 115 l 115 232 l 115 347 l 115 463 l 115 579 l 115 694 l 232 694 l 232 579 l 232 463 l 232 347 l 232 232 l 232 115 l 347 115 l 463 115 l 579 115 l 579 232 l 579 347 l 579 463 l 579 579 m 579 -232 l 579 -347 l 463 -347 l 347 -347 l 232 -347 l 232 -232 l 347 -232 l 463 -232 l 579 -232 z "},"z":{"ha":694,"x_min":115,"x_max":694,"o":"m 579 694 l 694 694 l 694 579 l 579 579 l 579 463 l 463 463 l 463 579 l 347 579 l 232 579 l 115 579 l 115 694 l 232 694 l 347 694 l 463 694 l 579 694 m 463 463 l 463 347 l 347 347 l 347 463 l 463 463 m 347 347 l 347 232 l 232 232 l 232 347 l 347 347 m 232 232 l 232 115 l 347 115 l 463 115 l 579 115 l 694 115 l 694 0 l 463 0 l 232 0 l 115 0 l 115 115 l 115 232 l 232 232 z "},"{":{"ha":694,"x_min":115,"x_max":694,"o":"m 579 1042 l 694 1042 l 694 926 l 579 926 l 463 926 l 463 1042 l 579 1042 m 463 926 l 463 810 l 463 694 l 463 579 l 463 463 l 347 463 l 347 579 l 347 694 l 347 810 l 347 926 l 463 926 m 347 463 l 347 347 l 232 347 l 115 347 l 115 463 l 232 463 l 347 463 m 347 347 l 463 347 l 463 232 l 463 115 l 463 0 l 463 -115 l 347 -115 l 347 0 l 347 115 l 347 232 l 347 347 m 463 -115 l 579 -115 l 694 -115 l 694 -232 l 579 -232 l 463 -232 l 463 -115 z "},"|":{"ha":694,"x_min":347,"x_max":463,"o":"m 347 -232 l 347 -115 l 347 0 l 347 115 l 347 232 l 347 347 l 347 463 l 347 579 l 347 694 l 347 810 l 347 926 l 347 1042 l 463 1042 l 463 926 l 463 810 l 463 694 l 463 579 l 463 463 l 463 347 l 463 232 l 463 115 l 463 0 l 463 -115 l 463 -232 l 347 -232 z "},"}":{"ha":694,"x_min":115,"x_max":694,"o":"m 232 1042 l 347 1042 l 347 926 l 232 926 l 115 926 l 115 1042 l 232 1042 m 347 926 l 463 926 l 463 810 l 463 694 l 463 579 l 463 463 l 347 463 l 347 579 l 347 694 l 347 810 l 347 926 m 463 463 l 579 463 l 694 463 l 694 347 l 579 347 l 463 347 l 463 463 m 463 347 l 463 232 l 463 115 l 463 0 l 463 -115 l 347 -115 l 347 0 l 347 115 l 347 232 l 347 347 l 463 347 m 347 -115 l 347 -232 l 232 -232 l 115 -232 l 115 -115 l 232 -115 l 347 -115 z "},"~":{"ha":694,"x_min":115,"x_max":694,"o":"m 463 232 l 463 347 l 347 347 l 347 463 l 232 463 l 232 579 l 347 579 l 347 463 l 463 463 l 463 347 l 579 347 l 579 463 l 579 579 l 694 579 l 694 463 l 694 347 l 579 347 l 579 232 l 463 232 m 115 232 l 115 347 l 115 463 l 232 463 l 232 347 l 232 232 l 115 232 z "},"":{"ha":694,"x_min":0,"x_max":0,"o":""}," ":{"ha":694,"x_min":0,"x_max":0,"o":""},"¡":{"ha":694,"x_min":347,"x_max":463,"o":"m 347 579 l 347 694 l 463 694 l 463 579 l 347 579 m 347 -232 l 347 -115 l 347 0 l 347 115 l 347 232 l 347 347 l 347 463 l 463 463 l 463 347 l 463 232 l 463 115 l 463 0 l 463 -115 l 463 -232 l 347 -232 z "},"¢":{"ha":694,"x_min":115,"x_max":694,"o":"m 579 463 l 579 579 l 463 579 l 463 463 l 463 347 l 463 232 l 463 115 l 579 115 l 579 232 l 694 232 l 694 115 l 579 115 l 579 0 l 463 0 l 463 -115 l 347 -115 l 347 0 l 232 0 l 232 115 l 115 115 l 115 232 l 115 347 l 115 463 l 115 579 l 232 579 l 232 463 l 232 347 l 232 232 l 232 115 l 347 115 l 347 232 l 347 347 l 347 463 l 347 579 l 232 579 l 232 694 l 347 694 l 347 810 l 463 810 l 463 694 l 579 694 l 579 579 l 694 579 l 694 463 l 579 463 z "},"£":{"ha":694,"x_min":115,"x_max":694,"o":"m 115 0 l 115 115 l 232 115 l 232 232 l 232 347 l 232 463 l 115 463 l 115 579 l 232 579 l 232 694 l 232 810 l 347 810 l 347 926 l 463 926 l 579 926 l 579 810 l 463 810 l 347 810 l 347 694 l 347 579 l 463 579 l 579 579 l 579 463 l 463 463 l 347 463 l 347 347 l 347 232 l 347 115 l 232 115 l 232 0 l 115 0 m 579 115 l 694 115 l 694 0 l 463 0 l 347 0 l 347 115 l 463 115 l 579 115 z "},"¤":{"ha":694,"x_min":115,"x_max":694,"o":"m 579 0 l 579 115 l 463 115 l 347 115 l 232 115 l 232 232 l 232 347 l 232 463 l 232 579 l 115 579 l 115 694 l 232 694 l 232 579 l 347 579 l 463 579 l 579 579 l 579 694 l 694 694 l 694 579 l 579 579 l 579 463 l 579 347 l 579 232 l 579 115 l 694 115 l 694 0 l 579 0 m 115 0 l 115 115 l 232 115 l 232 0 l 115 0 m 463 463 l 347 463 l 347 347 l 347 232 l 463 232 l 463 347 l 463 463 z "},"¥":{"ha":694,"x_min":115,"x_max":694,"o":"m 347 0 l 347 115 l 232 115 l 115 115 l 115 232 l 232 232 l 347 232 l 347 347 l 232 347 l 115 347 l 115 463 l 232 463 l 347 463 l 347 579 l 232 579 l 232 694 l 115 694 l 115 810 l 115 926 l 115 1042 l 232 1042 l 232 926 l 232 810 l 232 694 l 347 694 l 347 579 l 463 579 l 463 694 l 579 694 l 579 810 l 579 926 l 579 1042 l 694 1042 l 694 926 l 694 810 l 694 694 l 579 694 l 579 579 l 463 579 l 463 463 l 579 463 l 694 463 l 694 347 l 579 347 l 463 347 l 463 232 l 579 232 l 694 232 l 694 115 l 579 115 l 463 115 l 463 0 l 347 0 z "},"¦":{"ha":694,"x_min":347,"x_max":463,"o":"m 347 579 l 347 694 l 347 810 l 347 926 l 347 1042 l 463 1042 l 463 926 l 463 810 l 463 694 l 463 579 l 347 579 m 347 -232 l 347 -115 l 347 0 l 347 115 l 347 232 l 463 232 l 463 115 l 463 0 l 463 -115 l 463 -232 l 347 -232 z "},"§":{"ha":694,"x_min":115,"x_max":694,"o":"m 579 810 l 579 926 l 463 926 l 347 926 l 232 926 l 232 1042 l 347 1042 l 463 1042 l 579 1042 l 579 926 l 694 926 l 694 810 l 579 810 m 232 926 l 232 810 l 232 694 l 115 694 l 115 810 l 115 926 l 232 926 m 232 694 l 347 694 l 463 694 l 463 579 l 347 579 l 347 463 l 347 347 l 232 347 l 232 463 l 232 579 l 232 694 m 463 579 l 579 579 l 579 463 l 579 347 l 579 232 l 463 232 l 347 232 l 347 347 l 463 347 l 463 463 l 463 579 m 579 232 l 694 232 l 694 115 l 694 0 l 579 0 l 579 115 l 579 232 m 579 0 l 579 -115 l 463 -115 l 347 -115 l 232 -115 l 232 0 l 115 0 l 115 115 l 232 115 l 232 0 l 463 0 l 579 0 z "},"¨":{"ha":694,"x_min":232,"x_max":579,"o":"m 463 926 l 463 1042 l 579 1042 l 579 926 l 463 926 m 232 926 l 232 1042 l 347 1042 l 347 926 l 232 926 z "},"©":{"ha":694,"x_min":0,"x_max":810,"o":"m 463 810 l 579 810 l 579 694 l 463 694 l 347 694 l 232 694 l 232 810 l 347 810 l 463 810 m 579 694 l 694 694 l 694 579 l 579 579 l 579 694 m 232 694 l 232 579 l 115 579 l 115 694 l 232 694 m 694 579 l 810 579 l 810 463 l 810 347 l 810 232 l 694 232 l 694 347 l 694 463 l 694 579 m 579 579 l 579 463 l 463 463 l 347 463 l 347 347 l 463 347 l 579 347 l 579 232 l 463 232 l 347 232 l 232 232 l 232 347 l 232 463 l 232 579 l 347 579 l 463 579 l 579 579 m 115 579 l 115 463 l 115 347 l 115 232 l 0 232 l 0 463 l 0 579 l 115 579 m 579 232 l 694 232 l 694 115 l 579 115 l 579 232 m 115 232 l 232 232 l 232 115 l 115 115 l 115 232 m 579 115 l 579 0 l 347 0 l 232 0 l 232 115 l 347 115 l 463 115 l 579 115 z "},"ª":{"ha":694,"x_min":232,"x_max":694,"o":"m 463 926 l 579 926 l 579 810 l 463 810 l 347 810 l 347 926 l 463 926 m 579 810 l 694 810 l 694 694 l 694 579 l 694 463 l 694 347 l 579 347 l 463 347 l 347 347 l 347 463 l 232 463 l 232 579 l 347 579 l 347 463 l 463 463 l 579 463 l 579 579 l 463 579 l 347 579 l 347 694 l 463 694 l 579 694 l 579 810 z "},"«":{"ha":694,"x_min":115,"x_max":694,"o":"m 579 115 l 579 232 l 463 232 l 463 347 l 347 347 l 347 463 l 232 463 l 232 579 l 347 579 l 347 463 l 463 463 l 463 579 l 347 579 l 347 694 l 463 694 l 463 579 l 579 579 l 579 694 l 694 694 l 694 579 l 579 579 l 579 463 l 463 463 l 463 347 l 579 347 l 579 232 l 694 232 l 694 115 l 579 115 m 347 115 l 347 232 l 232 232 l 232 347 l 115 347 l 115 463 l 232 463 l 232 347 l 347 347 l 347 232 l 463 232 l 463 115 l 347 115 z "},"¬":{"ha":694,"x_min":115,"x_max":579,"o":"m 463 0 l 463 115 l 463 232 l 463 347 l 347 347 l 232 347 l 115 347 l 115 463 l 232 463 l 347 463 l 463 463 l 579 463 l 579 347 l 579 232 l 579 115 l 579 0 l 463 0 z "},"­":{"ha":694,"x_min":232,"x_max":579,"o":"m 463 463 l 579 463 l 579 347 l 463 347 l 347 347 l 232 347 l 232 463 l 347 463 l 463 463 z "},"®":{"ha":694,"x_min":0,"x_max":810,"o":"m 463 810 l 579 810 l 579 694 l 463 694 l 347 694 l 232 694 l 232 810 l 347 810 l 463 810 m 579 694 l 694 694 l 694 579 l 579 579 l 579 694 m 232 694 l 232 579 l 115 579 l 115 694 l 232 694 m 694 579 l 810 579 l 810 463 l 810 347 l 810 232 l 694 232 l 694 347 l 694 463 l 694 579 m 579 579 l 579 463 l 463 463 l 347 463 l 347 347 l 347 232 l 232 232 l 232 347 l 232 463 l 232 579 l 347 579 l 463 579 l 579 579 m 115 579 l 115 463 l 115 347 l 115 232 l 0 232 l 0 463 l 0 579 l 115 579 m 694 232 l 694 115 l 579 115 l 579 232 l 694 232 m 115 232 l 232 232 l 232 115 l 115 115 l 115 232 m 579 115 l 579 0 l 347 0 l 232 0 l 232 115 l 347 115 l 463 115 l 579 115 z "},"¯":{"ha":694,"x_min":0,"x_max":810,"o":"m 694 1157 l 810 1157 l 810 1042 l 694 1042 l 579 1042 l 463 1042 l 347 1042 l 232 1042 l 115 1042 l 0 1042 l 0 1157 l 115 1157 l 232 1157 l 347 1157 l 463 1157 l 579 1157 l 694 1157 z "},"°":{"ha":694,"x_min":115,"x_max":579,"o":"m 347 926 l 463 926 l 463 810 l 347 810 l 232 810 l 232 926 l 347 926 m 463 810 l 579 810 l 579 694 l 579 579 l 463 579 l 463 694 l 463 810 m 232 810 l 232 694 l 232 579 l 115 579 l 115 694 l 115 810 l 232 810 m 463 579 l 463 463 l 347 463 l 232 463 l 232 579 l 347 579 l 463 579 z "},"±":{"ha":694,"x_min":115,"x_max":694,"o":"m 347 232 l 347 347 l 347 463 l 232 463 l 115 463 l 115 579 l 232 579 l 347 579 l 347 694 l 347 810 l 463 810 l 463 694 l 463 579 l 579 579 l 694 579 l 694 463 l 579 463 l 463 463 l 463 347 l 463 232 l 347 232 m 579 115 l 694 115 l 694 0 l 463 0 l 232 0 l 115 0 l 115 115 l 232 115 l 347 115 l 463 115 l 579 115 z "},"²":{"ha":694,"x_min":115,"x_max":579,"o":"m 115 810 l 115 926 l 232 926 l 232 1042 l 347 1042 l 463 1042 l 463 926 l 347 926 l 232 926 l 232 810 l 115 810 m 463 926 l 579 926 l 579 810 l 463 810 l 463 926 m 463 810 l 463 694 l 347 694 l 347 810 l 463 810 m 347 694 l 347 579 l 463 579 l 579 579 l 579 463 l 463 463 l 347 463 l 232 463 l 115 463 l 115 579 l 232 579 l 232 694 l 347 694 z "},"³":{"ha":694,"x_min":115,"x_max":579,"o":"m 347 1042 l 463 1042 l 463 926 l 347 926 l 232 926 l 115 926 l 115 1042 l 232 1042 l 347 1042 m 463 926 l 579 926 l 579 810 l 463 810 l 463 926 m 463 810 l 463 694 l 347 694 l 232 694 l 232 810 l 347 810 l 463 810 m 463 694 l 579 694 l 579 579 l 463 579 l 463 694 m 463 579 l 463 463 l 347 463 l 232 463 l 115 463 l 115 579 l 232 579 l 347 579 l 463 579 z "},"´":{"ha":694,"x_min":347,"x_max":579,"o":"m 347 810 l 347 926 l 463 926 l 463 1042 l 579 1042 l 579 926 l 463 926 l 463 810 l 347 810 z "},"µ":{"ha":694,"x_min":115,"x_max":694,"o":"m 463 0 l 463 115 l 347 115 l 347 0 l 347 -115 l 232 -115 l 232 0 l 232 115 l 232 232 l 232 347 l 232 463 l 232 579 l 232 694 l 347 694 l 347 579 l 347 463 l 347 347 l 347 232 l 463 232 l 463 115 l 579 115 l 579 232 l 579 347 l 579 463 l 579 579 l 579 694 l 694 694 l 694 579 l 694 463 l 694 347 l 694 232 l 694 115 l 579 115 l 579 0 l 463 0 m 115 -232 l 115 -115 l 232 -115 l 232 -232 l 115 -232 z "},"¶":{"ha":694,"x_min":115,"x_max":694,"o":"m 579 -115 l 579 0 l 579 115 l 579 232 l 579 347 l 579 463 l 579 579 l 579 694 l 579 810 l 463 810 l 463 694 l 463 579 l 463 463 l 463 347 l 463 232 l 463 115 l 463 0 l 463 -115 l 347 -115 l 347 0 l 347 115 l 347 232 l 347 347 l 347 463 l 232 463 l 232 579 l 115 579 l 115 694 l 115 810 l 232 810 l 232 926 l 347 926 l 463 926 l 579 926 l 694 926 l 694 810 l 694 694 l 694 579 l 694 463 l 694 347 l 694 232 l 694 115 l 694 0 l 694 -115 l 579 -115 z "},"·":{"ha":694,"x_min":232,"x_max":579,"o":"m 347 232 l 347 347 l 232 347 l 232 463 l 347 463 l 347 579 l 463 579 l 463 463 l 579 463 l 579 347 l 463 347 l 463 232 l 347 232 z "},"¸":{"ha":694,"x_min":232,"x_max":579,"o":"m 463 0 l 347 0 l 347 115 l 463 115 l 463 0 m 463 0 l 579 0 l 579 -115 l 463 -115 l 463 0 m 463 -115 l 463 -232 l 347 -232 l 232 -232 l 232 -115 l 347 -115 l 463 -115 z "},"¹":{"ha":694,"x_min":115,"x_max":463,"o":"m 347 926 l 347 810 l 347 694 l 347 579 l 463 579 l 463 463 l 347 463 l 232 463 l 115 463 l 115 579 l 232 579 l 232 694 l 232 810 l 115 810 l 115 926 l 232 926 l 232 1042 l 347 1042 l 347 926 z "},"º":{"ha":694,"x_min":347,"x_max":694,"o":"m 463 579 l 463 694 l 347 694 l 347 810 l 463 810 l 463 694 l 579 694 l 579 810 l 463 810 l 463 926 l 579 926 l 579 810 l 694 810 l 694 694 l 579 694 l 579 579 l 463 579 m 579 463 l 694 463 l 694 347 l 579 347 l 463 347 l 347 347 l 347 463 l 463 463 l 579 463 z "},"»":{"ha":694,"x_min":115,"x_max":694,"o":"m 347 115 l 347 232 l 232 232 l 232 347 l 347 347 l 347 232 l 463 232 l 463 347 l 347 347 l 347 463 l 232 463 l 232 579 l 115 579 l 115 694 l 232 694 l 232 579 l 347 579 l 347 463 l 463 463 l 463 347 l 579 347 l 579 463 l 463 463 l 463 579 l 347 579 l 347 694 l 463 694 l 463 579 l 579 579 l 579 463 l 694 463 l 694 347 l 579 347 l 579 232 l 463 232 l 463 115 l 347 115 m 115 115 l 115 232 l 232 232 l 232 115 l 115 115 z "},"¼":{"ha":694,"x_min":115,"x_max":694,"o":"m 115 579 l 115 694 l 115 810 l 115 926 l 115 1042 l 232 1042 l 232 926 l 232 810 l 232 694 l 232 579 l 115 579 m 579 0 l 579 115 l 463 115 l 347 115 l 347 232 l 232 232 l 232 347 l 232 463 l 347 463 l 347 579 l 347 694 l 463 694 l 463 810 l 463 926 l 579 926 l 579 1042 l 694 1042 l 694 926 l 579 926 l 579 810 l 579 694 l 463 694 l 463 579 l 463 463 l 347 463 l 347 347 l 347 232 l 463 232 l 463 347 l 579 347 l 579 463 l 694 463 l 694 347 l 694 232 l 694 115 l 694 0 l 579 0 m 115 0 l 115 115 l 115 232 l 232 232 l 232 115 l 232 0 l 115 0 z "},"½":{"ha":694,"x_min":115,"x_max":694,"o":"m 115 579 l 115 694 l 115 810 l 115 926 l 115 1042 l 232 1042 l 232 926 l 232 810 l 232 694 l 232 579 l 115 579 m 115 0 l 115 115 l 115 232 l 232 232 l 232 347 l 232 463 l 347 463 l 347 579 l 347 694 l 463 694 l 463 810 l 463 926 l 579 926 l 579 1042 l 694 1042 l 694 926 l 579 926 l 579 810 l 579 694 l 463 694 l 463 579 l 463 463 l 347 463 l 347 347 l 347 232 l 232 232 l 232 115 l 232 0 l 115 0 m 463 463 l 579 463 l 579 347 l 463 347 l 463 463 m 579 347 l 694 347 l 694 232 l 579 232 l 579 347 m 579 232 l 579 115 l 694 115 l 694 0 l 463 0 l 463 115 l 463 232 l 579 232 z "},"¾":{"ha":694,"x_min":115,"x_max":694,"o":"m 579 0 l 579 115 l 463 115 l 347 115 l 347 232 l 232 232 l 232 347 l 232 463 l 115 463 l 115 579 l 232 579 l 232 694 l 115 694 l 115 810 l 232 810 l 232 926 l 115 926 l 115 1042 l 232 1042 l 347 1042 l 347 926 l 347 810 l 232 810 l 232 694 l 347 694 l 463 694 l 463 810 l 463 926 l 579 926 l 579 1042 l 694 1042 l 694 926 l 579 926 l 579 810 l 579 694 l 463 694 l 463 579 l 463 463 l 347 463 l 347 347 l 347 232 l 463 232 l 463 347 l 579 347 l 579 463 l 694 463 l 694 347 l 694 232 l 694 115 l 694 0 l 579 0 m 115 0 l 115 115 l 115 232 l 232 232 l 232 115 l 232 0 l 115 0 z "},"¿":{"ha":694,"x_min":115,"x_max":694,"o":"m 347 579 l 347 694 l 463 694 l 463 579 l 347 579 m 347 347 l 347 463 l 463 463 l 463 347 l 463 232 l 347 232 l 347 347 m 347 232 l 347 115 l 232 115 l 232 232 l 347 232 m 232 115 l 232 0 l 232 -115 l 115 -115 l 115 0 l 115 115 l 232 115 m 579 -115 l 579 0 l 694 0 l 694 -115 l 579 -115 m 579 -115 l 579 -232 l 463 -232 l 347 -232 l 232 -232 l 232 -115 l 347 -115 l 463 -115 l 579 -115 z "},"À":{"ha":694,"x_min":115,"x_max":694,"o":"m 347 926 l 347 1042 l 232 1042 l 232 1157 l 347 1157 l 347 1042 l 463 1042 l 463 926 l 347 926 m 579 0 l 579 115 l 579 232 l 579 347 l 463 347 l 347 347 l 232 347 l 232 232 l 232 115 l 232 0 l 115 0 l 115 115 l 115 232 l 115 347 l 115 463 l 115 579 l 115 694 l 232 694 l 232 579 l 232 463 l 347 463 l 463 463 l 579 463 l 579 579 l 579 694 l 463 694 l 347 694 l 232 694 l 232 810 l 347 810 l 463 810 l 579 810 l 579 694 l 694 694 l 694 579 l 694 463 l 694 347 l 694 232 l 694 115 l 694 0 l 579 0 z "},"Á":{"ha":694,"x_min":115,"x_max":694,"o":"m 347 926 l 347 1042 l 463 1042 l 463 1157 l 579 1157 l 579 1042 l 463 1042 l 463 926 l 347 926 m 579 0 l 579 115 l 579 232 l 579 347 l 463 347 l 347 347 l 232 347 l 232 232 l 232 115 l 232 0 l 115 0 l 115 115 l 115 232 l 115 347 l 115 463 l 115 579 l 115 694 l 232 694 l 232 579 l 232 463 l 347 463 l 463 463 l 579 463 l 579 579 l 579 694 l 463 694 l 347 694 l 232 694 l 232 810 l 347 810 l 463 810 l 579 810 l 579 694 l 694 694 l 694 579 l 694 463 l 694 347 l 694 232 l 694 115 l 694 0 l 579 0 z "},"Â":{"ha":694,"x_min":115,"x_max":694,"o":"m 463 926 l 463 1042 l 347 1042 l 347 1157 l 463 1157 l 463 1042 l 579 1042 l 579 926 l 463 926 m 232 926 l 232 1042 l 347 1042 l 347 926 l 232 926 m 579 0 l 579 115 l 579 232 l 579 347 l 463 347 l 347 347 l 232 347 l 232 232 l 232 115 l 232 0 l 115 0 l 115 115 l 115 232 l 115 347 l 115 463 l 115 579 l 115 694 l 232 694 l 232 579 l 232 463 l 347 463 l 463 463 l 579 463 l 579 579 l 579 694 l 463 694 l 347 694 l 232 694 l 232 810 l 347 810 l 463 810 l 579 810 l 579 694 l 694 694 l 694 579 l 694 463 l 694 347 l 694 232 l 694 115 l 694 0 l 579 0 z "},"Ã":{"ha":694,"x_min":115,"x_max":694,"o":"m 115 926 l 115 1042 l 232 1042 l 232 1157 l 347 1157 l 463 1157 l 463 1042 l 579 1042 l 579 1157 l 694 1157 l 694 1042 l 579 1042 l 579 926 l 463 926 l 347 926 l 347 1042 l 232 1042 l 232 926 l 115 926 m 579 0 l 579 115 l 579 232 l 579 347 l 463 347 l 347 347 l 232 347 l 232 232 l 232 115 l 232 0 l 115 0 l 115 115 l 115 232 l 115 347 l 115 463 l 115 579 l 115 694 l 232 694 l 232 579 l 232 463 l 347 463 l 463 463 l 579 463 l 579 579 l 579 694 l 463 694 l 347 694 l 232 694 l 232 810 l 347 810 l 463 810 l 579 810 l 579 694 l 694 694 l 694 579 l 694 463 l 694 347 l 694 232 l 694 115 l 694 0 l 579 0 z "},"Ä":{"ha":694,"x_min":115,"x_max":694,"o":"m 463 1042 l 463 1157 l 579 1157 l 579 1042 l 463 1042 m 232 1042 l 232 1157 l 347 1157 l 347 1042 l 232 1042 m 579 0 l 579 115 l 579 232 l 579 347 l 463 347 l 347 347 l 232 347 l 232 232 l 232 115 l 232 0 l 115 0 l 115 115 l 115 232 l 115 347 l 115 463 l 115 579 l 115 694 l 115 810 l 232 810 l 232 694 l 232 579 l 232 463 l 347 463 l 463 463 l 579 463 l 579 579 l 579 694 l 579 810 l 463 810 l 347 810 l 232 810 l 232 926 l 347 926 l 463 926 l 579 926 l 579 810 l 694 810 l 694 694 l 694 579 l 694 463 l 694 347 l 694 232 l 694 115 l 694 0 l 579 0 z "},"Å":{"ha":694,"x_min":115,"x_max":694,"o":"m 347 810 l 347 926 l 232 926 l 232 1042 l 347 1042 l 347 926 l 463 926 l 463 1042 l 347 1042 l 347 1157 l 463 1157 l 463 1042 l 579 1042 l 579 926 l 463 926 l 463 810 l 347 810 m 579 0 l 579 115 l 579 232 l 463 232 l 347 232 l 232 232 l 232 115 l 232 0 l 115 0 l 115 115 l 115 232 l 115 347 l 115 463 l 115 579 l 232 579 l 232 463 l 232 347 l 347 347 l 463 347 l 579 347 l 579 463 l 579 579 l 463 579 l 347 579 l 232 579 l 232 694 l 347 694 l 463 694 l 579 694 l 579 579 l 694 579 l 694 463 l 694 347 l 694 232 l 694 115 l 694 0 l 579 0 z "},"Æ":{"ha":694,"x_min":115,"x_max":694,"o":"m 115 0 l 115 115 l 115 232 l 115 347 l 115 463 l 115 579 l 115 694 l 115 810 l 232 810 l 232 694 l 232 579 l 232 463 l 347 463 l 347 579 l 347 694 l 347 810 l 232 810 l 232 926 l 347 926 l 463 926 l 579 926 l 694 926 l 694 810 l 579 810 l 463 810 l 463 694 l 463 579 l 579 579 l 694 579 l 694 463 l 579 463 l 463 463 l 463 347 l 463 232 l 463 115 l 579 115 l 694 115 l 694 0 l 463 0 l 347 0 l 347 115 l 347 232 l 347 347 l 232 347 l 232 232 l 232 115 l 232 0 l 115 0 z "},"Ç":{"ha":694,"x_min":115,"x_max":694,"o":"m 579 694 l 579 810 l 463 810 l 347 810 l 232 810 l 232 926 l 347 926 l 463 926 l 579 926 l 579 810 l 694 810 l 694 694 l 579 694 m 232 -347 l 232 -232 l 347 -232 l 347 -115 l 347 0 l 232 0 l 232 115 l 115 115 l 115 232 l 115 347 l 115 463 l 115 579 l 115 694 l 115 810 l 232 810 l 232 694 l 232 579 l 232 463 l 232 347 l 232 232 l 232 115 l 347 115 l 463 115 l 579 115 l 579 232 l 694 232 l 694 115 l 579 115 l 579 0 l 463 0 l 463 -115 l 463 -232 l 347 -232 l 347 -347 l 232 -347 z "},"È":{"ha":694,"x_min":115,"x_max":694,"o":"m 347 926 l 347 1042 l 232 1042 l 232 1157 l 347 1157 l 347 1042 l 463 1042 l 463 926 l 347 926 m 579 810 l 694 810 l 694 694 l 579 694 l 463 694 l 347 694 l 232 694 l 232 579 l 232 463 l 347 463 l 463 463 l 579 463 l 579 347 l 463 347 l 347 347 l 232 347 l 232 232 l 232 115 l 347 115 l 463 115 l 579 115 l 694 115 l 694 0 l 463 0 l 232 0 l 115 0 l 115 115 l 115 232 l 115 347 l 115 463 l 115 579 l 115 694 l 115 810 l 232 810 l 347 810 l 463 810 l 579 810 z "},"É":{"ha":694,"x_min":115,"x_max":694,"o":"m 347 926 l 347 1042 l 463 1042 l 463 1157 l 579 1157 l 579 1042 l 463 1042 l 463 926 l 347 926 m 579 810 l 694 810 l 694 694 l 579 694 l 463 694 l 347 694 l 232 694 l 232 579 l 232 463 l 347 463 l 463 463 l 579 463 l 579 347 l 463 347 l 347 347 l 232 347 l 232 232 l 232 115 l 347 115 l 463 115 l 579 115 l 694 115 l 694 0 l 463 0 l 232 0 l 115 0 l 115 115 l 115 232 l 115 347 l 115 463 l 115 579 l 115 694 l 115 810 l 232 810 l 347 810 l 463 810 l 579 810 z "},"Ê":{"ha":694,"x_min":115,"x_max":694,"o":"m 463 926 l 463 1042 l 347 1042 l 347 1157 l 463 1157 l 463 1042 l 579 1042 l 579 926 l 463 926 m 232 926 l 232 1042 l 347 1042 l 347 926 l 232 926 m 579 810 l 694 810 l 694 694 l 579 694 l 463 694 l 347 694 l 232 694 l 232 579 l 232 463 l 347 463 l 463 463 l 579 463 l 579 347 l 463 347 l 347 347 l 232 347 l 232 232 l 232 115 l 347 115 l 463 115 l 579 115 l 694 115 l 694 0 l 463 0 l 232 0 l 115 0 l 115 115 l 115 232 l 115 347 l 115 463 l 115 579 l 115 694 l 115 810 l 232 810 l 347 810 l 463 810 l 579 810 z "},"Ë":{"ha":694,"x_min":115,"x_max":694,"o":"m 463 1042 l 463 1157 l 579 1157 l 579 1042 l 463 1042 m 232 1042 l 232 1157 l 347 1157 l 347 1042 l 232 1042 m 579 926 l 694 926 l 694 810 l 579 810 l 463 810 l 347 810 l 232 810 l 232 694 l 232 579 l 347 579 l 463 579 l 579 579 l 579 463 l 463 463 l 347 463 l 232 463 l 232 347 l 232 232 l 232 115 l 347 115 l 463 115 l 579 115 l 694 115 l 694 0 l 463 0 l 232 0 l 115 0 l 115 115 l 115 232 l 115 347 l 115 463 l 115 579 l 115 694 l 115 810 l 115 926 l 232 926 l 347 926 l 463 926 l 579 926 z "},"Ì":{"ha":694,"x_min":232,"x_max":579,"o":"m 347 926 l 347 1042 l 232 1042 l 232 1157 l 347 1157 l 347 1042 l 463 1042 l 463 926 l 347 926 m 463 810 l 579 810 l 579 694 l 463 694 l 463 579 l 463 463 l 463 347 l 463 232 l 463 115 l 579 115 l 579 0 l 347 0 l 232 0 l 232 115 l 347 115 l 347 232 l 347 347 l 347 463 l 347 579 l 347 694 l 232 694 l 232 810 l 347 810 l 463 810 z "},"Í":{"ha":694,"x_min":232,"x_max":579,"o":"m 347 926 l 347 1042 l 463 1042 l 463 1157 l 579 1157 l 579 1042 l 463 1042 l 463 926 l 347 926 m 463 810 l 579 810 l 579 694 l 463 694 l 463 579 l 463 463 l 463 347 l 463 232 l 463 115 l 579 115 l 579 0 l 347 0 l 232 0 l 232 115 l 347 115 l 347 232 l 347 347 l 347 463 l 347 579 l 347 694 l 232 694 l 232 810 l 347 810 l 463 810 z "},"Î":{"ha":694,"x_min":232,"x_max":579,"o":"m 463 926 l 463 1042 l 347 1042 l 347 1157 l 463 1157 l 463 1042 l 579 1042 l 579 926 l 463 926 m 232 926 l 232 1042 l 347 1042 l 347 926 l 232 926 m 463 810 l 579 810 l 579 694 l 463 694 l 463 579 l 463 463 l 463 347 l 463 232 l 463 115 l 579 115 l 579 0 l 347 0 l 232 0 l 232 115 l 347 115 l 347 232 l 347 347 l 347 463 l 347 579 l 347 694 l 232 694 l 232 810 l 347 810 l 463 810 z "},"Ï":{"ha":694,"x_min":232,"x_max":579,"o":"m 463 1042 l 463 1157 l 579 1157 l 579 1042 l 463 1042 m 232 1042 l 232 1157 l 347 1157 l 347 1042 l 232 1042 m 463 926 l 579 926 l 579 810 l 463 810 l 463 694 l 463 579 l 463 463 l 463 347 l 463 232 l 463 115 l 579 115 l 579 0 l 347 0 l 232 0 l 232 115 l 347 115 l 347 232 l 347 347 l 347 463 l 347 579 l 347 694 l 347 810 l 232 810 l 232 926 l 347 926 l 463 926 z "},"Ð":{"ha":694,"x_min":115,"x_max":694,"o":"m 463 810 l 579 810 l 579 694 l 694 694 l 694 579 l 694 463 l 694 347 l 694 232 l 694 115 l 579 115 l 579 0 l 347 0 l 232 0 l 232 115 l 232 232 l 232 347 l 115 347 l 115 463 l 232 463 l 232 579 l 232 694 l 232 810 l 347 810 l 463 810 m 463 694 l 347 694 l 347 579 l 347 463 l 463 463 l 463 347 l 347 347 l 347 232 l 347 115 l 463 115 l 579 115 l 579 232 l 579 347 l 579 463 l 579 579 l 579 694 l 463 694 z "},"Ñ":{"ha":694,"x_min":115,"x_max":694,"o":"m 115 926 l 115 1042 l 232 1042 l 232 1157 l 347 1157 l 463 1157 l 463 1042 l 579 1042 l 579 1157 l 694 1157 l 694 1042 l 579 1042 l 579 926 l 463 926 l 347 926 l 347 1042 l 232 1042 l 232 926 l 115 926 m 579 0 l 579 115 l 463 115 l 463 232 l 463 347 l 347 347 l 347 463 l 232 463 l 232 347 l 232 232 l 232 115 l 232 0 l 115 0 l 115 115 l 115 232 l 115 347 l 115 463 l 115 579 l 115 694 l 115 810 l 232 810 l 232 694 l 347 694 l 347 579 l 347 463 l 463 463 l 463 347 l 579 347 l 579 463 l 579 579 l 579 694 l 579 810 l 694 810 l 694 694 l 694 579 l 694 463 l 694 347 l 694 232 l 694 115 l 694 0 l 579 0 z "},"Ò":{"ha":694,"x_min":115,"x_max":694,"o":"m 347 926 l 347 1042 l 232 1042 l 232 1157 l 347 1157 l 347 1042 l 463 1042 l 463 926 l 347 926 m 463 810 l 579 810 l 579 694 l 463 694 l 347 694 l 232 694 l 232 810 l 347 810 l 463 810 m 579 694 l 694 694 l 694 579 l 694 463 l 694 347 l 694 232 l 694 115 l 579 115 l 579 232 l 579 347 l 579 463 l 579 579 l 579 694 m 232 694 l 232 579 l 232 463 l 232 347 l 232 232 l 232 115 l 115 115 l 115 232 l 115 347 l 115 463 l 115 579 l 115 694 l 232 694 m 579 115 l 579 0 l 347 0 l 232 0 l 232 115 l 347 115 l 463 115 l 579 115 z "},"Ó":{"ha":694,"x_min":115,"x_max":694,"o":"m 347 926 l 347 1042 l 463 1042 l 463 1157 l 579 1157 l 579 1042 l 463 1042 l 463 926 l 347 926 m 463 810 l 579 810 l 579 694 l 463 694 l 347 694 l 232 694 l 232 810 l 347 810 l 463 810 m 579 694 l 694 694 l 694 579 l 694 463 l 694 347 l 694 232 l 694 115 l 579 115 l 579 232 l 579 347 l 579 463 l 579 579 l 579 694 m 232 694 l 232 579 l 232 463 l 232 347 l 232 232 l 232 115 l 115 115 l 115 232 l 115 347 l 115 463 l 115 579 l 115 694 l 232 694 m 579 115 l 579 0 l 347 0 l 232 0 l 232 115 l 347 115 l 463 115 l 579 115 z "},"Ô":{"ha":694,"x_min":115,"x_max":694,"o":"m 463 926 l 463 1042 l 347 1042 l 347 1157 l 463 1157 l 463 1042 l 579 1042 l 579 926 l 463 926 m 232 926 l 232 1042 l 347 1042 l 347 926 l 232 926 m 463 810 l 579 810 l 579 694 l 463 694 l 347 694 l 232 694 l 232 810 l 347 810 l 463 810 m 579 694 l 694 694 l 694 579 l 694 463 l 694 347 l 694 232 l 694 115 l 579 115 l 579 232 l 579 347 l 579 463 l 579 579 l 579 694 m 232 694 l 232 579 l 232 463 l 232 347 l 232 232 l 232 115 l 115 115 l 115 232 l 115 347 l 115 463 l 115 579 l 115 694 l 232 694 m 579 115 l 579 0 l 347 0 l 232 0 l 232 115 l 347 115 l 463 115 l 579 115 z "},"Õ":{"ha":694,"x_min":115,"x_max":694,"o":"m 115 926 l 115 1042 l 232 1042 l 232 1157 l 347 1157 l 463 1157 l 463 1042 l 579 1042 l 579 1157 l 694 1157 l 694 1042 l 579 1042 l 579 926 l 463 926 l 347 926 l 347 1042 l 232 1042 l 232 926 l 115 926 m 463 810 l 579 810 l 579 694 l 463 694 l 347 694 l 232 694 l 232 810 l 347 810 l 463 810 m 579 694 l 694 694 l 694 579 l 694 463 l 694 347 l 694 232 l 694 115 l 579 115 l 579 232 l 579 347 l 579 463 l 579 579 l 579 694 m 232 694 l 232 579 l 232 463 l 232 347 l 232 232 l 232 115 l 115 115 l 115 232 l 115 347 l 115 463 l 115 579 l 115 694 l 232 694 m 579 115 l 579 0 l 347 0 l 232 0 l 232 115 l 347 115 l 463 115 l 579 115 z "},"Ö":{"ha":694,"x_min":115,"x_max":694,"o":"m 463 1042 l 463 1157 l 579 1157 l 579 1042 l 463 1042 m 232 1042 l 232 1157 l 347 1157 l 347 1042 l 232 1042 m 463 926 l 579 926 l 579 810 l 463 810 l 347 810 l 232 810 l 232 926 l 347 926 l 463 926 m 579 810 l 694 810 l 694 694 l 694 579 l 694 463 l 694 347 l 694 232 l 694 115 l 579 115 l 579 232 l 579 347 l 579 463 l 579 579 l 579 694 l 579 810 m 232 810 l 232 694 l 232 579 l 232 463 l 232 347 l 232 232 l 232 115 l 115 115 l 115 232 l 115 347 l 115 463 l 115 579 l 115 694 l 115 810 l 232 810 m 579 115 l 579 0 l 347 0 l 232 0 l 232 115 l 347 115 l 463 115 l 579 115 z "},"×":{"ha":694,"x_min":115,"x_max":694,"o":"m 579 115 l 579 232 l 463 232 l 463 347 l 347 347 l 347 463 l 232 463 l 232 579 l 115 579 l 115 694 l 232 694 l 232 579 l 347 579 l 347 463 l 463 463 l 463 579 l 579 579 l 579 694 l 694 694 l 694 579 l 579 579 l 579 463 l 463 463 l 463 347 l 579 347 l 579 232 l 694 232 l 694 115 l 579 115 m 115 115 l 115 232 l 232 232 l 232 347 l 347 347 l 347 232 l 232 232 l 232 115 l 115 115 z "},"Ø":{"ha":694,"x_min":115,"x_max":694,"o":"m 115 -115 l 115 0 l 232 0 l 232 115 l 115 115 l 115 232 l 115 347 l 115 463 l 115 579 l 115 694 l 115 810 l 232 810 l 232 694 l 232 579 l 232 463 l 232 347 l 347 347 l 347 463 l 347 579 l 463 579 l 463 463 l 463 347 l 347 347 l 347 232 l 347 115 l 463 115 l 579 115 l 579 232 l 579 347 l 579 463 l 579 579 l 463 579 l 463 694 l 463 810 l 347 810 l 232 810 l 232 926 l 347 926 l 463 926 l 579 926 l 579 1042 l 694 1042 l 694 926 l 579 926 l 579 810 l 694 810 l 694 694 l 694 579 l 694 463 l 694 347 l 694 232 l 694 115 l 579 115 l 579 0 l 347 0 l 232 0 l 232 -115 l 115 -115 z "},"Ù":{"ha":694,"x_min":115,"x_max":694,"o":"m 347 926 l 347 1042 l 232 1042 l 232 1157 l 347 1157 l 347 1042 l 463 1042 l 463 926 l 347 926 m 579 694 l 579 810 l 694 810 l 694 694 l 694 579 l 694 463 l 694 347 l 694 232 l 694 115 l 579 115 l 579 232 l 579 347 l 579 463 l 579 579 l 579 694 m 115 694 l 115 810 l 232 810 l 232 694 l 232 579 l 232 463 l 232 347 l 232 232 l 232 115 l 115 115 l 115 232 l 115 347 l 115 463 l 115 579 l 115 694 m 579 115 l 579 0 l 347 0 l 232 0 l 232 115 l 347 115 l 463 115 l 579 115 z "},"Ú":{"ha":694,"x_min":115,"x_max":694,"o":"m 347 926 l 347 1042 l 463 1042 l 463 1157 l 579 1157 l 579 1042 l 463 1042 l 463 926 l 347 926 m 579 694 l 579 810 l 694 810 l 694 694 l 694 579 l 694 463 l 694 347 l 694 232 l 694 115 l 579 115 l 579 232 l 579 347 l 579 463 l 579 579 l 579 694 m 115 694 l 115 810 l 232 810 l 232 694 l 232 579 l 232 463 l 232 347 l 232 232 l 232 115 l 115 115 l 115 232 l 115 347 l 115 463 l 115 579 l 115 694 m 579 115 l 579 0 l 347 0 l 232 0 l 232 115 l 347 115 l 463 115 l 579 115 z "},"Û":{"ha":694,"x_min":115,"x_max":694,"o":"m 463 926 l 463 1042 l 347 1042 l 347 1157 l 463 1157 l 463 1042 l 579 1042 l 579 926 l 463 926 m 232 926 l 232 1042 l 347 1042 l 347 926 l 232 926 m 579 694 l 579 810 l 694 810 l 694 694 l 694 579 l 694 463 l 694 347 l 694 232 l 694 115 l 579 115 l 579 232 l 579 347 l 579 463 l 579 579 l 579 694 m 115 694 l 115 810 l 232 810 l 232 694 l 232 579 l 232 463 l 232 347 l 232 232 l 232 115 l 115 115 l 115 232 l 115 347 l 115 463 l 115 579 l 115 694 m 579 115 l 579 0 l 347 0 l 232 0 l 232 115 l 347 115 l 463 115 l 579 115 z "},"Ü":{"ha":694,"x_min":115,"x_max":694,"o":"m 463 1042 l 463 1157 l 579 1157 l 579 1042 l 463 1042 m 232 1042 l 232 1157 l 347 1157 l 347 1042 l 232 1042 m 579 810 l 579 926 l 694 926 l 694 810 l 694 694 l 694 579 l 694 463 l 694 347 l 694 232 l 694 115 l 579 115 l 579 232 l 579 347 l 579 463 l 579 579 l 579 694 l 579 810 m 115 810 l 115 926 l 232 926 l 232 810 l 232 694 l 232 579 l 232 463 l 232 347 l 232 232 l 232 115 l 115 115 l 115 232 l 115 347 l 115 463 l 115 579 l 115 694 l 115 810 m 579 115 l 579 0 l 347 0 l 232 0 l 232 115 l 347 115 l 463 115 l 579 115 z "},"Ý":{"ha":694,"x_min":115,"x_max":694,"o":"m 347 926 l 347 1042 l 463 1042 l 463 1157 l 579 1157 l 579 1042 l 463 1042 l 463 926 l 347 926 m 347 0 l 347 115 l 347 232 l 347 347 l 232 347 l 232 463 l 115 463 l 115 579 l 115 694 l 115 810 l 232 810 l 232 694 l 232 579 l 232 463 l 347 463 l 347 347 l 463 347 l 463 463 l 579 463 l 579 579 l 579 694 l 579 810 l 694 810 l 694 694 l 694 579 l 694 463 l 579 463 l 579 347 l 463 347 l 463 232 l 463 115 l 463 0 l 347 0 z "},"Þ":{"ha":694,"x_min":115,"x_max":694,"o":"m 115 0 l 115 115 l 115 232 l 115 347 l 115 463 l 115 579 l 115 694 l 115 810 l 115 926 l 232 926 l 232 810 l 232 694 l 347 694 l 463 694 l 579 694 l 579 579 l 694 579 l 694 463 l 694 347 l 579 347 l 579 232 l 463 232 l 347 232 l 232 232 l 232 115 l 232 0 l 115 0 m 463 579 l 347 579 l 232 579 l 232 463 l 232 347 l 347 347 l 463 347 l 579 347 l 579 463 l 579 579 l 463 579 z "},"ß":{"ha":694,"x_min":115,"x_max":694,"o":"m 115 0 l 115 115 l 115 232 l 115 347 l 115 463 l 115 579 l 115 694 l 115 810 l 232 810 l 232 926 l 347 926 l 463 926 l 463 810 l 347 810 l 232 810 l 232 694 l 232 579 l 232 463 l 232 347 l 232 232 l 232 115 l 232 0 l 115 0 m 463 810 l 579 810 l 579 694 l 579 579 l 463 579 l 463 694 l 463 810 m 463 579 l 463 463 l 347 463 l 347 579 l 463 579 m 463 463 l 579 463 l 579 347 l 463 347 l 463 463 m 579 347 l 694 347 l 694 232 l 694 115 l 579 115 l 579 232 l 579 347 m 579 115 l 579 0 l 347 0 l 347 115 l 463 115 l 579 115 z "},"à":{"ha":694,"x_min":115,"x_max":694,"o":"m 347 810 l 347 926 l 232 926 l 232 1042 l 347 1042 l 347 926 l 463 926 l 463 810 l 347 810 m 579 0 l 579 115 l 463 115 l 463 232 l 579 232 l 579 347 l 579 463 l 579 579 l 463 579 l 347 579 l 232 579 l 232 694 l 347 694 l 463 694 l 579 694 l 694 694 l 694 579 l 694 463 l 694 347 l 694 232 l 694 115 l 694 0 l 579 0 m 232 579 l 232 463 l 232 347 l 232 232 l 232 115 l 115 115 l 115 232 l 115 347 l 115 463 l 115 579 l 232 579 m 463 115 l 463 0 l 232 0 l 232 115 l 347 115 l 463 115 z "},"á":{"ha":694,"x_min":115,"x_max":694,"o":"m 347 810 l 347 926 l 463 926 l 463 1042 l 579 1042 l 579 926 l 463 926 l 463 810 l 347 810 m 579 0 l 579 115 l 463 115 l 463 232 l 579 232 l 579 347 l 579 463 l 579 579 l 463 579 l 347 579 l 232 579 l 232 694 l 347 694 l 463 694 l 579 694 l 694 694 l 694 579 l 694 463 l 694 347 l 694 232 l 694 115 l 694 0 l 579 0 m 232 579 l 232 463 l 232 347 l 232 232 l 232 115 l 115 115 l 115 232 l 115 347 l 115 463 l 115 579 l 232 579 m 463 115 l 463 0 l 232 0 l 232 115 l 347 115 l 463 115 z "},"â":{"ha":694,"x_min":115,"x_max":694,"o":"m 463 810 l 463 926 l 347 926 l 347 1042 l 463 1042 l 463 926 l 579 926 l 579 810 l 463 810 m 232 810 l 232 926 l 347 926 l 347 810 l 232 810 m 579 0 l 579 115 l 463 115 l 463 232 l 579 232 l 579 347 l 579 463 l 579 579 l 463 579 l 347 579 l 232 579 l 232 694 l 347 694 l 463 694 l 579 694 l 694 694 l 694 579 l 694 463 l 694 347 l 694 232 l 694 115 l 694 0 l 579 0 m 232 579 l 232 463 l 232 347 l 232 232 l 232 115 l 115 115 l 115 232 l 115 347 l 115 463 l 115 579 l 232 579 m 463 115 l 463 0 l 232 0 l 232 115 l 347 115 l 463 115 z "},"ã":{"ha":694,"x_min":115,"x_max":694,"o":"m 115 810 l 115 926 l 232 926 l 232 1042 l 347 1042 l 463 1042 l 463 926 l 579 926 l 579 1042 l 694 1042 l 694 926 l 579 926 l 579 810 l 463 810 l 347 810 l 347 926 l 232 926 l 232 810 l 115 810 m 579 0 l 579 115 l 463 115 l 463 232 l 579 232 l 579 347 l 579 463 l 579 579 l 463 579 l 347 579 l 232 579 l 232 694 l 347 694 l 463 694 l 579 694 l 694 694 l 694 579 l 694 463 l 694 347 l 694 232 l 694 115 l 694 0 l 579 0 m 232 579 l 232 463 l 232 347 l 232 232 l 232 115 l 115 115 l 115 232 l 115 347 l 115 463 l 115 579 l 232 579 m 463 115 l 463 0 l 232 0 l 232 115 l 347 115 l 463 115 z "},"ä":{"ha":694,"x_min":115,"x_max":694,"o":"m 463 810 l 463 926 l 579 926 l 579 810 l 463 810 m 232 810 l 232 926 l 347 926 l 347 810 l 232 810 m 579 0 l 579 115 l 463 115 l 463 232 l 579 232 l 579 347 l 579 463 l 579 579 l 463 579 l 347 579 l 232 579 l 232 694 l 347 694 l 463 694 l 579 694 l 694 694 l 694 579 l 694 463 l 694 347 l 694 232 l 694 115 l 694 0 l 579 0 m 232 579 l 232 463 l 232 347 l 232 232 l 232 115 l 115 115 l 115 232 l 115 347 l 115 463 l 115 579 l 232 579 m 463 115 l 463 0 l 232 0 l 232 115 l 347 115 l 463 115 z "},"å":{"ha":694,"x_min":115,"x_max":694,"o":"m 347 810 l 347 926 l 232 926 l 232 1042 l 347 1042 l 347 926 l 463 926 l 463 1042 l 347 1042 l 347 1157 l 463 1157 l 463 1042 l 579 1042 l 579 926 l 463 926 l 463 810 l 347 810 m 579 0 l 579 115 l 463 115 l 463 232 l 579 232 l 579 347 l 579 463 l 579 579 l 463 579 l 347 579 l 232 579 l 232 694 l 347 694 l 463 694 l 579 694 l 694 694 l 694 579 l 694 463 l 694 347 l 694 232 l 694 115 l 694 0 l 579 0 m 232 579 l 232 463 l 232 347 l 232 232 l 232 115 l 115 115 l 115 232 l 115 347 l 115 463 l 115 579 l 232 579 m 463 115 l 463 0 l 232 0 l 232 115 l 347 115 l 463 115 z "},"æ":{"ha":694,"x_min":115,"x_max":694,"o":"m 463 0 l 463 115 l 347 115 l 347 232 l 347 347 l 347 463 l 347 579 l 232 579 l 232 694 l 347 694 l 463 694 l 579 694 l 579 579 l 694 579 l 694 463 l 694 347 l 579 347 l 463 347 l 463 232 l 463 115 l 579 115 l 579 232 l 694 232 l 694 115 l 579 115 l 579 0 l 463 0 m 232 0 l 232 115 l 115 115 l 115 232 l 115 347 l 115 463 l 115 579 l 232 579 l 232 463 l 232 347 l 232 232 l 232 115 l 347 115 l 347 0 l 232 0 m 579 579 l 463 579 l 463 463 l 579 463 l 579 579 z "},"ç":{"ha":694,"x_min":115,"x_max":694,"o":"m 579 463 l 579 579 l 463 579 l 347 579 l 232 579 l 232 694 l 347 694 l 463 694 l 579 694 l 579 579 l 694 579 l 694 463 l 579 463 m 232 579 l 232 463 l 232 347 l 232 232 l 232 115 l 115 115 l 115 232 l 115 347 l 115 463 l 115 579 l 232 579 m 579 115 l 579 232 l 694 232 l 694 115 l 579 115 m 579 115 l 579 0 l 463 0 l 463 -115 l 347 -115 l 347 0 l 232 0 l 232 115 l 347 115 l 463 115 l 579 115 m 463 -115 l 579 -115 l 579 -232 l 463 -232 l 463 -115 m 463 -232 l 463 -347 l 347 -347 l 232 -347 l 232 -232 l 347 -232 l 463 -232 z "},"è":{"ha":694,"x_min":115,"x_max":694,"o":"m 347 810 l 347 926 l 232 926 l 232 1042 l 347 1042 l 347 926 l 463 926 l 463 810 l 347 810 m 463 694 l 579 694 l 579 579 l 463 579 l 347 579 l 232 579 l 232 694 l 347 694 l 463 694 m 579 579 l 694 579 l 694 463 l 694 347 l 579 347 l 463 347 l 347 347 l 232 347 l 232 232 l 232 115 l 115 115 l 115 232 l 115 347 l 115 463 l 115 579 l 232 579 l 232 463 l 347 463 l 463 463 l 579 463 l 579 579 m 579 115 l 579 232 l 694 232 l 694 115 l 579 115 m 579 115 l 579 0 l 347 0 l 232 0 l 232 115 l 347 115 l 463 115 l 579 115 z "},"é":{"ha":694,"x_min":115,"x_max":694,"o":"m 347 810 l 347 926 l 463 926 l 463 1042 l 579 1042 l 579 926 l 463 926 l 463 810 l 347 810 m 463 694 l 579 694 l 579 579 l 463 579 l 347 579 l 232 579 l 232 694 l 347 694 l 463 694 m 579 579 l 694 579 l 694 463 l 694 347 l 579 347 l 463 347 l 347 347 l 232 347 l 232 232 l 232 115 l 115 115 l 115 232 l 115 347 l 115 463 l 115 579 l 232 579 l 232 463 l 347 463 l 463 463 l 579 463 l 579 579 m 579 115 l 579 232 l 694 232 l 694 115 l 579 115 m 579 115 l 579 0 l 347 0 l 232 0 l 232 115 l 347 115 l 463 115 l 579 115 z "},"ê":{"ha":694,"x_min":115,"x_max":694,"o":"m 463 810 l 463 926 l 347 926 l 347 1042 l 463 1042 l 463 926 l 579 926 l 579 810 l 463 810 m 232 810 l 232 926 l 347 926 l 347 810 l 232 810 m 463 694 l 579 694 l 579 579 l 463 579 l 347 579 l 232 579 l 232 694 l 347 694 l 463 694 m 579 579 l 694 579 l 694 463 l 694 347 l 579 347 l 463 347 l 347 347 l 232 347 l 232 232 l 232 115 l 115 115 l 115 232 l 115 347 l 115 463 l 115 579 l 232 579 l 232 463 l 347 463 l 463 463 l 579 463 l 579 579 m 579 115 l 579 232 l 694 232 l 694 115 l 579 115 m 579 115 l 579 0 l 347 0 l 232 0 l 232 115 l 347 115 l 463 115 l 579 115 z "},"ë":{"ha":694,"x_min":115,"x_max":694,"o":"m 463 810 l 463 926 l 579 926 l 579 810 l 463 810 m 232 810 l 232 926 l 347 926 l 347 810 l 232 810 m 463 694 l 579 694 l 579 579 l 463 579 l 347 579 l 232 579 l 232 694 l 347 694 l 463 694 m 579 579 l 694 579 l 694 463 l 694 347 l 579 347 l 463 347 l 347 347 l 232 347 l 232 232 l 232 115 l 115 115 l 115 232 l 115 347 l 115 463 l 115 579 l 232 579 l 232 463 l 347 463 l 463 463 l 579 463 l 579 579 m 579 115 l 579 232 l 694 232 l 694 115 l 579 115 m 579 115 l 579 0 l 347 0 l 232 0 l 232 115 l 347 115 l 463 115 l 579 115 z "},"ì":{"ha":694,"x_min":232,"x_max":694,"o":"m 347 810 l 347 926 l 232 926 l 232 1042 l 347 1042 l 347 926 l 463 926 l 463 810 l 347 810 m 347 694 l 463 694 l 463 579 l 463 463 l 463 347 l 463 232 l 463 115 l 347 115 l 347 232 l 347 347 l 347 463 l 347 579 l 232 579 l 232 694 l 347 694 m 463 115 l 579 115 l 694 115 l 694 0 l 463 0 l 463 115 z "},"í":{"ha":694,"x_min":232,"x_max":694,"o":"m 347 810 l 347 926 l 463 926 l 463 1042 l 579 1042 l 579 926 l 463 926 l 463 810 l 347 810 m 347 694 l 463 694 l 463 579 l 463 463 l 463 347 l 463 232 l 463 115 l 347 115 l 347 232 l 347 347 l 347 463 l 347 579 l 232 579 l 232 694 l 347 694 m 463 115 l 579 115 l 694 115 l 694 0 l 463 0 l 463 115 z "},"î":{"ha":694,"x_min":232,"x_max":694,"o":"m 463 810 l 463 926 l 347 926 l 347 1042 l 463 1042 l 463 926 l 579 926 l 579 810 l 463 810 m 232 810 l 232 926 l 347 926 l 347 810 l 232 810 m 347 694 l 463 694 l 463 579 l 463 463 l 463 347 l 463 232 l 463 115 l 347 115 l 347 232 l 347 347 l 347 463 l 347 579 l 232 579 l 232 694 l 347 694 m 463 115 l 579 115 l 694 115 l 694 0 l 463 0 l 463 115 z "},"ï":{"ha":694,"x_min":232,"x_max":694,"o":"m 463 810 l 463 926 l 579 926 l 579 810 l 463 810 m 232 810 l 232 926 l 347 926 l 347 810 l 232 810 m 347 694 l 463 694 l 463 579 l 463 463 l 463 347 l 463 232 l 463 115 l 347 115 l 347 232 l 347 347 l 347 463 l 347 579 l 232 579 l 232 694 l 347 694 m 463 115 l 579 115 l 694 115 l 694 0 l 463 0 l 463 115 z "},"ð":{"ha":694,"x_min":115,"x_max":694,"o":"m 347 694 l 347 810 l 463 810 l 463 926 l 347 926 l 232 926 l 232 1042 l 347 1042 l 463 1042 l 463 926 l 579 926 l 579 1042 l 694 1042 l 694 926 l 579 926 l 579 810 l 463 810 l 463 694 l 347 694 m 579 810 l 694 810 l 694 694 l 694 579 l 694 463 l 694 347 l 694 232 l 694 115 l 579 115 l 579 232 l 579 347 l 579 463 l 463 463 l 347 463 l 232 463 l 232 579 l 347 579 l 463 579 l 579 579 l 579 694 l 579 810 m 232 463 l 232 347 l 232 232 l 232 115 l 115 115 l 115 232 l 115 347 l 115 463 l 232 463 m 579 115 l 579 0 l 347 0 l 232 0 l 232 115 l 347 115 l 463 115 l 579 115 z "},"ñ":{"ha":694,"x_min":115,"x_max":694,"o":"m 115 810 l 115 926 l 232 926 l 232 1042 l 347 1042 l 463 1042 l 463 926 l 579 926 l 579 1042 l 694 1042 l 694 926 l 579 926 l 579 810 l 463 810 l 347 810 l 347 926 l 232 926 l 232 810 l 115 810 m 579 0 l 579 115 l 579 232 l 579 347 l 579 463 l 579 579 l 463 579 l 347 579 l 232 579 l 232 463 l 232 347 l 232 232 l 232 115 l 232 0 l 115 0 l 115 115 l 115 232 l 115 347 l 115 463 l 115 579 l 115 694 l 232 694 l 347 694 l 463 694 l 579 694 l 579 579 l 694 579 l 694 463 l 694 347 l 694 232 l 694 115 l 694 0 l 579 0 z "},"ò":{"ha":694,"x_min":115,"x_max":694,"o":"m 347 810 l 347 926 l 232 926 l 232 1042 l 347 1042 l 347 926 l 463 926 l 463 810 l 347 810 m 463 694 l 579 694 l 579 579 l 463 579 l 347 579 l 232 579 l 232 694 l 347 694 l 463 694 m 579 579 l 694 579 l 694 463 l 694 347 l 694 232 l 694 115 l 579 115 l 579 232 l 579 347 l 579 463 l 579 579 m 232 579 l 232 463 l 232 347 l 232 232 l 232 115 l 115 115 l 115 232 l 115 347 l 115 463 l 115 579 l 232 579 m 579 115 l 579 0 l 347 0 l 232 0 l 232 115 l 347 115 l 463 115 l 579 115 z "},"ó":{"ha":694,"x_min":115,"x_max":694,"o":"m 347 810 l 347 926 l 463 926 l 463 1042 l 579 1042 l 579 926 l 463 926 l 463 810 l 347 810 m 463 694 l 579 694 l 579 579 l 463 579 l 347 579 l 232 579 l 232 694 l 347 694 l 463 694 m 579 579 l 694 579 l 694 463 l 694 347 l 694 232 l 694 115 l 579 115 l 579 232 l 579 347 l 579 463 l 579 579 m 232 579 l 232 463 l 232 347 l 232 232 l 232 115 l 115 115 l 115 232 l 115 347 l 115 463 l 115 579 l 232 579 m 579 115 l 579 0 l 347 0 l 232 0 l 232 115 l 347 115 l 463 115 l 579 115 z "},"ô":{"ha":694,"x_min":115,"x_max":694,"o":"m 463 810 l 463 926 l 347 926 l 347 1042 l 463 1042 l 463 926 l 579 926 l 579 810 l 463 810 m 232 810 l 232 926 l 347 926 l 347 810 l 232 810 m 463 694 l 579 694 l 579 579 l 463 579 l 347 579 l 232 579 l 232 694 l 347 694 l 463 694 m 579 579 l 694 579 l 694 463 l 694 347 l 694 232 l 694 115 l 579 115 l 579 232 l 579 347 l 579 463 l 579 579 m 232 579 l 232 463 l 232 347 l 232 232 l 232 115 l 115 115 l 115 232 l 115 347 l 115 463 l 115 579 l 232 579 m 579 115 l 579 0 l 347 0 l 232 0 l 232 115 l 347 115 l 463 115 l 579 115 z "},"õ":{"ha":694,"x_min":115,"x_max":694,"o":"m 115 810 l 115 926 l 232 926 l 232 1042 l 347 1042 l 463 1042 l 463 926 l 579 926 l 579 1042 l 694 1042 l 694 926 l 579 926 l 579 810 l 463 810 l 347 810 l 347 926 l 232 926 l 232 810 l 115 810 m 463 694 l 579 694 l 579 579 l 463 579 l 347 579 l 232 579 l 232 694 l 347 694 l 463 694 m 579 579 l 694 579 l 694 463 l 694 347 l 694 232 l 694 115 l 579 115 l 579 232 l 579 347 l 579 463 l 579 579 m 232 579 l 232 463 l 232 347 l 232 232 l 232 115 l 115 115 l 115 232 l 115 347 l 115 463 l 115 579 l 232 579 m 579 115 l 579 0 l 347 0 l 232 0 l 232 115 l 347 115 l 463 115 l 579 115 z "},"ö":{"ha":694,"x_min":115,"x_max":694,"o":"m 463 810 l 463 926 l 579 926 l 579 810 l 463 810 m 232 810 l 232 926 l 347 926 l 347 810 l 232 810 m 463 694 l 579 694 l 579 579 l 463 579 l 347 579 l 232 579 l 232 694 l 347 694 l 463 694 m 579 579 l 694 579 l 694 463 l 694 347 l 694 232 l 694 115 l 579 115 l 579 232 l 579 347 l 579 463 l 579 579 m 232 579 l 232 463 l 232 347 l 232 232 l 232 115 l 115 115 l 115 232 l 115 347 l 115 463 l 115 579 l 232 579 m 579 115 l 579 0 l 347 0 l 232 0 l 232 115 l 347 115 l 463 115 l 579 115 z "},"÷":{"ha":694,"x_min":115,"x_max":694,"o":"m 347 579 l 347 694 l 463 694 l 463 579 l 347 579 m 347 115 l 347 232 l 463 232 l 463 115 l 347 115 m 579 463 l 694 463 l 694 347 l 579 347 l 463 347 l 347 347 l 232 347 l 115 347 l 115 463 l 232 463 l 347 463 l 463 463 l 579 463 z "},"ø":{"ha":694,"x_min":115,"x_max":694,"o":"m 115 -115 l 115 0 l 232 0 l 232 115 l 115 115 l 115 232 l 115 347 l 115 463 l 115 579 l 232 579 l 232 463 l 232 347 l 232 232 l 347 232 l 347 347 l 347 463 l 463 463 l 463 347 l 463 232 l 347 232 l 347 115 l 463 115 l 579 115 l 579 232 l 579 347 l 579 463 l 463 463 l 463 579 l 347 579 l 232 579 l 232 694 l 347 694 l 463 694 l 579 694 l 579 810 l 694 810 l 694 694 l 579 694 l 579 579 l 694 579 l 694 463 l 694 347 l 694 232 l 694 115 l 579 115 l 579 0 l 347 0 l 232 0 l 232 -115 l 115 -115 z "},"ù":{"ha":694,"x_min":115,"x_max":694,"o":"m 347 810 l 347 926 l 232 926 l 232 1042 l 347 1042 l 347 926 l 463 926 l 463 810 l 347 810 m 579 579 l 579 694 l 694 694 l 694 579 l 694 463 l 694 347 l 694 232 l 694 115 l 694 0 l 463 0 l 232 0 l 232 115 l 115 115 l 115 232 l 115 347 l 115 463 l 115 579 l 115 694 l 232 694 l 232 579 l 232 463 l 232 347 l 232 232 l 232 115 l 347 115 l 463 115 l 579 115 l 579 232 l 579 347 l 579 463 l 579 579 z "},"ú":{"ha":694,"x_min":115,"x_max":694,"o":"m 347 810 l 347 926 l 463 926 l 463 1042 l 579 1042 l 579 926 l 463 926 l 463 810 l 347 810 m 579 579 l 579 694 l 694 694 l 694 579 l 694 463 l 694 347 l 694 232 l 694 115 l 694 0 l 463 0 l 232 0 l 232 115 l 115 115 l 115 232 l 115 347 l 115 463 l 115 579 l 115 694 l 232 694 l 232 579 l 232 463 l 232 347 l 232 232 l 232 115 l 347 115 l 463 115 l 579 115 l 579 232 l 579 347 l 579 463 l 579 579 z "},"û":{"ha":694,"x_min":115,"x_max":694,"o":"m 463 810 l 463 926 l 347 926 l 347 1042 l 463 1042 l 463 926 l 579 926 l 579 810 l 463 810 m 232 810 l 232 926 l 347 926 l 347 810 l 232 810 m 579 579 l 579 694 l 694 694 l 694 579 l 694 463 l 694 347 l 694 232 l 694 115 l 694 0 l 463 0 l 232 0 l 232 115 l 115 115 l 115 232 l 115 347 l 115 463 l 115 579 l 115 694 l 232 694 l 232 579 l 232 463 l 232 347 l 232 232 l 232 115 l 347 115 l 463 115 l 579 115 l 579 232 l 579 347 l 579 463 l 579 579 z "},"ü":{"ha":694,"x_min":115,"x_max":694,"o":"m 463 810 l 463 926 l 579 926 l 579 810 l 463 810 m 232 810 l 232 926 l 347 926 l 347 810 l 232 810 m 579 579 l 579 694 l 694 694 l 694 579 l 694 463 l 694 347 l 694 232 l 694 115 l 694 0 l 463 0 l 232 0 l 232 115 l 115 115 l 115 232 l 115 347 l 115 463 l 115 579 l 115 694 l 232 694 l 232 579 l 232 463 l 232 347 l 232 232 l 232 115 l 347 115 l 463 115 l 579 115 l 579 232 l 579 347 l 579 463 l 579 579 z "},"ý":{"ha":694,"x_min":115,"x_max":694,"o":"m 347 810 l 347 926 l 463 926 l 463 1042 l 579 1042 l 579 926 l 463 926 l 463 810 l 347 810 m 579 579 l 579 694 l 694 694 l 694 579 l 694 463 l 694 347 l 694 232 l 694 115 l 694 0 l 694 -115 l 694 -232 l 579 -232 l 579 -115 l 579 0 l 347 0 l 232 0 l 232 115 l 115 115 l 115 232 l 115 347 l 115 463 l 115 579 l 115 694 l 232 694 l 232 579 l 232 463 l 232 347 l 232 232 l 232 115 l 347 115 l 463 115 l 579 115 l 579 232 l 579 347 l 579 463 l 579 579 m 579 -232 l 579 -347 l 463 -347 l 347 -347 l 232 -347 l 232 -232 l 347 -232 l 463 -232 l 579 -232 z "},"þ":{"ha":694,"x_min":115,"x_max":694,"o":"m 115 -232 l 115 -115 l 115 0 l 115 115 l 115 232 l 115 347 l 115 463 l 115 579 l 115 694 l 115 810 l 115 926 l 232 926 l 232 810 l 232 694 l 347 694 l 463 694 l 579 694 l 579 579 l 694 579 l 694 463 l 694 347 l 694 232 l 694 115 l 579 115 l 579 0 l 347 0 l 232 0 l 232 -115 l 232 -232 l 115 -232 m 463 579 l 347 579 l 232 579 l 232 463 l 232 347 l 232 232 l 232 115 l 347 115 l 463 115 l 579 115 l 579 232 l 579 347 l 579 463 l 579 579 l 463 579 z "},"ÿ":{"ha":694,"x_min":115,"x_max":694,"o":"m 463 810 l 463 926 l 579 926 l 579 810 l 463 810 m 232 810 l 232 926 l 347 926 l 347 810 l 232 810 m 579 579 l 579 694 l 694 694 l 694 579 l 694 463 l 694 347 l 694 232 l 694 115 l 694 0 l 694 -115 l 694 -232 l 579 -232 l 579 -115 l 579 0 l 347 0 l 232 0 l 232 115 l 115 115 l 115 232 l 115 347 l 115 463 l 115 579 l 115 694 l 232 694 l 232 579 l 232 463 l 232 347 l 232 232 l 232 115 l 347 115 l 463 115 l 579 115 l 579 232 l 579 347 l 579 463 l 579 579 m 579 -232 l 579 -347 l 463 -347 l 347 -347 l 232 -347 l 232 -232 l 347 -232 l 463 -232 l 579 -232 z "},"Ā":{"ha":694,"x_min":115,"x_max":694,"o":"m 579 0 l 579 115 l 579 232 l 579 347 l 463 347 l 347 347 l 232 347 l 232 232 l 232 115 l 232 0 l 115 0 l 115 115 l 115 232 l 115 347 l 115 463 l 115 579 l 115 694 l 232 694 l 232 579 l 232 463 l 347 463 l 463 463 l 579 463 l 579 579 l 579 694 l 463 694 l 347 694 l 232 694 l 232 810 l 347 810 l 463 810 l 579 810 l 579 694 l 694 694 l 694 579 l 694 463 l 694 347 l 694 232 l 694 115 l 694 0 l 579 0 m 463 1042 l 579 1042 l 579 926 l 463 926 l 347 926 l 232 926 l 232 1042 l 347 1042 l 463 1042 z "},"ā":{"ha":694,"x_min":115,"x_max":694,"o":"m 579 0 l 579 115 l 463 115 l 463 232 l 579 232 l 579 347 l 579 463 l 579 579 l 463 579 l 347 579 l 232 579 l 232 694 l 347 694 l 463 694 l 579 694 l 694 694 l 694 579 l 694 463 l 694 347 l 694 232 l 694 115 l 694 0 l 579 0 m 463 926 l 579 926 l 579 810 l 463 810 l 347 810 l 232 810 l 232 926 l 347 926 l 463 926 m 232 579 l 232 463 l 232 347 l 232 232 l 232 115 l 115 115 l 115 232 l 115 347 l 115 463 l 115 579 l 232 579 m 463 115 l 463 0 l 232 0 l 232 115 l 347 115 l 463 115 z "},"Ă":{"ha":694,"x_min":115,"x_max":694,"o":"m 579 0 l 579 115 l 579 232 l 579 347 l 463 347 l 347 347 l 232 347 l 232 232 l 232 115 l 232 0 l 115 0 l 115 115 l 115 232 l 115 347 l 115 463 l 115 579 l 115 694 l 232 694 l 232 579 l 232 463 l 347 463 l 463 463 l 579 463 l 579 579 l 579 694 l 463 694 l 347 694 l 232 694 l 232 810 l 347 810 l 463 810 l 579 810 l 579 694 l 694 694 l 694 579 l 694 463 l 694 347 l 694 232 l 694 115 l 694 0 l 579 0 m 579 1042 l 579 926 l 463 926 l 347 926 l 232 926 l 232 1042 l 232 1157 l 347 1157 l 347 1042 l 463 1042 l 463 1157 l 579 1157 l 579 1042 z "},"ă":{"ha":694,"x_min":115,"x_max":694,"o":"m 579 0 l 579 115 l 463 115 l 463 232 l 579 232 l 579 347 l 579 463 l 579 579 l 463 579 l 347 579 l 232 579 l 232 694 l 347 694 l 463 694 l 579 694 l 694 694 l 694 579 l 694 463 l 694 347 l 694 232 l 694 115 l 694 0 l 579 0 m 579 926 l 579 810 l 463 810 l 347 810 l 232 810 l 232 926 l 232 1042 l 347 1042 l 347 926 l 463 926 l 463 1042 l 579 1042 l 579 926 m 232 579 l 232 463 l 232 347 l 232 232 l 232 115 l 115 115 l 115 232 l 115 347 l 115 463 l 115 579 l 232 579 m 463 115 l 463 0 l 232 0 l 232 115 l 347 115 l 463 115 z "},"Ą":{"ha":694,"x_min":115,"x_max":694,"o":"m 115 0 l 115 115 l 115 232 l 115 347 l 115 463 l 115 579 l 115 694 l 115 810 l 232 810 l 232 694 l 232 579 l 232 463 l 347 463 l 463 463 l 579 463 l 579 579 l 579 694 l 579 810 l 463 810 l 347 810 l 232 810 l 232 926 l 347 926 l 463 926 l 579 926 l 579 810 l 694 810 l 694 694 l 694 579 l 694 463 l 694 347 l 694 232 l 694 115 l 694 0 l 579 0 l 579 115 l 579 232 l 579 347 l 463 347 l 347 347 l 232 347 l 232 232 l 232 115 l 232 0 l 115 0 m 579 0 l 579 -115 l 694 -115 l 694 -232 l 579 -232 l 463 -232 l 463 -115 l 463 0 l 579 0 z "},"ą":{"ha":694,"x_min":115,"x_max":694,"o":"m 463 694 l 579 694 l 579 579 l 463 579 l 347 579 l 232 579 l 232 694 l 347 694 l 463 694 m 579 579 l 694 579 l 694 463 l 694 347 l 694 232 l 694 115 l 694 0 l 579 0 l 579 115 l 463 115 l 463 232 l 579 232 l 579 347 l 579 463 l 579 579 m 232 579 l 232 463 l 232 347 l 232 232 l 232 115 l 115 115 l 115 232 l 115 347 l 115 463 l 115 579 l 232 579 m 463 115 l 463 0 l 232 0 l 232 115 l 347 115 l 463 115 m 463 0 l 579 0 l 579 -115 l 694 -115 l 694 -232 l 579 -232 l 463 -232 l 463 -115 l 463 0 z "},"Ć":{"ha":694,"x_min":115,"x_max":694,"o":"m 347 926 l 347 1042 l 463 1042 l 463 1157 l 579 1157 l 579 1042 l 463 1042 l 463 926 l 347 926 m 579 579 l 579 694 l 463 694 l 347 694 l 232 694 l 232 810 l 347 810 l 463 810 l 579 810 l 579 694 l 694 694 l 694 579 l 579 579 m 232 694 l 232 579 l 232 463 l 232 347 l 232 232 l 232 115 l 115 115 l 115 232 l 115 347 l 115 463 l 115 579 l 115 694 l 232 694 m 579 115 l 579 232 l 694 232 l 694 115 l 579 115 m 579 115 l 579 0 l 347 0 l 232 0 l 232 115 l 347 115 l 463 115 l 579 115 z "},"ć":{"ha":694,"x_min":115,"x_max":694,"o":"m 347 810 l 347 926 l 463 926 l 463 1042 l 579 1042 l 579 926 l 463 926 l 463 810 l 347 810 m 579 463 l 579 579 l 463 579 l 347 579 l 232 579 l 232 694 l 347 694 l 463 694 l 579 694 l 579 579 l 694 579 l 694 463 l 579 463 m 232 579 l 232 463 l 232 347 l 232 232 l 232 115 l 115 115 l 115 232 l 115 347 l 115 463 l 115 579 l 232 579 m 579 115 l 579 232 l 694 232 l 694 115 l 579 115 m 579 115 l 579 0 l 347 0 l 232 0 l 232 115 l 347 115 l 463 115 l 579 115 z "},"Ĉ":{"ha":694,"x_min":115,"x_max":694,"o":"m 463 926 l 463 1042 l 347 1042 l 347 1157 l 463 1157 l 463 1042 l 579 1042 l 579 926 l 463 926 m 232 926 l 232 1042 l 347 1042 l 347 926 l 232 926 m 579 579 l 579 694 l 463 694 l 347 694 l 232 694 l 232 810 l 347 810 l 463 810 l 579 810 l 579 694 l 694 694 l 694 579 l 579 579 m 232 694 l 232 579 l 232 463 l 232 347 l 232 232 l 232 115 l 115 115 l 115 232 l 115 347 l 115 463 l 115 579 l 115 694 l 232 694 m 579 115 l 579 232 l 694 232 l 694 115 l 579 115 m 579 115 l 579 0 l 347 0 l 232 0 l 232 115 l 347 115 l 463 115 l 579 115 z "},"ĉ":{"ha":694,"x_min":115,"x_max":694,"o":"m 463 810 l 463 926 l 347 926 l 347 1042 l 463 1042 l 463 926 l 579 926 l 579 810 l 463 810 m 232 810 l 232 926 l 347 926 l 347 810 l 232 810 m 579 463 l 579 579 l 463 579 l 347 579 l 232 579 l 232 694 l 347 694 l 463 694 l 579 694 l 579 579 l 694 579 l 694 463 l 579 463 m 232 579 l 232 463 l 232 347 l 232 232 l 232 115 l 115 115 l 115 232 l 115 347 l 115 463 l 115 579 l 232 579 m 579 115 l 579 232 l 694 232 l 694 115 l 579 115 m 579 115 l 579 0 l 347 0 l 232 0 l 232 115 l 347 115 l 463 115 l 579 115 z "},"Ċ":{"ha":694,"x_min":115,"x_max":694,"o":"m 347 1042 l 347 1157 l 463 1157 l 463 1042 l 347 1042 m 579 694 l 579 810 l 463 810 l 347 810 l 232 810 l 232 926 l 347 926 l 463 926 l 579 926 l 579 810 l 694 810 l 694 694 l 579 694 m 232 810 l 232 694 l 232 579 l 232 463 l 232 347 l 232 232 l 232 115 l 115 115 l 115 232 l 115 347 l 115 463 l 115 579 l 115 694 l 115 810 l 232 810 m 579 115 l 579 232 l 694 232 l 694 115 l 579 115 m 579 115 l 579 0 l 347 0 l 232 0 l 232 115 l 347 115 l 463 115 l 579 115 z "},"ċ":{"ha":694,"x_min":115,"x_max":694,"o":"m 347 810 l 347 926 l 463 926 l 463 810 l 347 810 m 579 463 l 579 579 l 463 579 l 347 579 l 232 579 l 232 694 l 347 694 l 463 694 l 579 694 l 579 579 l 694 579 l 694 463 l 579 463 m 232 579 l 232 463 l 232 347 l 232 232 l 232 115 l 115 115 l 115 232 l 115 347 l 115 463 l 115 579 l 232 579 m 579 115 l 579 232 l 694 232 l 694 115 l 579 115 m 579 115 l 579 0 l 347 0 l 232 0 l 232 115 l 347 115 l 463 115 l 579 115 z "},"Č":{"ha":694,"x_min":115,"x_max":694,"o":"m 347 926 l 347 1042 l 232 1042 l 232 1157 l 347 1157 l 347 1042 l 463 1042 l 463 1157 l 579 1157 l 579 1042 l 463 1042 l 463 926 l 347 926 m 579 579 l 579 694 l 463 694 l 347 694 l 232 694 l 232 810 l 347 810 l 463 810 l 579 810 l 579 694 l 694 694 l 694 579 l 579 579 m 232 694 l 232 579 l 232 463 l 232 347 l 232 232 l 232 115 l 115 115 l 115 232 l 115 347 l 115 463 l 115 579 l 115 694 l 232 694 m 579 115 l 579 232 l 694 232 l 694 115 l 579 115 m 579 115 l 579 0 l 347 0 l 232 0 l 232 115 l 347 115 l 463 115 l 579 115 z "},"č":{"ha":694,"x_min":115,"x_max":694,"o":"m 347 810 l 347 926 l 232 926 l 232 1042 l 347 1042 l 347 926 l 463 926 l 463 1042 l 579 1042 l 579 926 l 463 926 l 463 810 l 347 810 m 579 463 l 579 579 l 463 579 l 347 579 l 232 579 l 232 694 l 347 694 l 463 694 l 579 694 l 579 579 l 694 579 l 694 463 l 579 463 m 232 579 l 232 463 l 232 347 l 232 232 l 232 115 l 115 115 l 115 232 l 115 347 l 115 463 l 115 579 l 232 579 m 579 115 l 579 232 l 694 232 l 694 115 l 579 115 m 579 115 l 579 0 l 347 0 l 232 0 l 232 115 l 347 115 l 463 115 l 579 115 z "},"Ď":{"ha":694,"x_min":115,"x_max":694,"o":"m 347 926 l 347 1042 l 232 1042 l 232 1157 l 347 1157 l 347 1042 l 463 1042 l 463 1157 l 579 1157 l 579 1042 l 463 1042 l 463 926 l 347 926 m 347 810 l 463 810 l 463 694 l 579 694 l 579 579 l 694 579 l 694 463 l 694 347 l 694 232 l 579 232 l 579 115 l 463 115 l 463 0 l 232 0 l 115 0 l 115 115 l 115 232 l 115 347 l 115 463 l 115 579 l 115 694 l 115 810 l 232 810 l 347 810 m 347 694 l 232 694 l 232 579 l 232 463 l 232 347 l 232 232 l 232 115 l 347 115 l 463 115 l 463 232 l 579 232 l 579 347 l 579 463 l 579 579 l 463 579 l 463 694 l 347 694 z "},"ď":{"ha":694,"x_min":115,"x_max":810,"o":"m 694 926 l 694 1042 l 810 1042 l 810 926 l 694 926 m 694 926 l 694 810 l 579 810 l 579 694 l 579 579 l 579 463 l 579 347 l 579 232 l 579 115 l 579 0 l 347 0 l 232 0 l 232 115 l 115 115 l 115 232 l 115 347 l 115 463 l 115 579 l 232 579 l 232 463 l 232 347 l 232 232 l 232 115 l 347 115 l 463 115 l 463 232 l 463 347 l 463 463 l 463 579 l 347 579 l 232 579 l 232 694 l 347 694 l 463 694 l 463 810 l 463 926 l 463 1042 l 579 1042 l 579 926 l 694 926 z "},"Đ":{"ha":694,"x_min":115,"x_max":694,"o":"m 347 926 l 463 926 l 463 810 l 579 810 l 579 694 l 694 694 l 694 579 l 694 463 l 694 347 l 694 232 l 579 232 l 579 115 l 463 115 l 463 0 l 232 0 l 232 115 l 232 232 l 232 347 l 115 347 l 115 463 l 232 463 l 232 579 l 232 694 l 232 810 l 232 926 l 347 926 m 463 810 l 347 810 l 347 694 l 347 579 l 347 463 l 463 463 l 463 347 l 347 347 l 347 232 l 347 115 l 463 115 l 463 232 l 579 232 l 579 347 l 579 463 l 579 579 l 579 694 l 463 694 l 463 810 z "},"đ":{"ha":694,"x_min":115,"x_max":694,"o":"m 579 926 l 694 926 l 694 810 l 579 810 l 579 694 l 579 579 l 579 463 l 579 347 l 579 232 l 579 115 l 579 0 l 347 0 l 232 0 l 232 115 l 115 115 l 115 232 l 115 347 l 115 463 l 115 579 l 232 579 l 232 463 l 232 347 l 232 232 l 232 115 l 347 115 l 463 115 l 463 232 l 463 347 l 463 463 l 463 579 l 347 579 l 232 579 l 232 694 l 347 694 l 463 694 l 463 810 l 347 810 l 232 810 l 232 926 l 347 926 l 463 926 l 463 1042 l 579 1042 l 579 926 z "},"Ē":{"ha":694,"x_min":115,"x_max":694,"o":"m 463 1157 l 579 1157 l 579 1042 l 463 1042 l 347 1042 l 232 1042 l 232 1157 l 347 1157 l 463 1157 m 579 926 l 694 926 l 694 810 l 579 810 l 463 810 l 347 810 l 232 810 l 232 694 l 232 579 l 347 579 l 463 579 l 579 579 l 579 463 l 463 463 l 347 463 l 232 463 l 232 347 l 232 232 l 232 115 l 347 115 l 463 115 l 579 115 l 694 115 l 694 0 l 463 0 l 232 0 l 115 0 l 115 115 l 115 232 l 115 347 l 115 463 l 115 579 l 115 694 l 115 810 l 115 926 l 232 926 l 347 926 l 463 926 l 579 926 z "},"ē":{"ha":694,"x_min":115,"x_max":694,"o":"m 463 926 l 579 926 l 579 810 l 463 810 l 347 810 l 232 810 l 232 926 l 347 926 l 463 926 m 463 694 l 579 694 l 579 579 l 463 579 l 347 579 l 232 579 l 232 694 l 347 694 l 463 694 m 579 579 l 694 579 l 694 463 l 694 347 l 579 347 l 463 347 l 347 347 l 232 347 l 232 232 l 232 115 l 115 115 l 115 232 l 115 347 l 115 463 l 115 579 l 232 579 l 232 463 l 347 463 l 463 463 l 579 463 l 579 579 m 579 115 l 579 232 l 694 232 l 694 115 l 579 115 m 579 115 l 579 0 l 347 0 l 232 0 l 232 115 l 347 115 l 463 115 l 579 115 z "},"Ĕ":{"ha":694,"x_min":115,"x_max":694,"o":"m 579 1042 l 579 926 l 463 926 l 347 926 l 232 926 l 232 1042 l 232 1157 l 347 1157 l 347 1042 l 463 1042 l 463 1157 l 579 1157 l 579 1042 m 579 810 l 694 810 l 694 694 l 579 694 l 463 694 l 347 694 l 232 694 l 232 579 l 232 463 l 347 463 l 463 463 l 579 463 l 579 347 l 463 347 l 347 347 l 232 347 l 232 232 l 232 115 l 347 115 l 463 115 l 579 115 l 694 115 l 694 0 l 463 0 l 232 0 l 115 0 l 115 115 l 115 232 l 115 347 l 115 463 l 115 579 l 115 694 l 115 810 l 232 810 l 347 810 l 463 810 l 579 810 z "},"ĕ":{"ha":694,"x_min":115,"x_max":694,"o":"m 579 926 l 579 810 l 463 810 l 347 810 l 232 810 l 232 926 l 232 1042 l 347 1042 l 347 926 l 463 926 l 463 1042 l 579 1042 l 579 926 m 463 694 l 579 694 l 579 579 l 463 579 l 347 579 l 232 579 l 232 694 l 347 694 l 463 694 m 579 579 l 694 579 l 694 463 l 694 347 l 579 347 l 463 347 l 347 347 l 232 347 l 232 232 l 232 115 l 115 115 l 115 232 l 115 347 l 115 463 l 115 579 l 232 579 l 232 463 l 347 463 l 463 463 l 579 463 l 579 579 m 579 115 l 579 232 l 694 232 l 694 115 l 579 115 m 579 115 l 579 0 l 347 0 l 232 0 l 232 115 l 347 115 l 463 115 l 579 115 z "},"Ė":{"ha":694,"x_min":115,"x_max":694,"o":"m 347 1042 l 347 1157 l 463 1157 l 463 1042 l 347 1042 m 579 926 l 694 926 l 694 810 l 579 810 l 463 810 l 347 810 l 232 810 l 232 694 l 232 579 l 347 579 l 463 579 l 579 579 l 579 463 l 463 463 l 347 463 l 232 463 l 232 347 l 232 232 l 232 115 l 347 115 l 463 115 l 579 115 l 694 115 l 694 0 l 463 0 l 232 0 l 115 0 l 115 115 l 115 232 l 115 347 l 115 463 l 115 579 l 115 694 l 115 810 l 115 926 l 232 926 l 347 926 l 463 926 l 579 926 z "},"ė":{"ha":694,"x_min":115,"x_max":694,"o":"m 347 810 l 347 926 l 463 926 l 463 810 l 347 810 m 463 694 l 579 694 l 579 579 l 463 579 l 347 579 l 232 579 l 232 694 l 347 694 l 463 694 m 579 579 l 694 579 l 694 463 l 694 347 l 579 347 l 463 347 l 347 347 l 232 347 l 232 232 l 232 115 l 115 115 l 115 232 l 115 347 l 115 463 l 115 579 l 232 579 l 232 463 l 347 463 l 463 463 l 579 463 l 579 579 m 579 115 l 579 232 l 694 232 l 694 115 l 579 115 m 579 115 l 579 0 l 347 0 l 232 0 l 232 115 l 347 115 l 463 115 l 579 115 z "},"Ę":{"ha":694,"x_min":115,"x_max":694,"o":"m 579 926 l 694 926 l 694 810 l 579 810 l 463 810 l 347 810 l 232 810 l 232 694 l 232 579 l 347 579 l 463 579 l 579 579 l 579 463 l 463 463 l 347 463 l 232 463 l 232 347 l 232 232 l 232 115 l 347 115 l 463 115 l 579 115 l 694 115 l 694 0 l 579 0 l 579 -115 l 694 -115 l 694 -232 l 579 -232 l 463 -232 l 463 -115 l 463 0 l 232 0 l 115 0 l 115 115 l 115 232 l 115 347 l 115 463 l 115 579 l 115 694 l 115 810 l 115 926 l 232 926 l 347 926 l 463 926 l 579 926 z "},"ę":{"ha":694,"x_min":115,"x_max":694,"o":"m 463 694 l 579 694 l 579 579 l 463 579 l 347 579 l 232 579 l 232 694 l 347 694 l 463 694 m 579 579 l 694 579 l 694 463 l 694 347 l 579 347 l 463 347 l 347 347 l 232 347 l 232 232 l 232 115 l 115 115 l 115 232 l 115 347 l 115 463 l 115 579 l 232 579 l 232 463 l 347 463 l 463 463 l 579 463 l 579 579 m 579 115 l 579 232 l 694 232 l 694 115 l 579 115 m 579 115 l 579 0 l 579 -115 l 694 -115 l 694 -232 l 579 -232 l 463 -232 l 463 -115 l 463 0 l 232 0 l 232 115 l 347 115 l 463 115 l 579 115 z "},"Ě":{"ha":694,"x_min":115,"x_max":694,"o":"m 347 926 l 347 1042 l 232 1042 l 232 1157 l 347 1157 l 347 1042 l 463 1042 l 463 1157 l 579 1157 l 579 1042 l 463 1042 l 463 926 l 347 926 m 579 810 l 694 810 l 694 694 l 579 694 l 463 694 l 347 694 l 232 694 l 232 579 l 232 463 l 347 463 l 463 463 l 579 463 l 579 347 l 463 347 l 347 347 l 232 347 l 232 232 l 232 115 l 347 115 l 463 115 l 579 115 l 694 115 l 694 0 l 463 0 l 232 0 l 115 0 l 115 115 l 115 232 l 115 347 l 115 463 l 115 579 l 115 694 l 115 810 l 232 810 l 347 810 l 463 810 l 579 810 z "},"ě":{"ha":694,"x_min":115,"x_max":694,"o":"m 347 810 l 347 926 l 232 926 l 232 1042 l 347 1042 l 347 926 l 463 926 l 463 1042 l 579 1042 l 579 926 l 463 926 l 463 810 l 347 810 m 463 694 l 579 694 l 579 579 l 463 579 l 347 579 l 232 579 l 232 694 l 347 694 l 463 694 m 579 579 l 694 579 l 694 463 l 694 347 l 579 347 l 463 347 l 347 347 l 232 347 l 232 232 l 232 115 l 115 115 l 115 232 l 115 347 l 115 463 l 115 579 l 232 579 l 232 463 l 347 463 l 463 463 l 579 463 l 579 579 m 579 115 l 579 232 l 694 232 l 694 115 l 579 115 m 579 115 l 579 0 l 347 0 l 232 0 l 232 115 l 347 115 l 463 115 l 579 115 z "},"Ĝ":{"ha":694,"x_min":115,"x_max":694,"o":"m 463 926 l 463 1042 l 347 1042 l 347 1157 l 463 1157 l 463 1042 l 579 1042 l 579 926 l 463 926 m 232 926 l 232 1042 l 347 1042 l 347 926 l 232 926 m 579 579 l 579 694 l 463 694 l 347 694 l 232 694 l 232 810 l 347 810 l 463 810 l 579 810 l 579 694 l 694 694 l 694 579 l 579 579 m 232 694 l 232 579 l 232 463 l 232 347 l 232 232 l 232 115 l 115 115 l 115 232 l 115 347 l 115 463 l 115 579 l 115 694 l 232 694 m 579 463 l 694 463 l 694 347 l 694 232 l 694 115 l 579 115 l 579 232 l 579 347 l 463 347 l 463 463 l 579 463 m 579 115 l 579 0 l 347 0 l 232 0 l 232 115 l 347 115 l 463 115 l 579 115 z "},"ĝ":{"ha":694,"x_min":115,"x_max":694,"o":"m 463 810 l 463 926 l 347 926 l 347 1042 l 463 1042 l 463 926 l 579 926 l 579 810 l 463 810 m 232 810 l 232 926 l 347 926 l 347 810 l 232 810 m 579 694 l 694 694 l 694 579 l 694 463 l 694 347 l 694 232 l 694 115 l 694 0 l 694 -115 l 694 -232 l 579 -232 l 579 -115 l 579 0 l 347 0 l 232 0 l 232 115 l 115 115 l 115 232 l 115 347 l 115 463 l 115 579 l 232 579 l 232 463 l 232 347 l 232 232 l 232 115 l 347 115 l 463 115 l 579 115 l 579 232 l 579 347 l 579 463 l 579 579 l 463 579 l 347 579 l 232 579 l 232 694 l 347 694 l 463 694 l 579 694 m 579 -232 l 579 -347 l 463 -347 l 347 -347 l 232 -347 l 232 -232 l 347 -232 l 463 -232 l 579 -232 z "},"Ğ":{"ha":694,"x_min":115,"x_max":694,"o":"m 579 579 l 579 694 l 463 694 l 347 694 l 232 694 l 232 810 l 347 810 l 463 810 l 579 810 l 579 694 l 694 694 l 694 579 l 579 579 m 579 1042 l 579 926 l 463 926 l 347 926 l 232 926 l 232 1042 l 232 1157 l 347 1157 l 347 1042 l 463 1042 l 463 1157 l 579 1157 l 579 1042 m 232 694 l 232 579 l 232 463 l 232 347 l 232 232 l 232 115 l 115 115 l 115 232 l 115 347 l 115 463 l 115 579 l 115 694 l 232 694 m 579 463 l 694 463 l 694 347 l 694 232 l 694 115 l 579 115 l 579 232 l 579 347 l 463 347 l 463 463 l 579 463 m 579 115 l 579 0 l 347 0 l 232 0 l 232 115 l 347 115 l 463 115 l 579 115 z "},"ğ":{"ha":694,"x_min":115,"x_max":694,"o":"m 579 926 l 579 810 l 463 810 l 347 810 l 232 810 l 232 926 l 232 1042 l 347 1042 l 347 926 l 463 926 l 463 1042 l 579 1042 l 579 926 m 579 694 l 694 694 l 694 579 l 694 463 l 694 347 l 694 232 l 694 115 l 694 0 l 694 -115 l 694 -232 l 579 -232 l 579 -115 l 579 0 l 347 0 l 232 0 l 232 115 l 115 115 l 115 232 l 115 347 l 115 463 l 115 579 l 232 579 l 232 463 l 232 347 l 232 232 l 232 115 l 347 115 l 463 115 l 579 115 l 579 232 l 579 347 l 579 463 l 579 579 l 463 579 l 347 579 l 232 579 l 232 694 l 347 694 l 463 694 l 579 694 m 579 -232 l 579 -347 l 463 -347 l 347 -347 l 232 -347 l 232 -232 l 347 -232 l 463 -232 l 579 -232 z "},"Ġ":{"ha":694,"x_min":115,"x_max":694,"o":"m 347 1042 l 347 1157 l 463 1157 l 463 1042 l 347 1042 m 579 694 l 579 810 l 463 810 l 347 810 l 232 810 l 232 926 l 347 926 l 463 926 l 579 926 l 579 810 l 694 810 l 694 694 l 579 694 m 232 810 l 232 694 l 232 579 l 232 463 l 232 347 l 232 232 l 232 115 l 115 115 l 115 232 l 115 347 l 115 463 l 115 579 l 115 694 l 115 810 l 232 810 m 579 463 l 694 463 l 694 347 l 694 232 l 694 115 l 579 115 l 579 232 l 579 347 l 463 347 l 463 463 l 579 463 m 579 115 l 579 0 l 347 0 l 232 0 l 232 115 l 347 115 l 463 115 l 579 115 z "},"ġ":{"ha":694,"x_min":115,"x_max":694,"o":"m 347 810 l 347 926 l 463 926 l 463 810 l 347 810 m 579 694 l 694 694 l 694 579 l 694 463 l 694 347 l 694 232 l 694 115 l 694 0 l 694 -115 l 694 -232 l 579 -232 l 579 -115 l 579 0 l 347 0 l 232 0 l 232 115 l 115 115 l 115 232 l 115 347 l 115 463 l 115 579 l 232 579 l 232 463 l 232 347 l 232 232 l 232 115 l 347 115 l 463 115 l 579 115 l 579 232 l 579 347 l 579 463 l 579 579 l 463 579 l 347 579 l 232 579 l 232 694 l 347 694 l 463 694 l 579 694 m 579 -232 l 579 -347 l 463 -347 l 347 -347 l 232 -347 l 232 -232 l 347 -232 l 463 -232 l 579 -232 z "},"Ģ":{"ha":694,"x_min":115,"x_max":694,"o":"m 579 694 l 579 810 l 463 810 l 347 810 l 232 810 l 232 926 l 347 926 l 463 926 l 579 926 l 579 810 l 694 810 l 694 694 l 579 694 m 232 -347 l 232 -232 l 347 -232 l 347 -115 l 463 -115 l 463 -232 l 347 -232 l 347 -347 l 232 -347 m 232 810 l 232 694 l 232 579 l 232 463 l 232 347 l 232 232 l 232 115 l 115 115 l 115 232 l 115 347 l 115 463 l 115 579 l 115 694 l 115 810 l 232 810 m 579 463 l 694 463 l 694 347 l 694 232 l 694 115 l 579 115 l 579 232 l 579 347 l 463 347 l 463 463 l 579 463 m 579 115 l 579 0 l 347 0 l 232 0 l 232 115 l 347 115 l 463 115 l 579 115 z "},"ģ":{"ha":694,"x_min":115,"x_max":694,"o":"m 347 810 l 347 926 l 463 926 l 463 1042 l 579 1042 l 579 926 l 463 926 l 463 810 l 347 810 m 579 694 l 694 694 l 694 579 l 694 463 l 694 347 l 694 232 l 694 115 l 694 0 l 694 -115 l 694 -232 l 579 -232 l 579 -115 l 579 0 l 347 0 l 232 0 l 232 115 l 115 115 l 115 232 l 115 347 l 115 463 l 115 579 l 232 579 l 232 463 l 232 347 l 232 232 l 232 115 l 347 115 l 463 115 l 579 115 l 579 232 l 579 347 l 579 463 l 579 579 l 463 579 l 347 579 l 232 579 l 232 694 l 347 694 l 463 694 l 579 694 m 579 -232 l 579 -347 l 463 -347 l 347 -347 l 232 -347 l 232 -232 l 347 -232 l 463 -232 l 579 -232 z "},"Ĥ":{"ha":694,"x_min":115,"x_max":694,"o":"m 463 926 l 463 1042 l 347 1042 l 347 1157 l 463 1157 l 463 1042 l 579 1042 l 579 926 l 463 926 m 232 926 l 232 1042 l 347 1042 l 347 926 l 232 926 m 579 0 l 579 115 l 579 232 l 579 347 l 463 347 l 347 347 l 232 347 l 232 232 l 232 115 l 232 0 l 115 0 l 115 115 l 115 232 l 115 347 l 115 463 l 115 579 l 115 694 l 115 810 l 232 810 l 232 694 l 232 579 l 232 463 l 347 463 l 463 463 l 579 463 l 579 579 l 579 694 l 579 810 l 694 810 l 694 694 l 694 579 l 694 463 l 694 347 l 694 232 l 694 115 l 694 0 l 579 0 z "},"ĥ":{"ha":694,"x_min":232,"x_max":694,"o":"m 463 926 l 463 1042 l 347 1042 l 347 1157 l 463 1157 l 463 1042 l 579 1042 l 579 926 l 463 926 m 232 926 l 232 1042 l 347 1042 l 347 926 l 232 926 m 579 0 l 579 115 l 579 232 l 579 347 l 579 463 l 463 463 l 347 463 l 347 347 l 347 232 l 347 115 l 347 0 l 232 0 l 232 115 l 232 232 l 232 347 l 232 463 l 232 579 l 232 694 l 232 810 l 347 810 l 347 694 l 347 579 l 463 579 l 579 579 l 579 463 l 694 463 l 694 347 l 694 232 l 694 115 l 694 0 l 579 0 z "},"Ħ":{"ha":694,"x_min":0,"x_max":810,"o":"m 579 0 l 579 115 l 579 232 l 579 347 l 579 463 l 463 463 l 347 463 l 232 463 l 232 347 l 232 232 l 232 115 l 232 0 l 115 0 l 115 115 l 115 232 l 115 347 l 115 463 l 115 579 l 115 694 l 0 694 l 0 810 l 115 810 l 115 926 l 232 926 l 232 810 l 347 810 l 463 810 l 579 810 l 579 926 l 694 926 l 694 810 l 810 810 l 810 694 l 694 694 l 694 579 l 694 463 l 694 347 l 694 232 l 694 115 l 694 0 l 579 0 m 463 694 l 347 694 l 232 694 l 232 579 l 347 579 l 463 579 l 579 579 l 579 694 l 463 694 z "},"ħ":{"ha":694,"x_min":115,"x_max":694,"o":"m 579 0 l 579 115 l 579 232 l 579 347 l 579 463 l 579 579 l 463 579 l 347 579 l 347 463 l 347 347 l 347 232 l 347 115 l 347 0 l 232 0 l 232 115 l 232 232 l 232 347 l 232 463 l 232 579 l 232 694 l 232 810 l 115 810 l 115 926 l 232 926 l 232 1042 l 347 1042 l 347 926 l 463 926 l 463 810 l 347 810 l 347 694 l 463 694 l 579 694 l 579 579 l 694 579 l 694 463 l 694 347 l 694 232 l 694 115 l 694 0 l 579 0 z "},"Ĩ":{"ha":694,"x_min":115,"x_max":694,"o":"m 115 926 l 115 1042 l 232 1042 l 232 1157 l 347 1157 l 463 1157 l 463 1042 l 579 1042 l 579 1157 l 694 1157 l 694 1042 l 579 1042 l 579 926 l 463 926 l 347 926 l 347 1042 l 232 1042 l 232 926 l 115 926 m 463 810 l 579 810 l 579 694 l 463 694 l 463 579 l 463 463 l 463 347 l 463 232 l 463 115 l 579 115 l 579 0 l 347 0 l 232 0 l 232 115 l 347 115 l 347 232 l 347 347 l 347 463 l 347 579 l 347 694 l 232 694 l 232 810 l 347 810 l 463 810 z "},"ĩ":{"ha":694,"x_min":115,"x_max":694,"o":"m 115 810 l 115 926 l 232 926 l 232 1042 l 347 1042 l 463 1042 l 463 926 l 579 926 l 579 1042 l 694 1042 l 694 926 l 579 926 l 579 810 l 463 810 l 347 810 l 347 926 l 232 926 l 232 810 l 115 810 m 347 694 l 463 694 l 463 579 l 463 463 l 463 347 l 463 232 l 463 115 l 347 115 l 347 232 l 347 347 l 347 463 l 347 579 l 232 579 l 232 694 l 347 694 m 463 115 l 579 115 l 694 115 l 694 0 l 463 0 l 463 115 z "},"Ī":{"ha":694,"x_min":232,"x_max":579,"o":"m 463 1157 l 579 1157 l 579 1042 l 463 1042 l 347 1042 l 232 1042 l 232 1157 l 347 1157 l 463 1157 m 463 926 l 579 926 l 579 810 l 463 810 l 463 694 l 463 579 l 463 463 l 463 347 l 463 232 l 463 115 l 579 115 l 579 0 l 347 0 l 232 0 l 232 115 l 347 115 l 347 232 l 347 347 l 347 463 l 347 579 l 347 694 l 347 810 l 232 810 l 232 926 l 347 926 l 463 926 z "},"ī":{"ha":694,"x_min":232,"x_max":694,"o":"m 463 926 l 579 926 l 579 810 l 463 810 l 347 810 l 232 810 l 232 926 l 347 926 l 463 926 m 347 694 l 463 694 l 463 579 l 463 463 l 463 347 l 463 232 l 463 115 l 347 115 l 347 232 l 347 347 l 347 463 l 347 579 l 232 579 l 232 694 l 347 694 m 463 115 l 579 115 l 694 115 l 694 0 l 463 0 l 463 115 z "},"Ĭ":{"ha":694,"x_min":232,"x_max":579,"o":"m 579 1042 l 579 926 l 463 926 l 347 926 l 232 926 l 232 1042 l 232 1157 l 347 1157 l 347 1042 l 463 1042 l 463 1157 l 579 1157 l 579 1042 m 463 810 l 579 810 l 579 694 l 463 694 l 463 579 l 463 463 l 463 347 l 463 232 l 463 115 l 579 115 l 579 0 l 347 0 l 232 0 l 232 115 l 347 115 l 347 232 l 347 347 l 347 463 l 347 579 l 347 694 l 232 694 l 232 810 l 347 810 l 463 810 z "},"ĭ":{"ha":694,"x_min":232,"x_max":694,"o":"m 579 926 l 579 810 l 463 810 l 347 810 l 232 810 l 232 926 l 232 1042 l 347 1042 l 347 926 l 463 926 l 463 1042 l 579 1042 l 579 926 m 347 694 l 463 694 l 463 579 l 463 463 l 463 347 l 463 232 l 463 115 l 347 115 l 347 232 l 347 347 l 347 463 l 347 579 l 232 579 l 232 694 l 347 694 m 463 115 l 579 115 l 694 115 l 694 0 l 463 0 l 463 115 z "},"Į":{"ha":694,"x_min":232,"x_max":579,"o":"m 463 926 l 579 926 l 579 810 l 463 810 l 463 694 l 463 579 l 463 463 l 463 347 l 463 232 l 463 115 l 579 115 l 579 0 l 463 0 l 463 -115 l 579 -115 l 579 -232 l 463 -232 l 347 -232 l 347 -115 l 347 0 l 232 0 l 232 115 l 347 115 l 347 232 l 347 347 l 347 463 l 347 579 l 347 694 l 347 810 l 232 810 l 232 926 l 347 926 l 463 926 z "},"į":{"ha":694,"x_min":232,"x_max":694,"o":"m 347 810 l 347 926 l 463 926 l 463 810 l 347 810 m 347 694 l 463 694 l 463 579 l 463 463 l 463 347 l 463 232 l 463 115 l 347 115 l 347 232 l 347 347 l 347 463 l 347 579 l 232 579 l 232 694 l 347 694 m 463 115 l 579 115 l 694 115 l 694 0 l 579 0 l 579 -115 l 694 -115 l 694 -232 l 579 -232 l 463 -232 l 463 -115 l 463 0 l 463 115 z "},"İ":{"ha":694,"x_min":232,"x_max":579,"o":"m 347 1042 l 347 1157 l 463 1157 l 463 1042 l 347 1042 m 463 926 l 579 926 l 579 810 l 463 810 l 463 694 l 463 579 l 463 463 l 463 347 l 463 232 l 463 115 l 579 115 l 579 0 l 347 0 l 232 0 l 232 115 l 347 115 l 347 232 l 347 347 l 347 463 l 347 579 l 347 694 l 347 810 l 232 810 l 232 926 l 347 926 l 463 926 z "},"ı":{"ha":694,"x_min":232,"x_max":694,"o":"m 347 694 l 463 694 l 463 579 l 463 463 l 463 347 l 463 232 l 463 115 l 347 115 l 347 232 l 347 347 l 347 463 l 347 579 l 232 579 l 232 694 l 347 694 m 463 115 l 579 115 l 694 115 l 694 0 l 463 0 l 463 115 z "},"Ĳ":{"ha":694,"x_min":115,"x_max":694,"o":"m 463 -232 l 463 -115 l 579 -115 l 579 0 l 579 115 l 579 232 l 579 347 l 579 463 l 579 579 l 579 694 l 579 810 l 579 926 l 463 926 l 347 926 l 347 810 l 347 694 l 347 579 l 347 463 l 347 347 l 347 232 l 347 115 l 463 115 l 463 0 l 232 0 l 115 0 l 115 115 l 232 115 l 232 232 l 232 347 l 232 463 l 232 579 l 232 694 l 232 810 l 232 926 l 115 926 l 115 1042 l 232 1042 l 347 1042 l 463 1042 l 579 1042 l 694 1042 l 694 926 l 694 810 l 694 694 l 694 579 l 694 463 l 694 347 l 694 232 l 694 115 l 694 0 l 694 -115 l 579 -115 l 579 -232 l 463 -232 z "},"ĳ":{"ha":694,"x_min":115,"x_max":694,"o":"m 579 810 l 579 926 l 694 926 l 694 810 l 579 810 m 232 810 l 232 926 l 347 926 l 347 810 l 232 810 m 347 0 l 347 115 l 232 115 l 232 232 l 232 347 l 232 463 l 232 579 l 115 579 l 115 694 l 232 694 l 347 694 l 347 579 l 347 463 l 347 347 l 347 232 l 347 115 l 463 115 l 463 0 l 347 0 m 463 -232 l 463 -115 l 579 -115 l 579 0 l 579 115 l 579 232 l 579 347 l 579 463 l 579 579 l 463 579 l 463 694 l 579 694 l 694 694 l 694 579 l 694 463 l 694 347 l 694 232 l 694 115 l 694 0 l 694 -115 l 579 -115 l 579 -232 l 463 -232 z "},"Ĵ":{"ha":694,"x_min":115,"x_max":694,"o":"m 579 926 l 579 1042 l 463 1042 l 463 1157 l 579 1157 l 579 1042 l 694 1042 l 694 926 l 579 926 m 347 926 l 347 1042 l 463 1042 l 463 926 l 347 926 m 579 810 l 694 810 l 694 694 l 694 579 l 694 463 l 694 347 l 694 232 l 694 115 l 579 115 l 579 232 l 579 347 l 579 463 l 579 579 l 579 694 l 463 694 l 347 694 l 347 810 l 463 810 l 579 810 m 115 232 l 115 347 l 232 347 l 232 232 l 232 115 l 115 115 l 115 232 m 579 115 l 579 0 l 347 0 l 232 0 l 232 115 l 347 115 l 463 115 l 579 115 z "},"ĵ":{"ha":694,"x_min":115,"x_max":694,"o":"m 579 810 l 579 926 l 463 926 l 463 1042 l 579 1042 l 579 926 l 694 926 l 694 810 l 579 810 m 347 810 l 347 926 l 463 926 l 463 810 l 347 810 m 463 694 l 579 694 l 579 579 l 579 463 l 579 347 l 579 232 l 579 115 l 579 0 l 579 -115 l 463 -115 l 463 0 l 463 115 l 463 232 l 463 347 l 463 463 l 463 579 l 347 579 l 347 694 l 463 694 m 463 -115 l 463 -232 l 347 -232 l 232 -232 l 115 -232 l 115 -115 l 232 -115 l 347 -115 l 463 -115 z "},"Ķ":{"ha":694,"x_min":115,"x_max":694,"o":"m 579 0 l 579 115 l 579 232 l 463 232 l 463 347 l 463 463 l 347 463 l 232 463 l 232 347 l 232 232 l 232 115 l 232 0 l 115 0 l 115 115 l 115 232 l 115 347 l 115 463 l 115 579 l 115 694 l 115 810 l 115 926 l 232 926 l 232 810 l 232 694 l 232 579 l 347 579 l 347 694 l 463 694 l 463 810 l 579 810 l 579 926 l 694 926 l 694 810 l 579 810 l 579 694 l 463 694 l 463 579 l 463 463 l 579 463 l 579 347 l 579 232 l 694 232 l 694 115 l 694 0 l 579 0 m 232 -232 l 232 -115 l 347 -115 l 347 0 l 463 0 l 463 -115 l 347 -115 l 347 -232 l 232 -232 z "},"ķ":{"ha":694,"x_min":115,"x_max":694,"o":"m 579 0 l 579 115 l 463 115 l 463 232 l 347 232 l 232 232 l 232 115 l 232 0 l 115 0 l 115 115 l 115 232 l 115 347 l 115 463 l 115 579 l 115 694 l 115 810 l 115 926 l 115 1042 l 232 1042 l 232 926 l 232 810 l 232 694 l 232 579 l 232 463 l 232 347 l 347 347 l 347 463 l 463 463 l 463 579 l 579 579 l 579 694 l 694 694 l 694 579 l 579 579 l 579 463 l 463 463 l 463 347 l 463 232 l 579 232 l 579 115 l 694 115 l 694 0 l 579 0 m 232 -232 l 232 -115 l 347 -115 l 347 0 l 463 0 l 463 -115 l 347 -115 l 347 -232 l 232 -232 z "},"ĸ":{"ha":694,"x_min":115,"x_max":694,"o":"m 579 0 l 579 115 l 463 115 l 463 232 l 347 232 l 232 232 l 232 115 l 232 0 l 115 0 l 115 115 l 115 232 l 115 347 l 115 463 l 115 579 l 115 694 l 232 694 l 232 579 l 232 463 l 232 347 l 347 347 l 347 463 l 463 463 l 463 579 l 579 579 l 579 694 l 694 694 l 694 579 l 579 579 l 579 463 l 463 463 l 463 347 l 463 232 l 579 232 l 579 115 l 694 115 l 694 0 l 579 0 z "},"Ĺ":{"ha":694,"x_min":115,"x_max":694,"o":"m 115 926 l 115 1042 l 232 1042 l 232 1157 l 347 1157 l 347 1042 l 232 1042 l 232 926 l 115 926 m 115 694 l 115 810 l 232 810 l 232 694 l 232 579 l 232 463 l 232 347 l 232 232 l 232 115 l 347 115 l 463 115 l 579 115 l 694 115 l 694 0 l 463 0 l 232 0 l 115 0 l 115 115 l 115 232 l 115 347 l 115 463 l 115 579 l 115 694 z "},"ĺ":{"ha":694,"x_min":232,"x_max":579,"o":"m 347 926 l 347 1042 l 463 1042 l 463 1157 l 579 1157 l 579 1042 l 463 1042 l 463 926 l 347 926 m 347 810 l 463 810 l 463 694 l 463 579 l 463 463 l 463 347 l 463 232 l 463 115 l 579 115 l 579 0 l 347 0 l 347 115 l 347 232 l 347 347 l 347 463 l 347 579 l 347 694 l 232 694 l 232 810 l 347 810 z "},"Ļ":{"ha":694,"x_min":115,"x_max":694,"o":"m 232 -347 l 232 -232 l 347 -232 l 347 -115 l 463 -115 l 463 -232 l 347 -232 l 347 -347 l 232 -347 m 115 810 l 115 926 l 232 926 l 232 810 l 232 694 l 232 579 l 232 463 l 232 347 l 232 232 l 232 115 l 347 115 l 463 115 l 579 115 l 694 115 l 694 0 l 463 0 l 232 0 l 115 0 l 115 115 l 115 232 l 115 347 l 115 463 l 115 579 l 115 694 l 115 810 z "},"ļ":{"ha":694,"x_min":232,"x_max":579,"o":"m 232 -347 l 232 -232 l 347 -232 l 347 -115 l 463 -115 l 463 -232 l 347 -232 l 347 -347 l 232 -347 m 347 1042 l 463 1042 l 463 926 l 463 810 l 463 694 l 463 579 l 463 463 l 463 347 l 463 232 l 463 115 l 579 115 l 579 0 l 347 0 l 347 115 l 347 232 l 347 347 l 347 463 l 347 579 l 347 694 l 347 810 l 347 926 l 232 926 l 232 1042 l 347 1042 z "},"Ľ":{"ha":694,"x_min":115,"x_max":694,"o":"m 347 810 l 347 926 l 347 1042 l 463 1042 l 463 926 l 463 810 l 347 810 m 115 810 l 115 926 l 232 926 l 232 810 l 232 694 l 232 579 l 232 463 l 232 347 l 232 232 l 232 115 l 347 115 l 463 115 l 579 115 l 694 115 l 694 0 l 463 0 l 232 0 l 115 0 l 115 115 l 115 232 l 115 347 l 115 463 l 115 579 l 115 694 l 115 810 z "},"ľ":{"ha":694,"x_min":232,"x_max":694,"o":"m 579 926 l 579 1042 l 579 1157 l 694 1157 l 694 1042 l 694 926 l 579 926 m 347 1042 l 463 1042 l 463 926 l 463 810 l 463 694 l 463 579 l 463 463 l 463 347 l 463 232 l 463 115 l 579 115 l 579 0 l 347 0 l 347 115 l 347 232 l 347 347 l 347 463 l 347 579 l 347 694 l 347 810 l 347 926 l 232 926 l 232 1042 l 347 1042 z "},"Ŀ":{"ha":694,"x_min":115,"x_max":694,"o":"m 347 463 l 347 579 l 463 579 l 463 463 l 347 463 m 115 810 l 115 926 l 232 926 l 232 810 l 232 694 l 232 579 l 232 463 l 232 347 l 232 232 l 232 115 l 347 115 l 463 115 l 579 115 l 694 115 l 694 0 l 463 0 l 232 0 l 115 0 l 115 115 l 115 232 l 115 347 l 115 463 l 115 579 l 115 694 l 115 810 z "},"ŀ":{"ha":694,"x_min":232,"x_max":694,"o":"m 579 463 l 579 579 l 694 579 l 694 463 l 579 463 m 347 1042 l 463 1042 l 463 926 l 463 810 l 463 694 l 463 579 l 463 463 l 463 347 l 463 232 l 463 115 l 579 115 l 579 0 l 347 0 l 347 115 l 347 232 l 347 347 l 347 463 l 347 579 l 347 694 l 347 810 l 347 926 l 232 926 l 232 1042 l 347 1042 z "},"Ł":{"ha":694,"x_min":115,"x_max":694,"o":"m 232 810 l 232 926 l 347 926 l 347 810 l 347 694 l 347 579 l 463 579 l 463 694 l 579 694 l 579 579 l 463 579 l 463 463 l 347 463 l 347 347 l 347 232 l 347 115 l 463 115 l 579 115 l 694 115 l 694 0 l 463 0 l 232 0 l 232 115 l 232 232 l 115 232 l 115 347 l 232 347 l 232 463 l 232 579 l 232 694 l 232 810 z "},"ł":{"ha":694,"x_min":232,"x_max":579,"o":"m 347 1042 l 463 1042 l 463 926 l 463 810 l 463 694 l 579 694 l 579 579 l 463 579 l 463 463 l 463 347 l 463 232 l 463 115 l 579 115 l 579 0 l 347 0 l 347 115 l 347 232 l 347 347 l 347 463 l 232 463 l 232 579 l 347 579 l 347 694 l 347 810 l 347 926 l 232 926 l 232 1042 l 347 1042 z "},"Ń":{"ha":694,"x_min":115,"x_max":694,"o":"m 347 926 l 347 1042 l 463 1042 l 463 1157 l 579 1157 l 579 1042 l 463 1042 l 463 926 l 347 926 m 579 0 l 579 115 l 463 115 l 463 232 l 463 347 l 347 347 l 347 463 l 232 463 l 232 347 l 232 232 l 232 115 l 232 0 l 115 0 l 115 115 l 115 232 l 115 347 l 115 463 l 115 579 l 115 694 l 115 810 l 232 810 l 232 694 l 347 694 l 347 579 l 347 463 l 463 463 l 463 347 l 579 347 l 579 463 l 579 579 l 579 694 l 579 810 l 694 810 l 694 694 l 694 579 l 694 463 l 694 347 l 694 232 l 694 115 l 694 0 l 579 0 z "},"ń":{"ha":694,"x_min":115,"x_max":694,"o":"m 347 810 l 347 926 l 463 926 l 463 1042 l 579 1042 l 579 926 l 463 926 l 463 810 l 347 810 m 579 0 l 579 115 l 579 232 l 579 347 l 579 463 l 579 579 l 463 579 l 347 579 l 232 579 l 232 463 l 232 347 l 232 232 l 232 115 l 232 0 l 115 0 l 115 115 l 115 232 l 115 347 l 115 463 l 115 579 l 115 694 l 232 694 l 347 694 l 463 694 l 579 694 l 579 579 l 694 579 l 694 463 l 694 347 l 694 232 l 694 115 l 694 0 l 579 0 z "},"Ņ":{"ha":694,"x_min":115,"x_max":694,"o":"m 579 0 l 579 115 l 463 115 l 463 232 l 463 347 l 347 347 l 347 463 l 347 579 l 232 579 l 232 463 l 232 347 l 232 232 l 232 115 l 232 0 l 115 0 l 115 115 l 115 232 l 115 347 l 115 463 l 115 579 l 115 694 l 115 810 l 115 926 l 232 926 l 232 810 l 347 810 l 347 694 l 347 579 l 463 579 l 463 463 l 463 347 l 579 347 l 579 463 l 579 579 l 579 694 l 579 810 l 579 926 l 694 926 l 694 810 l 694 694 l 694 579 l 694 463 l 694 347 l 694 232 l 694 115 l 694 0 l 579 0 m 232 -347 l 232 -232 l 347 -232 l 347 -115 l 463 -115 l 463 -232 l 347 -232 l 347 -347 l 232 -347 z "},"ņ":{"ha":694,"x_min":115,"x_max":694,"o":"m 579 0 l 579 115 l 579 232 l 579 347 l 579 463 l 579 579 l 463 579 l 347 579 l 232 579 l 232 463 l 232 347 l 232 232 l 232 115 l 232 0 l 115 0 l 115 115 l 115 232 l 115 347 l 115 463 l 115 579 l 115 694 l 232 694 l 347 694 l 463 694 l 579 694 l 579 579 l 694 579 l 694 463 l 694 347 l 694 232 l 694 115 l 694 0 l 579 0 m 232 -232 l 232 -115 l 347 -115 l 347 0 l 463 0 l 463 -115 l 347 -115 l 347 -232 l 232 -232 z "},"Ň":{"ha":694,"x_min":115,"x_max":694,"o":"m 347 926 l 347 1042 l 232 1042 l 232 1157 l 347 1157 l 347 1042 l 463 1042 l 463 1157 l 579 1157 l 579 1042 l 463 1042 l 463 926 l 347 926 m 579 0 l 579 115 l 463 115 l 463 232 l 463 347 l 347 347 l 347 463 l 347 579 l 232 579 l 232 463 l 232 347 l 232 232 l 232 115 l 232 0 l 115 0 l 115 115 l 115 232 l 115 347 l 115 463 l 115 579 l 115 694 l 115 810 l 115 926 l 232 926 l 232 810 l 347 810 l 347 694 l 347 579 l 463 579 l 463 463 l 463 347 l 579 347 l 579 463 l 579 579 l 579 694 l 579 810 l 579 926 l 694 926 l 694 810 l 694 694 l 694 579 l 694 463 l 694 347 l 694 232 l 694 115 l 694 0 l 579 0 z "},"ň":{"ha":694,"x_min":115,"x_max":694,"o":"m 347 810 l 347 926 l 232 926 l 232 1042 l 347 1042 l 347 926 l 463 926 l 463 1042 l 579 1042 l 579 926 l 463 926 l 463 810 l 347 810 m 579 0 l 579 115 l 579 232 l 579 347 l 579 463 l 579 579 l 463 579 l 347 579 l 232 579 l 232 463 l 232 347 l 232 232 l 232 115 l 232 0 l 115 0 l 115 115 l 115 232 l 115 347 l 115 463 l 115 579 l 115 694 l 232 694 l 347 694 l 463 694 l 579 694 l 579 579 l 694 579 l 694 463 l 694 347 l 694 232 l 694 115 l 694 0 l 579 0 z "},"ŉ":{"ha":694,"x_min":0,"x_max":694,"o":"m 0 810 l 0 926 l 115 926 l 115 1042 l 0 1042 l 0 1157 l 115 1157 l 232 1157 l 232 1042 l 232 926 l 115 926 l 115 810 l 0 810 m 579 0 l 579 115 l 579 232 l 579 347 l 579 463 l 579 579 l 463 579 l 347 579 l 232 579 l 232 463 l 232 347 l 232 232 l 232 115 l 232 0 l 115 0 l 115 115 l 115 232 l 115 347 l 115 463 l 115 579 l 115 694 l 232 694 l 347 694 l 463 694 l 579 694 l 579 579 l 694 579 l 694 463 l 694 347 l 694 232 l 694 115 l 694 0 l 579 0 z "},"Ŋ":{"ha":694,"x_min":115,"x_max":694,"o":"m 115 0 l 115 115 l 115 232 l 115 347 l 115 463 l 115 579 l 115 694 l 115 810 l 115 926 l 232 926 l 232 810 l 347 810 l 347 926 l 463 926 l 579 926 l 579 810 l 463 810 l 347 810 l 347 694 l 232 694 l 232 579 l 232 463 l 232 347 l 232 232 l 232 115 l 232 0 l 115 0 m 463 -232 l 463 -115 l 579 -115 l 579 0 l 579 115 l 579 232 l 579 347 l 579 463 l 579 579 l 579 694 l 579 810 l 694 810 l 694 694 l 694 579 l 694 463 l 694 347 l 694 232 l 694 115 l 694 0 l 694 -115 l 579 -115 l 579 -232 l 463 -232 z "},"ŋ":{"ha":694,"x_min":115,"x_max":694,"o":"m 115 0 l 115 115 l 115 232 l 115 347 l 115 463 l 115 579 l 115 694 l 232 694 l 232 579 l 347 579 l 347 694 l 463 694 l 579 694 l 579 579 l 463 579 l 347 579 l 347 463 l 232 463 l 232 347 l 232 232 l 232 115 l 232 0 l 115 0 m 463 -232 l 463 -115 l 579 -115 l 579 0 l 579 115 l 579 232 l 579 347 l 579 463 l 579 579 l 694 579 l 694 463 l 694 347 l 694 232 l 694 115 l 694 0 l 694 -115 l 579 -115 l 579 -232 l 463 -232 z "},"Ō":{"ha":694,"x_min":115,"x_max":694,"o":"m 463 1157 l 579 1157 l 579 1042 l 463 1042 l 347 1042 l 232 1042 l 232 1157 l 347 1157 l 463 1157 m 463 926 l 579 926 l 579 810 l 463 810 l 347 810 l 232 810 l 232 926 l 347 926 l 463 926 m 579 810 l 694 810 l 694 694 l 694 579 l 694 463 l 694 347 l 694 232 l 694 115 l 579 115 l 579 232 l 579 347 l 579 463 l 579 579 l 579 694 l 579 810 m 232 810 l 232 694 l 232 579 l 232 463 l 232 347 l 232 232 l 232 115 l 115 115 l 115 232 l 115 347 l 115 463 l 115 579 l 115 694 l 115 810 l 232 810 m 579 115 l 579 0 l 347 0 l 232 0 l 232 115 l 347 115 l 463 115 l 579 115 z "},"ō":{"ha":694,"x_min":115,"x_max":694,"o":"m 463 926 l 579 926 l 579 810 l 463 810 l 347 810 l 232 810 l 232 926 l 347 926 l 463 926 m 463 694 l 579 694 l 579 579 l 463 579 l 347 579 l 232 579 l 232 694 l 347 694 l 463 694 m 579 579 l 694 579 l 694 463 l 694 347 l 694 232 l 694 115 l 579 115 l 579 232 l 579 347 l 579 463 l 579 579 m 232 579 l 232 463 l 232 347 l 232 232 l 232 115 l 115 115 l 115 232 l 115 347 l 115 463 l 115 579 l 232 579 m 579 115 l 579 0 l 347 0 l 232 0 l 232 115 l 347 115 l 463 115 l 579 115 z "},"Ŏ":{"ha":694,"x_min":115,"x_max":694,"o":"m 579 1042 l 579 926 l 463 926 l 347 926 l 232 926 l 232 1042 l 232 1157 l 347 1157 l 347 1042 l 463 1042 l 463 1157 l 579 1157 l 579 1042 m 463 810 l 579 810 l 579 694 l 463 694 l 347 694 l 232 694 l 232 810 l 347 810 l 463 810 m 579 694 l 694 694 l 694 579 l 694 463 l 694 347 l 694 232 l 694 115 l 579 115 l 579 232 l 579 347 l 579 463 l 579 579 l 579 694 m 232 694 l 232 579 l 232 463 l 232 347 l 232 232 l 232 115 l 115 115 l 115 232 l 115 347 l 115 463 l 115 579 l 115 694 l 232 694 m 579 115 l 579 0 l 347 0 l 232 0 l 232 115 l 347 115 l 463 115 l 579 115 z "},"ŏ":{"ha":694,"x_min":115,"x_max":694,"o":"m 579 926 l 579 810 l 463 810 l 347 810 l 232 810 l 232 926 l 232 1042 l 347 1042 l 347 926 l 463 926 l 463 1042 l 579 1042 l 579 926 m 463 694 l 579 694 l 579 579 l 463 579 l 347 579 l 232 579 l 232 694 l 347 694 l 463 694 m 579 579 l 694 579 l 694 463 l 694 347 l 694 232 l 694 115 l 579 115 l 579 232 l 579 347 l 579 463 l 579 579 m 232 579 l 232 463 l 232 347 l 232 232 l 232 115 l 115 115 l 115 232 l 115 347 l 115 463 l 115 579 l 232 579 m 579 115 l 579 0 l 347 0 l 232 0 l 232 115 l 347 115 l 463 115 l 579 115 z "},"Ő":{"ha":694,"x_min":115,"x_max":694,"o":"m 463 926 l 463 1042 l 579 1042 l 579 1157 l 694 1157 l 694 1042 l 579 1042 l 579 926 l 463 926 m 115 926 l 115 1042 l 232 1042 l 232 1157 l 347 1157 l 347 1042 l 232 1042 l 232 926 l 115 926 m 463 810 l 579 810 l 579 694 l 463 694 l 347 694 l 232 694 l 232 810 l 347 810 l 463 810 m 579 694 l 694 694 l 694 579 l 694 463 l 694 347 l 694 232 l 694 115 l 579 115 l 579 232 l 579 347 l 579 463 l 579 579 l 579 694 m 232 694 l 232 579 l 232 463 l 232 347 l 232 232 l 232 115 l 115 115 l 115 232 l 115 347 l 115 463 l 115 579 l 115 694 l 232 694 m 579 115 l 579 0 l 347 0 l 232 0 l 232 115 l 347 115 l 463 115 l 579 115 z "},"ő":{"ha":694,"x_min":115,"x_max":694,"o":"m 463 810 l 463 926 l 579 926 l 579 1042 l 694 1042 l 694 926 l 579 926 l 579 810 l 463 810 m 115 810 l 115 926 l 232 926 l 232 1042 l 347 1042 l 347 926 l 232 926 l 232 810 l 115 810 m 463 694 l 579 694 l 579 579 l 463 579 l 347 579 l 232 579 l 232 694 l 347 694 l 463 694 m 579 579 l 694 579 l 694 463 l 694 347 l 694 232 l 694 115 l 579 115 l 579 232 l 579 347 l 579 463 l 579 579 m 232 579 l 232 463 l 232 347 l 232 232 l 232 115 l 115 115 l 115 232 l 115 347 l 115 463 l 115 579 l 232 579 m 579 115 l 579 0 l 347 0 l 232 0 l 232 115 l 347 115 l 463 115 l 579 115 z "},"Œ":{"ha":694,"x_min":115,"x_max":694,"o":"m 579 926 l 694 926 l 694 810 l 579 810 l 463 810 l 463 694 l 463 579 l 579 579 l 579 463 l 463 463 l 463 347 l 463 232 l 463 115 l 579 115 l 694 115 l 694 0 l 463 0 l 232 0 l 232 115 l 115 115 l 115 232 l 115 347 l 115 463 l 115 579 l 115 694 l 115 810 l 232 810 l 232 694 l 232 579 l 232 463 l 232 347 l 232 232 l 232 115 l 347 115 l 347 232 l 347 347 l 347 463 l 347 579 l 347 694 l 347 810 l 232 810 l 232 926 l 347 926 l 463 926 l 579 926 z "},"œ":{"ha":694,"x_min":115,"x_max":694,"o":"m 463 0 l 463 115 l 347 115 l 347 232 l 347 347 l 347 463 l 347 579 l 232 579 l 232 694 l 347 694 l 347 579 l 463 579 l 463 463 l 579 463 l 579 579 l 463 579 l 463 694 l 579 694 l 579 579 l 694 579 l 694 463 l 694 347 l 579 347 l 463 347 l 463 232 l 463 115 l 579 115 l 579 232 l 694 232 l 694 115 l 579 115 l 579 0 l 463 0 m 232 0 l 232 115 l 115 115 l 115 232 l 115 347 l 115 463 l 115 579 l 232 579 l 232 463 l 232 347 l 232 232 l 232 115 l 347 115 l 347 0 l 232 0 z "},"Ŕ":{"ha":694,"x_min":115,"x_max":694,"o":"m 347 926 l 347 1042 l 463 1042 l 463 1157 l 579 1157 l 579 1042 l 463 1042 l 463 926 l 347 926 m 579 0 l 579 115 l 579 232 l 463 232 l 463 347 l 347 347 l 232 347 l 232 232 l 232 115 l 232 0 l 115 0 l 115 115 l 115 232 l 115 347 l 115 463 l 115 579 l 115 694 l 115 810 l 232 810 l 347 810 l 463 810 l 579 810 l 579 694 l 694 694 l 694 579 l 694 463 l 579 463 l 579 347 l 579 232 l 694 232 l 694 115 l 694 0 l 579 0 m 463 694 l 347 694 l 232 694 l 232 579 l 232 463 l 347 463 l 463 463 l 579 463 l 579 579 l 579 694 l 463 694 z "},"ŕ":{"ha":694,"x_min":115,"x_max":694,"o":"m 347 810 l 347 926 l 463 926 l 463 1042 l 579 1042 l 579 926 l 463 926 l 463 810 l 347 810 m 579 463 l 579 579 l 463 579 l 347 579 l 232 579 l 232 463 l 232 347 l 232 232 l 232 115 l 232 0 l 115 0 l 115 115 l 115 232 l 115 347 l 115 463 l 115 579 l 115 694 l 232 694 l 347 694 l 463 694 l 579 694 l 579 579 l 694 579 l 694 463 l 579 463 z "},"Ŗ":{"ha":694,"x_min":115,"x_max":694,"o":"m 579 0 l 579 115 l 579 232 l 579 347 l 463 347 l 463 463 l 347 463 l 232 463 l 232 347 l 232 232 l 232 115 l 232 0 l 115 0 l 115 115 l 115 232 l 115 347 l 115 463 l 115 579 l 115 694 l 115 810 l 115 926 l 232 926 l 347 926 l 463 926 l 579 926 l 579 810 l 694 810 l 694 694 l 694 579 l 579 579 l 579 463 l 579 347 l 694 347 l 694 232 l 694 115 l 694 0 l 579 0 m 232 -232 l 232 -115 l 347 -115 l 347 0 l 463 0 l 463 -115 l 347 -115 l 347 -232 l 232 -232 m 463 810 l 347 810 l 232 810 l 232 694 l 232 579 l 347 579 l 463 579 l 579 579 l 579 694 l 579 810 l 463 810 z "},"ŗ":{"ha":694,"x_min":0,"x_max":694,"o":"m 579 463 l 579 579 l 463 579 l 347 579 l 232 579 l 232 463 l 232 347 l 232 232 l 232 115 l 232 0 l 115 0 l 115 115 l 115 232 l 115 347 l 115 463 l 115 579 l 115 694 l 232 694 l 347 694 l 463 694 l 579 694 l 579 579 l 694 579 l 694 463 l 579 463 m 0 -347 l 0 -232 l 115 -232 l 115 -115 l 232 -115 l 232 -232 l 115 -232 l 115 -347 l 0 -347 z "},"Ř":{"ha":694,"x_min":115,"x_max":694,"o":"m 579 0 l 579 115 l 579 232 l 463 232 l 463 347 l 347 347 l 232 347 l 232 232 l 232 115 l 232 0 l 115 0 l 115 115 l 115 232 l 115 347 l 115 463 l 115 579 l 115 694 l 115 810 l 232 810 l 347 810 l 463 810 l 579 810 l 579 694 l 694 694 l 694 579 l 694 463 l 579 463 l 579 347 l 579 232 l 694 232 l 694 115 l 694 0 l 579 0 m 579 1042 l 579 926 l 463 926 l 347 926 l 232 926 l 232 1042 l 232 1157 l 347 1157 l 347 1042 l 463 1042 l 463 1157 l 579 1157 l 579 1042 m 463 694 l 347 694 l 232 694 l 232 579 l 232 463 l 347 463 l 463 463 l 579 463 l 579 579 l 579 694 l 463 694 z "},"ř":{"ha":694,"x_min":115,"x_max":694,"o":"m 579 463 l 579 579 l 463 579 l 347 579 l 232 579 l 232 463 l 232 347 l 232 232 l 232 115 l 232 0 l 115 0 l 115 115 l 115 232 l 115 347 l 115 463 l 115 579 l 115 694 l 232 694 l 347 694 l 463 694 l 579 694 l 579 579 l 694 579 l 694 463 l 579 463 m 579 926 l 579 810 l 463 810 l 347 810 l 232 810 l 232 926 l 232 1042 l 347 1042 l 347 926 l 463 926 l 463 1042 l 579 1042 l 579 926 z "},"Ś":{"ha":694,"x_min":115,"x_max":694,"o":"m 347 926 l 347 1042 l 463 1042 l 463 1157 l 579 1157 l 579 1042 l 463 1042 l 463 926 l 347 926 m 579 579 l 579 694 l 463 694 l 347 694 l 232 694 l 232 810 l 347 810 l 463 810 l 579 810 l 579 694 l 694 694 l 694 579 l 579 579 m 232 694 l 232 579 l 232 463 l 115 463 l 115 579 l 115 694 l 232 694 m 463 463 l 579 463 l 579 347 l 463 347 l 347 347 l 232 347 l 232 463 l 347 463 l 463 463 m 579 347 l 694 347 l 694 232 l 694 115 l 579 115 l 579 232 l 579 347 m 579 115 l 579 0 l 347 0 l 232 0 l 232 115 l 115 115 l 115 232 l 232 232 l 232 115 l 347 115 l 463 115 l 579 115 z "},"ś":{"ha":694,"x_min":115,"x_max":694,"o":"m 347 810 l 347 926 l 463 926 l 463 1042 l 579 1042 l 579 926 l 463 926 l 463 810 l 347 810 m 579 694 l 694 694 l 694 579 l 579 579 l 463 579 l 347 579 l 232 579 l 232 694 l 347 694 l 463 694 l 579 694 m 232 579 l 232 463 l 115 463 l 115 579 l 232 579 m 463 463 l 579 463 l 579 347 l 463 347 l 347 347 l 232 347 l 232 463 l 347 463 l 463 463 m 579 347 l 694 347 l 694 232 l 694 115 l 579 115 l 579 232 l 579 347 m 579 115 l 579 0 l 347 0 l 115 0 l 115 115 l 232 115 l 347 115 l 463 115 l 579 115 z "},"Ŝ":{"ha":694,"x_min":115,"x_max":694,"o":"m 463 926 l 463 1042 l 347 1042 l 347 1157 l 463 1157 l 463 1042 l 579 1042 l 579 926 l 463 926 m 232 926 l 232 1042 l 347 1042 l 347 926 l 232 926 m 579 579 l 579 694 l 463 694 l 347 694 l 232 694 l 232 810 l 347 810 l 463 810 l 579 810 l 579 694 l 694 694 l 694 579 l 579 579 m 232 694 l 232 579 l 232 463 l 115 463 l 115 579 l 115 694 l 232 694 m 463 463 l 579 463 l 579 347 l 463 347 l 347 347 l 232 347 l 232 463 l 347 463 l 463 463 m 579 347 l 694 347 l 694 232 l 694 115 l 579 115 l 579 232 l 579 347 m 579 115 l 579 0 l 347 0 l 232 0 l 232 115 l 115 115 l 115 232 l 232 232 l 232 115 l 347 115 l 463 115 l 579 115 z "},"ŝ":{"ha":694,"x_min":115,"x_max":694,"o":"m 463 810 l 463 926 l 347 926 l 347 1042 l 463 1042 l 463 926 l 579 926 l 579 810 l 463 810 m 232 810 l 232 926 l 347 926 l 347 810 l 232 810 m 579 694 l 694 694 l 694 579 l 579 579 l 463 579 l 347 579 l 232 579 l 232 694 l 347 694 l 463 694 l 579 694 m 232 579 l 232 463 l 115 463 l 115 579 l 232 579 m 463 463 l 579 463 l 579 347 l 463 347 l 347 347 l 232 347 l 232 463 l 347 463 l 463 463 m 579 347 l 694 347 l 694 232 l 694 115 l 579 115 l 579 232 l 579 347 m 579 115 l 579 0 l 347 0 l 115 0 l 115 115 l 232 115 l 347 115 l 463 115 l 579 115 z "},"Ş":{"ha":694,"x_min":115,"x_max":694,"o":"m 579 694 l 579 810 l 463 810 l 347 810 l 232 810 l 232 926 l 347 926 l 463 926 l 579 926 l 579 810 l 694 810 l 694 694 l 579 694 m 232 810 l 232 694 l 232 579 l 115 579 l 115 694 l 115 810 l 232 810 m 463 579 l 579 579 l 579 463 l 463 463 l 347 463 l 232 463 l 232 579 l 347 579 l 463 579 m 579 463 l 694 463 l 694 347 l 694 232 l 694 115 l 579 115 l 579 232 l 579 347 l 579 463 m 579 115 l 579 0 l 463 0 l 463 -115 l 347 -115 l 347 0 l 232 0 l 232 115 l 115 115 l 115 232 l 232 232 l 232 115 l 347 115 l 463 115 l 579 115 m 463 -115 l 579 -115 l 579 -232 l 463 -232 l 463 -115 m 463 -232 l 463 -347 l 347 -347 l 232 -347 l 232 -232 l 347 -232 l 463 -232 z "},"ş":{"ha":694,"x_min":115,"x_max":694,"o":"m 579 694 l 694 694 l 694 579 l 579 579 l 463 579 l 347 579 l 232 579 l 232 694 l 347 694 l 463 694 l 579 694 m 232 579 l 232 463 l 115 463 l 115 579 l 232 579 m 463 463 l 579 463 l 579 347 l 463 347 l 347 347 l 232 347 l 232 463 l 347 463 l 463 463 m 579 347 l 694 347 l 694 232 l 694 115 l 579 115 l 579 232 l 579 347 m 579 115 l 579 0 l 463 0 l 463 -115 l 347 -115 l 347 0 l 115 0 l 115 115 l 232 115 l 347 115 l 463 115 l 579 115 m 463 -115 l 579 -115 l 579 -232 l 463 -232 l 463 -115 m 463 -232 l 463 -347 l 347 -347 l 232 -347 l 232 -232 l 347 -232 l 463 -232 z "},"Š":{"ha":694,"x_min":115,"x_max":694,"o":"m 347 926 l 347 1042 l 232 1042 l 232 1157 l 347 1157 l 347 1042 l 463 1042 l 463 1157 l 579 1157 l 579 1042 l 463 1042 l 463 926 l 347 926 m 579 579 l 579 694 l 463 694 l 347 694 l 232 694 l 232 810 l 347 810 l 463 810 l 579 810 l 579 694 l 694 694 l 694 579 l 579 579 m 232 694 l 232 579 l 232 463 l 115 463 l 115 579 l 115 694 l 232 694 m 463 463 l 579 463 l 579 347 l 463 347 l 347 347 l 232 347 l 232 463 l 347 463 l 463 463 m 579 347 l 694 347 l 694 232 l 694 115 l 579 115 l 579 232 l 579 347 m 579 115 l 579 0 l 347 0 l 232 0 l 232 115 l 115 115 l 115 232 l 232 232 l 232 115 l 347 115 l 463 115 l 579 115 z "},"š":{"ha":694,"x_min":115,"x_max":694,"o":"m 347 810 l 347 926 l 232 926 l 232 1042 l 347 1042 l 347 926 l 463 926 l 463 1042 l 579 1042 l 579 926 l 463 926 l 463 810 l 347 810 m 579 694 l 694 694 l 694 579 l 579 579 l 463 579 l 347 579 l 232 579 l 232 694 l 347 694 l 463 694 l 579 694 m 232 579 l 232 463 l 115 463 l 115 579 l 232 579 m 463 463 l 579 463 l 579 347 l 463 347 l 347 347 l 232 347 l 232 463 l 347 463 l 463 463 m 579 347 l 694 347 l 694 232 l 694 115 l 579 115 l 579 232 l 579 347 m 579 115 l 579 0 l 347 0 l 115 0 l 115 115 l 232 115 l 347 115 l 463 115 l 579 115 z "},"Ţ":{"ha":694,"x_min":115,"x_max":694,"o":"m 579 926 l 694 926 l 694 810 l 579 810 l 463 810 l 463 694 l 463 579 l 463 463 l 463 347 l 463 232 l 463 115 l 463 0 l 347 0 l 347 115 l 347 232 l 347 347 l 347 463 l 347 579 l 347 694 l 347 810 l 232 810 l 115 810 l 115 926 l 232 926 l 347 926 l 463 926 l 579 926 m 463 0 l 579 0 l 579 -115 l 463 -115 l 463 0 m 463 -115 l 463 -232 l 347 -232 l 232 -232 l 232 -115 l 347 -115 l 463 -115 z "},"ţ":{"ha":694,"x_min":115,"x_max":694,"o":"m 232 810 l 232 926 l 347 926 l 347 810 l 347 694 l 463 694 l 579 694 l 579 579 l 463 579 l 347 579 l 347 463 l 347 347 l 347 232 l 347 115 l 232 115 l 232 232 l 232 347 l 232 463 l 232 579 l 115 579 l 115 694 l 232 694 l 232 810 m 579 115 l 694 115 l 694 0 l 463 0 l 463 -115 l 347 -115 l 347 0 l 347 115 l 463 115 l 579 115 m 463 -115 l 579 -115 l 579 -232 l 463 -232 l 463 -115 m 463 -232 l 463 -347 l 347 -347 l 232 -347 l 232 -232 l 347 -232 l 463 -232 z "},"Ť":{"ha":694,"x_min":115,"x_max":694,"o":"m 347 926 l 347 1042 l 232 1042 l 232 1157 l 347 1157 l 347 1042 l 463 1042 l 463 1157 l 579 1157 l 579 1042 l 463 1042 l 463 926 l 347 926 m 347 0 l 347 115 l 347 232 l 347 347 l 347 463 l 347 579 l 347 694 l 232 694 l 115 694 l 115 810 l 232 810 l 347 810 l 463 810 l 579 810 l 694 810 l 694 694 l 579 694 l 463 694 l 463 579 l 463 463 l 463 347 l 463 232 l 463 115 l 463 0 l 347 0 z "},"ť":{"ha":694,"x_min":115,"x_max":694,"o":"m 463 810 l 463 926 l 463 1042 l 579 1042 l 579 926 l 579 810 l 463 810 m 232 810 l 232 926 l 347 926 l 347 810 l 347 694 l 463 694 l 579 694 l 579 579 l 463 579 l 347 579 l 347 463 l 347 347 l 347 232 l 347 115 l 232 115 l 232 232 l 232 347 l 232 463 l 232 579 l 115 579 l 115 694 l 232 694 l 232 810 m 579 115 l 694 115 l 694 0 l 463 0 l 347 0 l 347 115 l 463 115 l 579 115 z "},"Ŧ":{"ha":694,"x_min":115,"x_max":694,"o":"m 347 0 l 347 115 l 347 232 l 347 347 l 347 463 l 232 463 l 232 579 l 347 579 l 347 694 l 347 810 l 232 810 l 115 810 l 115 926 l 232 926 l 347 926 l 463 926 l 579 926 l 694 926 l 694 810 l 579 810 l 463 810 l 463 694 l 463 579 l 579 579 l 579 463 l 463 463 l 463 347 l 463 232 l 463 115 l 463 0 l 347 0 z "},"ŧ":{"ha":694,"x_min":115,"x_max":694,"o":"m 232 810 l 232 926 l 347 926 l 347 810 l 347 694 l 463 694 l 579 694 l 579 579 l 463 579 l 347 579 l 347 463 l 463 463 l 579 463 l 579 347 l 463 347 l 347 347 l 347 232 l 347 115 l 232 115 l 232 232 l 232 347 l 115 347 l 115 463 l 232 463 l 232 579 l 115 579 l 115 694 l 232 694 l 232 810 m 579 115 l 694 115 l 694 0 l 463 0 l 347 0 l 347 115 l 463 115 l 579 115 z "},"Ũ":{"ha":694,"x_min":115,"x_max":694,"o":"m 115 926 l 115 1042 l 232 1042 l 232 1157 l 347 1157 l 463 1157 l 463 1042 l 579 1042 l 579 1157 l 694 1157 l 694 1042 l 579 1042 l 579 926 l 463 926 l 347 926 l 347 1042 l 232 1042 l 232 926 l 115 926 m 579 694 l 579 810 l 694 810 l 694 694 l 694 579 l 694 463 l 694 347 l 694 232 l 694 115 l 579 115 l 579 232 l 579 347 l 579 463 l 579 579 l 579 694 m 115 694 l 115 810 l 232 810 l 232 694 l 232 579 l 232 463 l 232 347 l 232 232 l 232 115 l 115 115 l 115 232 l 115 347 l 115 463 l 115 579 l 115 694 m 579 115 l 579 0 l 347 0 l 232 0 l 232 115 l 347 115 l 463 115 l 579 115 z "},"ũ":{"ha":694,"x_min":115,"x_max":694,"o":"m 115 810 l 115 926 l 232 926 l 232 1042 l 347 1042 l 463 1042 l 463 926 l 579 926 l 579 1042 l 694 1042 l 694 926 l 579 926 l 579 810 l 463 810 l 347 810 l 347 926 l 232 926 l 232 810 l 115 810 m 579 579 l 579 694 l 694 694 l 694 579 l 694 463 l 694 347 l 694 232 l 694 115 l 694 0 l 463 0 l 232 0 l 232 115 l 115 115 l 115 232 l 115 347 l 115 463 l 115 579 l 115 694 l 232 694 l 232 579 l 232 463 l 232 347 l 232 232 l 232 115 l 347 115 l 463 115 l 579 115 l 579 232 l 579 347 l 579 463 l 579 579 z "},"Ū":{"ha":694,"x_min":115,"x_max":694,"o":"m 463 1157 l 579 1157 l 579 1042 l 463 1042 l 347 1042 l 232 1042 l 232 1157 l 347 1157 l 463 1157 m 579 810 l 579 926 l 694 926 l 694 810 l 694 694 l 694 579 l 694 463 l 694 347 l 694 232 l 694 115 l 579 115 l 579 232 l 579 347 l 579 463 l 579 579 l 579 694 l 579 810 m 115 810 l 115 926 l 232 926 l 232 810 l 232 694 l 232 579 l 232 463 l 232 347 l 232 232 l 232 115 l 115 115 l 115 232 l 115 347 l 115 463 l 115 579 l 115 694 l 115 810 m 579 115 l 579 0 l 347 0 l 232 0 l 232 115 l 347 115 l 463 115 l 579 115 z "},"ū":{"ha":694,"x_min":115,"x_max":694,"o":"m 463 926 l 579 926 l 579 810 l 463 810 l 347 810 l 232 810 l 232 926 l 347 926 l 463 926 m 579 579 l 579 694 l 694 694 l 694 579 l 694 463 l 694 347 l 694 232 l 694 115 l 694 0 l 463 0 l 232 0 l 232 115 l 115 115 l 115 232 l 115 347 l 115 463 l 115 579 l 115 694 l 232 694 l 232 579 l 232 463 l 232 347 l 232 232 l 232 115 l 347 115 l 463 115 l 579 115 l 579 232 l 579 347 l 579 463 l 579 579 z "},"Ŭ":{"ha":694,"x_min":115,"x_max":694,"o":"m 579 1042 l 579 926 l 463 926 l 347 926 l 232 926 l 232 1042 l 232 1157 l 347 1157 l 347 1042 l 463 1042 l 463 1157 l 579 1157 l 579 1042 m 579 694 l 579 810 l 694 810 l 694 694 l 694 579 l 694 463 l 694 347 l 694 232 l 694 115 l 579 115 l 579 232 l 579 347 l 579 463 l 579 579 l 579 694 m 115 694 l 115 810 l 232 810 l 232 694 l 232 579 l 232 463 l 232 347 l 232 232 l 232 115 l 115 115 l 115 232 l 115 347 l 115 463 l 115 579 l 115 694 m 579 115 l 579 0 l 347 0 l 232 0 l 232 115 l 347 115 l 463 115 l 579 115 z "},"ŭ":{"ha":694,"x_min":115,"x_max":694,"o":"m 579 926 l 579 810 l 463 810 l 347 810 l 232 810 l 232 926 l 232 1042 l 347 1042 l 347 926 l 463 926 l 463 1042 l 579 1042 l 579 926 m 579 579 l 579 694 l 694 694 l 694 579 l 694 463 l 694 347 l 694 232 l 694 115 l 694 0 l 463 0 l 232 0 l 232 115 l 115 115 l 115 232 l 115 347 l 115 463 l 115 579 l 115 694 l 232 694 l 232 579 l 232 463 l 232 347 l 232 232 l 232 115 l 347 115 l 463 115 l 579 115 l 579 232 l 579 347 l 579 463 l 579 579 z "},"Ů":{"ha":694,"x_min":115,"x_max":694,"o":"m 347 810 l 347 926 l 232 926 l 232 1042 l 347 1042 l 347 926 l 463 926 l 463 1042 l 347 1042 l 347 1157 l 463 1157 l 463 1042 l 579 1042 l 579 926 l 463 926 l 463 810 l 347 810 m 579 694 l 579 810 l 694 810 l 694 694 l 694 579 l 694 463 l 694 347 l 694 232 l 694 115 l 579 115 l 579 232 l 579 347 l 579 463 l 579 579 l 579 694 m 115 694 l 115 810 l 232 810 l 232 694 l 232 579 l 232 463 l 232 347 l 232 232 l 232 115 l 115 115 l 115 232 l 115 347 l 115 463 l 115 579 l 115 694 m 579 115 l 579 0 l 347 0 l 232 0 l 232 115 l 347 115 l 463 115 l 579 115 z "},"ů":{"ha":694,"x_min":115,"x_max":694,"o":"m 347 810 l 347 926 l 232 926 l 232 1042 l 347 1042 l 347 926 l 463 926 l 463 1042 l 347 1042 l 347 1157 l 463 1157 l 463 1042 l 579 1042 l 579 926 l 463 926 l 463 810 l 347 810 m 579 579 l 579 694 l 694 694 l 694 579 l 694 463 l 694 347 l 694 232 l 694 115 l 694 0 l 463 0 l 232 0 l 232 115 l 115 115 l 115 232 l 115 347 l 115 463 l 115 579 l 115 694 l 232 694 l 232 579 l 232 463 l 232 347 l 232 232 l 232 115 l 347 115 l 463 115 l 579 115 l 579 232 l 579 347 l 579 463 l 579 579 z "},"Ű":{"ha":694,"x_min":115,"x_max":694,"o":"m 463 926 l 463 1042 l 579 1042 l 579 1157 l 694 1157 l 694 1042 l 579 1042 l 579 926 l 463 926 m 115 926 l 115 1042 l 232 1042 l 232 1157 l 347 1157 l 347 1042 l 232 1042 l 232 926 l 115 926 m 579 694 l 579 810 l 694 810 l 694 694 l 694 579 l 694 463 l 694 347 l 694 232 l 694 115 l 579 115 l 579 232 l 579 347 l 579 463 l 579 579 l 579 694 m 115 694 l 115 810 l 232 810 l 232 694 l 232 579 l 232 463 l 232 347 l 232 232 l 232 115 l 115 115 l 115 232 l 115 347 l 115 463 l 115 579 l 115 694 m 579 115 l 579 0 l 347 0 l 232 0 l 232 115 l 347 115 l 463 115 l 579 115 z "},"ű":{"ha":694,"x_min":115,"x_max":694,"o":"m 463 810 l 463 926 l 579 926 l 579 1042 l 694 1042 l 694 926 l 579 926 l 579 810 l 463 810 m 115 810 l 115 926 l 232 926 l 232 1042 l 347 1042 l 347 926 l 232 926 l 232 810 l 115 810 m 579 579 l 579 694 l 694 694 l 694 579 l 694 463 l 694 347 l 694 232 l 694 115 l 694 0 l 463 0 l 232 0 l 232 115 l 115 115 l 115 232 l 115 347 l 115 463 l 115 579 l 115 694 l 232 694 l 232 579 l 232 463 l 232 347 l 232 232 l 232 115 l 347 115 l 463 115 l 579 115 l 579 232 l 579 347 l 579 463 l 579 579 z "},"Ų":{"ha":694,"x_min":115,"x_max":694,"o":"m 579 810 l 579 926 l 694 926 l 694 810 l 694 694 l 694 579 l 694 463 l 694 347 l 694 232 l 694 115 l 579 115 l 579 232 l 579 347 l 579 463 l 579 579 l 579 694 l 579 810 m 115 810 l 115 926 l 232 926 l 232 810 l 232 694 l 232 579 l 232 463 l 232 347 l 232 232 l 232 115 l 115 115 l 115 232 l 115 347 l 115 463 l 115 579 l 115 694 l 115 810 m 579 115 l 579 0 l 463 0 l 463 -115 l 579 -115 l 579 -232 l 463 -232 l 347 -232 l 347 -115 l 347 0 l 232 0 l 232 115 l 347 115 l 463 115 l 579 115 z "},"ų":{"ha":694,"x_min":115,"x_max":694,"o":"m 579 579 l 579 694 l 694 694 l 694 579 l 694 463 l 694 347 l 694 232 l 694 115 l 694 0 l 579 0 l 579 -115 l 694 -115 l 694 -232 l 579 -232 l 463 -232 l 463 -115 l 463 0 l 232 0 l 232 115 l 115 115 l 115 232 l 115 347 l 115 463 l 115 579 l 115 694 l 232 694 l 232 579 l 232 463 l 232 347 l 232 232 l 232 115 l 347 115 l 463 115 l 579 115 l 579 232 l 579 347 l 579 463 l 579 579 z "},"Ŵ":{"ha":694,"x_min":115,"x_max":694,"o":"m 463 926 l 463 1042 l 347 1042 l 347 1157 l 463 1157 l 463 1042 l 579 1042 l 579 926 l 463 926 m 232 926 l 232 1042 l 347 1042 l 347 926 l 232 926 m 463 0 l 463 115 l 463 232 l 347 232 l 347 115 l 347 0 l 232 0 l 232 115 l 232 232 l 232 347 l 115 347 l 115 463 l 115 579 l 115 694 l 115 810 l 232 810 l 232 694 l 232 579 l 232 463 l 232 347 l 347 347 l 347 463 l 347 579 l 463 579 l 463 463 l 463 347 l 579 347 l 579 463 l 579 579 l 579 694 l 579 810 l 694 810 l 694 694 l 694 579 l 694 463 l 694 347 l 579 347 l 579 232 l 579 115 l 579 0 l 463 0 z "},"ŵ":{"ha":694,"x_min":115,"x_max":694,"o":"m 463 810 l 463 926 l 347 926 l 347 1042 l 463 1042 l 463 926 l 579 926 l 579 810 l 463 810 m 232 810 l 232 926 l 347 926 l 347 810 l 232 810 m 463 0 l 463 115 l 463 232 l 347 232 l 347 347 l 347 463 l 463 463 l 463 347 l 463 232 l 579 232 l 579 347 l 579 463 l 579 579 l 579 694 l 694 694 l 694 579 l 694 463 l 694 347 l 694 232 l 579 232 l 579 115 l 579 0 l 463 0 m 232 0 l 232 115 l 232 232 l 115 232 l 115 347 l 115 463 l 115 579 l 115 694 l 232 694 l 232 579 l 232 463 l 232 347 l 232 232 l 347 232 l 347 115 l 347 0 l 232 0 z "},"Ŷ":{"ha":694,"x_min":115,"x_max":694,"o":"m 463 926 l 463 1042 l 347 1042 l 347 1157 l 463 1157 l 463 1042 l 579 1042 l 579 926 l 463 926 m 232 926 l 232 1042 l 347 1042 l 347 926 l 232 926 m 347 0 l 347 115 l 347 232 l 347 347 l 232 347 l 232 463 l 115 463 l 115 579 l 115 694 l 115 810 l 232 810 l 232 694 l 232 579 l 232 463 l 347 463 l 347 347 l 463 347 l 463 463 l 579 463 l 579 579 l 579 694 l 579 810 l 694 810 l 694 694 l 694 579 l 694 463 l 579 463 l 579 347 l 463 347 l 463 232 l 463 115 l 463 0 l 347 0 z "},"ŷ":{"ha":694,"x_min":115,"x_max":694,"o":"m 463 810 l 463 926 l 347 926 l 347 1042 l 463 1042 l 463 926 l 579 926 l 579 810 l 463 810 m 232 810 l 232 926 l 347 926 l 347 810 l 232 810 m 579 579 l 579 694 l 694 694 l 694 579 l 694 463 l 694 347 l 694 232 l 694 115 l 694 0 l 694 -115 l 694 -232 l 579 -232 l 579 -115 l 579 0 l 347 0 l 232 0 l 232 115 l 115 115 l 115 232 l 115 347 l 115 463 l 115 579 l 115 694 l 232 694 l 232 579 l 232 463 l 232 347 l 232 232 l 232 115 l 347 115 l 463 115 l 579 115 l 579 232 l 579 347 l 579 463 l 579 579 m 579 -232 l 579 -347 l 463 -347 l 347 -347 l 232 -347 l 232 -232 l 347 -232 l 463 -232 l 579 -232 z "},"Ÿ":{"ha":694,"x_min":115,"x_max":694,"o":"m 463 926 l 463 1042 l 579 1042 l 579 926 l 463 926 m 232 926 l 232 1042 l 347 1042 l 347 926 l 232 926 m 347 0 l 347 115 l 347 232 l 347 347 l 232 347 l 232 463 l 115 463 l 115 579 l 115 694 l 115 810 l 232 810 l 232 694 l 232 579 l 232 463 l 347 463 l 347 347 l 463 347 l 463 463 l 579 463 l 579 579 l 579 694 l 579 810 l 694 810 l 694 694 l 694 579 l 694 463 l 579 463 l 579 347 l 463 347 l 463 232 l 463 115 l 463 0 l 347 0 z "},"Ź":{"ha":694,"x_min":115,"x_max":694,"o":"m 347 926 l 347 1042 l 463 1042 l 463 1157 l 579 1157 l 579 1042 l 463 1042 l 463 926 l 347 926 m 579 810 l 694 810 l 694 694 l 694 579 l 579 579 l 579 694 l 463 694 l 347 694 l 232 694 l 115 694 l 115 810 l 232 810 l 347 810 l 463 810 l 579 810 m 579 579 l 579 463 l 463 463 l 463 579 l 579 579 m 463 463 l 463 347 l 347 347 l 347 463 l 463 463 m 347 347 l 347 232 l 232 232 l 232 347 l 347 347 m 232 232 l 232 115 l 347 115 l 463 115 l 579 115 l 694 115 l 694 0 l 463 0 l 232 0 l 115 0 l 115 115 l 115 232 l 232 232 z "},"ź":{"ha":694,"x_min":115,"x_max":694,"o":"m 347 810 l 347 926 l 463 926 l 463 1042 l 579 1042 l 579 926 l 463 926 l 463 810 l 347 810 m 579 694 l 694 694 l 694 579 l 579 579 l 579 463 l 463 463 l 463 579 l 347 579 l 232 579 l 115 579 l 115 694 l 232 694 l 347 694 l 463 694 l 579 694 m 463 463 l 463 347 l 347 347 l 347 463 l 463 463 m 347 347 l 347 232 l 232 232 l 232 347 l 347 347 m 232 232 l 232 115 l 347 115 l 463 115 l 579 115 l 694 115 l 694 0 l 463 0 l 232 0 l 115 0 l 115 115 l 115 232 l 232 232 z "},"Ż":{"ha":694,"x_min":115,"x_max":694,"o":"m 347 1042 l 347 1157 l 463 1157 l 463 1042 l 347 1042 m 579 926 l 694 926 l 694 810 l 579 810 l 579 694 l 463 694 l 463 810 l 347 810 l 232 810 l 115 810 l 115 926 l 232 926 l 347 926 l 463 926 l 579 926 m 463 694 l 463 579 l 463 463 l 347 463 l 347 579 l 347 694 l 463 694 m 347 463 l 347 347 l 347 232 l 232 232 l 232 347 l 232 463 l 347 463 m 232 232 l 232 115 l 347 115 l 463 115 l 579 115 l 694 115 l 694 0 l 463 0 l 232 0 l 115 0 l 115 115 l 115 232 l 232 232 z "},"ż":{"ha":694,"x_min":115,"x_max":694,"o":"m 347 810 l 347 926 l 463 926 l 463 810 l 347 810 m 579 694 l 694 694 l 694 579 l 579 579 l 579 463 l 463 463 l 463 579 l 347 579 l 232 579 l 115 579 l 115 694 l 232 694 l 347 694 l 463 694 l 579 694 m 463 463 l 463 347 l 347 347 l 347 463 l 463 463 m 347 347 l 347 232 l 232 232 l 232 347 l 347 347 m 232 232 l 232 115 l 347 115 l 463 115 l 579 115 l 694 115 l 694 0 l 463 0 l 232 0 l 115 0 l 115 115 l 115 232 l 232 232 z "},"Ž":{"ha":694,"x_min":115,"x_max":694,"o":"m 347 926 l 347 1042 l 232 1042 l 232 1157 l 347 1157 l 347 1042 l 463 1042 l 463 1157 l 579 1157 l 579 1042 l 463 1042 l 463 926 l 347 926 m 579 810 l 694 810 l 694 694 l 694 579 l 579 579 l 579 694 l 463 694 l 347 694 l 232 694 l 115 694 l 115 810 l 232 810 l 347 810 l 463 810 l 579 810 m 579 579 l 579 463 l 463 463 l 463 579 l 579 579 m 463 463 l 463 347 l 347 347 l 347 463 l 463 463 m 347 347 l 347 232 l 232 232 l 232 347 l 347 347 m 232 232 l 232 115 l 347 115 l 463 115 l 579 115 l 694 115 l 694 0 l 463 0 l 232 0 l 115 0 l 115 115 l 115 232 l 232 232 z "},"ž":{"ha":694,"x_min":115,"x_max":694,"o":"m 347 810 l 347 926 l 232 926 l 232 1042 l 347 1042 l 347 926 l 463 926 l 463 1042 l 579 1042 l 579 926 l 463 926 l 463 810 l 347 810 m 579 694 l 694 694 l 694 579 l 579 579 l 579 463 l 463 463 l 463 579 l 347 579 l 232 579 l 115 579 l 115 694 l 232 694 l 347 694 l 463 694 l 579 694 m 463 463 l 463 347 l 347 347 l 347 463 l 463 463 m 347 347 l 347 232 l 232 232 l 232 347 l 347 347 m 232 232 l 232 115 l 347 115 l 463 115 l 579 115 l 694 115 l 694 0 l 463 0 l 232 0 l 115 0 l 115 115 l 115 232 l 232 232 z "},"ſ":{"ha":694,"x_min":232,"x_max":694,"o":"m 347 0 l 347 115 l 347 232 l 347 347 l 347 463 l 347 579 l 232 579 l 232 694 l 347 694 l 347 810 l 463 810 l 463 926 l 579 926 l 694 926 l 694 810 l 579 810 l 463 810 l 463 694 l 463 579 l 463 463 l 463 347 l 463 232 l 463 115 l 463 0 l 347 0 z "},"ƀ":{"ha":694,"x_min":115,"x_max":694,"o":"m 463 926 l 579 926 l 579 810 l 463 810 l 347 810 l 232 810 l 232 694 l 347 694 l 463 694 l 579 694 l 579 579 l 694 579 l 694 463 l 694 347 l 694 232 l 694 115 l 579 115 l 579 0 l 347 0 l 115 0 l 115 115 l 115 232 l 115 347 l 115 463 l 115 579 l 115 694 l 115 810 l 115 926 l 115 1042 l 232 1042 l 232 926 l 347 926 l 463 926 m 463 579 l 347 579 l 232 579 l 232 463 l 232 347 l 232 232 l 232 115 l 347 115 l 463 115 l 579 115 l 579 232 l 579 347 l 579 463 l 579 579 l 463 579 z "},"Ɓ":{"ha":694,"x_min":115,"x_max":694,"o":"m 463 926 l 579 926 l 579 810 l 694 810 l 694 694 l 694 579 l 579 579 l 579 463 l 694 463 l 694 347 l 694 232 l 694 115 l 579 115 l 579 0 l 347 0 l 232 0 l 232 115 l 232 232 l 232 347 l 232 463 l 232 579 l 232 694 l 232 810 l 115 810 l 115 926 l 232 926 l 347 926 l 463 926 m 463 810 l 347 810 l 347 694 l 347 579 l 463 579 l 579 579 l 579 694 l 579 810 l 463 810 m 463 463 l 347 463 l 347 347 l 347 232 l 347 115 l 463 115 l 579 115 l 579 232 l 579 347 l 579 463 l 463 463 z "},"Ƃ":{"ha":694,"x_min":115,"x_max":694,"o":"m 579 694 l 579 810 l 463 810 l 347 810 l 232 810 l 232 694 l 232 579 l 347 579 l 463 579 l 579 579 l 579 463 l 694 463 l 694 347 l 694 232 l 694 115 l 579 115 l 579 0 l 347 0 l 115 0 l 115 115 l 115 232 l 115 347 l 115 463 l 115 579 l 115 694 l 115 810 l 115 926 l 232 926 l 347 926 l 463 926 l 579 926 l 694 926 l 694 810 l 694 694 l 579 694 m 463 463 l 347 463 l 232 463 l 232 347 l 232 232 l 232 115 l 347 115 l 463 115 l 579 115 l 579 232 l 579 347 l 579 463 l 463 463 z "},"ƃ":{"ha":694,"x_min":115,"x_max":694,"o":"m 463 810 l 463 926 l 347 926 l 232 926 l 232 810 l 232 694 l 347 694 l 463 694 l 579 694 l 579 579 l 694 579 l 694 463 l 694 347 l 694 232 l 694 115 l 579 115 l 579 0 l 347 0 l 115 0 l 115 115 l 115 232 l 115 347 l 115 463 l 115 579 l 115 694 l 115 810 l 115 926 l 115 1042 l 232 1042 l 347 1042 l 463 1042 l 579 1042 l 579 926 l 579 810 l 463 810 m 463 579 l 347 579 l 232 579 l 232 463 l 232 347 l 232 232 l 232 115 l 347 115 l 463 115 l 579 115 l 579 232 l 579 347 l 579 463 l 579 579 l 463 579 z "},"Ƅ":{"ha":694,"x_min":115,"x_max":694,"o":"m 347 810 l 347 694 l 347 579 l 463 579 l 579 579 l 579 463 l 694 463 l 694 347 l 694 232 l 694 115 l 579 115 l 579 0 l 347 0 l 232 0 l 232 115 l 232 232 l 232 347 l 232 463 l 232 579 l 232 694 l 115 694 l 115 810 l 232 810 l 232 926 l 347 926 l 347 810 m 463 463 l 347 463 l 347 347 l 347 232 l 347 115 l 463 115 l 579 115 l 579 232 l 579 347 l 579 463 l 463 463 z "},"ƅ":{"ha":694,"x_min":115,"x_max":694,"o":"m 347 926 l 347 810 l 347 694 l 463 694 l 579 694 l 579 579 l 694 579 l 694 463 l 694 347 l 694 232 l 694 115 l 579 115 l 579 0 l 347 0 l 232 0 l 232 115 l 232 232 l 232 347 l 232 463 l 232 579 l 232 694 l 232 810 l 115 810 l 115 926 l 232 926 l 232 1042 l 347 1042 l 347 926 m 463 579 l 347 579 l 347 463 l 347 347 l 347 232 l 347 115 l 463 115 l 579 115 l 579 232 l 579 347 l 579 463 l 579 579 l 463 579 z "},"Ɔ":{"ha":694,"x_min":115,"x_max":694,"o":"m 115 694 l 115 810 l 232 810 l 232 926 l 347 926 l 463 926 l 579 926 l 579 810 l 463 810 l 347 810 l 232 810 l 232 694 l 115 694 m 579 810 l 694 810 l 694 694 l 694 579 l 694 463 l 694 347 l 694 232 l 694 115 l 579 115 l 579 232 l 579 347 l 579 463 l 579 579 l 579 694 l 579 810 m 579 115 l 579 0 l 347 0 l 232 0 l 232 115 l 115 115 l 115 232 l 232 232 l 232 115 l 347 115 l 463 115 l 579 115 z "},"Ƈ":{"ha":694,"x_min":115,"x_max":694,"o":"m 579 1042 l 579 1157 l 694 1157 l 694 1042 l 694 926 l 579 926 l 579 1042 m 579 926 l 579 810 l 463 810 l 347 810 l 232 810 l 232 926 l 347 926 l 463 926 l 579 926 m 232 810 l 232 694 l 232 579 l 232 463 l 232 347 l 232 232 l 232 115 l 115 115 l 115 232 l 115 347 l 115 463 l 115 579 l 115 694 l 115 810 l 232 810 m 579 115 l 579 232 l 694 232 l 694 115 l 579 115 m 579 115 l 579 0 l 347 0 l 232 0 l 232 115 l 347 115 l 463 115 l 579 115 z "},"ƈ":{"ha":694,"x_min":115,"x_max":694,"o":"m 579 810 l 579 926 l 694 926 l 694 810 l 694 694 l 579 694 l 579 810 m 579 694 l 579 579 l 463 579 l 347 579 l 232 579 l 232 694 l 347 694 l 463 694 l 579 694 m 232 579 l 232 463 l 232 347 l 232 232 l 232 115 l 115 115 l 115 232 l 115 347 l 115 463 l 115 579 l 232 579 m 579 115 l 579 232 l 694 232 l 694 115 l 579 115 m 579 115 l 579 0 l 347 0 l 232 0 l 232 115 l 347 115 l 463 115 l 579 115 z "},"Ɖ":{"ha":694,"x_min":115,"x_max":694,"o":"m 347 926 l 463 926 l 463 810 l 579 810 l 579 694 l 694 694 l 694 579 l 694 463 l 694 347 l 694 232 l 579 232 l 579 115 l 463 115 l 463 0 l 232 0 l 232 115 l 232 232 l 232 347 l 232 463 l 115 463 l 115 579 l 232 579 l 232 694 l 232 810 l 232 926 l 347 926 m 463 810 l 347 810 l 347 694 l 347 579 l 463 579 l 463 463 l 347 463 l 347 347 l 347 232 l 347 115 l 463 115 l 463 232 l 579 232 l 579 347 l 579 463 l 579 579 l 579 694 l 463 694 l 463 810 z "},"Ɗ":{"ha":694,"x_min":115,"x_max":694,"o":"m 347 926 l 463 926 l 463 810 l 579 810 l 579 694 l 694 694 l 694 579 l 694 463 l 694 347 l 694 232 l 579 232 l 579 115 l 463 115 l 463 0 l 232 0 l 232 115 l 232 232 l 232 347 l 232 463 l 232 579 l 232 694 l 232 810 l 115 810 l 115 926 l 232 926 l 347 926 m 463 810 l 347 810 l 347 694 l 347 579 l 347 463 l 347 347 l 347 232 l 347 115 l 463 115 l 463 232 l 579 232 l 579 347 l 579 463 l 579 579 l 579 694 l 463 694 l 463 810 z "},"Ƌ":{"ha":694,"x_min":115,"x_max":694,"o":"m 115 810 l 115 926 l 115 1042 l 232 1042 l 347 1042 l 463 1042 l 579 1042 l 694 1042 l 694 926 l 694 810 l 694 694 l 694 579 l 694 463 l 694 347 l 694 232 l 694 115 l 694 0 l 463 0 l 232 0 l 232 115 l 115 115 l 115 232 l 115 347 l 115 463 l 115 579 l 232 579 l 232 463 l 232 347 l 232 232 l 232 115 l 347 115 l 463 115 l 579 115 l 579 232 l 579 347 l 579 463 l 579 579 l 463 579 l 347 579 l 232 579 l 232 694 l 347 694 l 463 694 l 579 694 l 579 810 l 579 926 l 463 926 l 347 926 l 232 926 l 232 810 l 115 810 z "},"ƌ":{"ha":694,"x_min":115,"x_max":694,"o":"m 232 810 l 232 926 l 232 1042 l 347 1042 l 463 1042 l 579 1042 l 694 1042 l 694 926 l 694 810 l 694 694 l 694 579 l 694 463 l 694 347 l 694 232 l 694 115 l 694 0 l 463 0 l 232 0 l 232 115 l 115 115 l 115 232 l 115 347 l 115 463 l 115 579 l 232 579 l 232 463 l 232 347 l 232 232 l 232 115 l 347 115 l 463 115 l 579 115 l 579 232 l 579 347 l 579 463 l 579 579 l 463 579 l 347 579 l 232 579 l 232 694 l 347 694 l 463 694 l 579 694 l 579 810 l 579 926 l 463 926 l 347 926 l 347 810 l 232 810 z "},"ƍ":{"ha":694,"x_min":115,"x_max":694,"o":"m 463 694 l 579 694 l 579 579 l 463 579 l 347 579 l 232 579 l 232 694 l 347 694 l 463 694 m 579 579 l 694 579 l 694 463 l 694 347 l 694 232 l 694 115 l 579 115 l 579 232 l 579 347 l 579 463 l 579 579 m 232 579 l 232 463 l 232 347 l 232 232 l 232 115 l 115 115 l 115 232 l 115 347 l 115 463 l 115 579 l 232 579 m 579 115 l 579 0 l 463 0 l 463 -115 l 347 -115 l 347 0 l 232 0 l 232 115 l 347 115 l 463 115 l 579 115 m 463 -115 l 579 -115 l 579 -232 l 463 -232 l 463 -115 m 463 -232 l 463 -347 l 347 -347 l 232 -347 l 232 -232 l 347 -232 l 463 -232 z "},"Ǝ":{"ha":694,"x_min":115,"x_max":694,"o":"m 579 926 l 694 926 l 694 810 l 694 694 l 694 579 l 694 463 l 694 347 l 694 232 l 694 115 l 694 0 l 463 0 l 232 0 l 115 0 l 115 115 l 232 115 l 347 115 l 463 115 l 579 115 l 579 232 l 579 347 l 463 347 l 347 347 l 232 347 l 232 463 l 347 463 l 463 463 l 579 463 l 579 579 l 579 694 l 579 810 l 463 810 l 347 810 l 232 810 l 115 810 l 115 926 l 232 926 l 347 926 l 463 926 l 579 926 z "},"Ə":{"ha":694,"x_min":115,"x_max":694,"o":"m 115 694 l 115 810 l 232 810 l 232 926 l 347 926 l 463 926 l 579 926 l 579 810 l 463 810 l 347 810 l 232 810 l 232 694 l 115 694 m 579 810 l 694 810 l 694 694 l 694 579 l 694 463 l 694 347 l 694 232 l 694 115 l 579 115 l 579 232 l 579 347 l 463 347 l 347 347 l 232 347 l 232 232 l 232 115 l 115 115 l 115 232 l 115 347 l 115 463 l 232 463 l 347 463 l 463 463 l 579 463 l 579 579 l 579 694 l 579 810 m 579 115 l 579 0 l 347 0 l 232 0 l 232 115 l 347 115 l 463 115 l 579 115 z "},"Ɛ":{"ha":694,"x_min":115,"x_max":694,"o":"m 579 694 l 579 810 l 463 810 l 347 810 l 232 810 l 232 926 l 347 926 l 463 926 l 579 926 l 579 810 l 694 810 l 694 694 l 579 694 m 232 810 l 232 694 l 232 579 l 115 579 l 115 694 l 115 810 l 232 810 m 463 579 l 579 579 l 579 463 l 463 463 l 347 463 l 232 463 l 232 579 l 347 579 l 463 579 m 232 463 l 232 347 l 232 232 l 232 115 l 115 115 l 115 232 l 115 347 l 115 463 l 232 463 m 579 115 l 579 232 l 694 232 l 694 115 l 579 115 m 579 115 l 579 0 l 347 0 l 232 0 l 232 115 l 347 115 l 463 115 l 579 115 z "},"Ƒ":{"ha":694,"x_min":-115,"x_max":694,"o":"m 579 926 l 694 926 l 694 810 l 579 810 l 463 810 l 347 810 l 232 810 l 232 694 l 232 579 l 347 579 l 463 579 l 579 579 l 579 463 l 463 463 l 347 463 l 232 463 l 232 347 l 232 232 l 232 115 l 232 0 l 232 -115 l 232 -232 l 115 -232 l 115 -115 l 115 0 l 115 115 l 115 232 l 115 347 l 115 463 l 115 579 l 115 694 l 115 810 l 115 926 l 232 926 l 347 926 l 463 926 l 579 926 m 115 -232 l 115 -347 l 0 -347 l -115 -347 l -115 -232 l 0 -232 l 115 -232 z "},"ƒ":{"ha":694,"x_min":115,"x_max":694,"o":"m 579 1042 l 694 1042 l 694 926 l 579 926 l 463 926 l 463 1042 l 579 1042 m 463 926 l 463 810 l 463 694 l 579 694 l 694 694 l 694 579 l 579 579 l 463 579 l 463 463 l 463 347 l 463 232 l 463 115 l 463 0 l 463 -115 l 347 -115 l 347 0 l 347 115 l 347 232 l 347 347 l 347 463 l 347 579 l 232 579 l 232 694 l 347 694 l 347 810 l 347 926 l 463 926 m 347 -115 l 347 -232 l 232 -232 l 115 -232 l 115 -115 l 232 -115 l 347 -115 z "},"Ɠ":{"ha":694,"x_min":115,"x_max":694,"o":"m 579 694 l 579 810 l 463 810 l 347 810 l 232 810 l 232 926 l 347 926 l 463 926 l 579 926 l 579 810 l 694 810 l 694 694 l 579 694 m 232 810 l 232 694 l 232 579 l 232 463 l 232 347 l 232 232 l 232 115 l 115 115 l 115 232 l 115 347 l 115 463 l 115 579 l 115 694 l 115 810 l 232 810 m 579 463 l 694 463 l 694 347 l 694 232 l 694 115 l 579 115 l 579 232 l 579 347 l 463 347 l 463 463 l 579 463 m 579 115 l 579 0 l 347 0 l 232 0 l 232 115 l 347 115 l 463 115 l 579 115 z "},"Ɣ":{"ha":694,"x_min":115,"x_max":694,"o":"m 347 -232 l 347 -115 l 232 -115 l 232 0 l 232 115 l 347 115 l 347 0 l 347 -115 l 463 -115 l 463 0 l 463 115 l 347 115 l 347 232 l 232 232 l 232 347 l 232 463 l 115 463 l 115 579 l 115 694 l 115 810 l 115 926 l 232 926 l 232 810 l 232 694 l 232 579 l 232 463 l 347 463 l 347 347 l 347 232 l 463 232 l 463 347 l 463 463 l 579 463 l 579 579 l 579 694 l 579 810 l 579 926 l 694 926 l 694 810 l 694 694 l 694 579 l 694 463 l 579 463 l 579 347 l 579 232 l 463 232 l 463 115 l 579 115 l 579 0 l 579 -115 l 463 -115 l 463 -232 l 347 -232 z "},"ƕ":{"ha":694,"x_min":115,"x_max":694,"o":"m 463 0 l 463 115 l 347 115 l 347 232 l 347 347 l 347 463 l 232 463 l 232 347 l 232 232 l 232 115 l 232 0 l 115 0 l 115 115 l 115 232 l 115 347 l 115 463 l 115 579 l 115 694 l 115 810 l 115 926 l 232 926 l 232 810 l 232 694 l 232 579 l 347 579 l 347 463 l 463 463 l 463 347 l 463 232 l 463 115 l 579 115 l 579 232 l 579 347 l 579 463 l 579 579 l 694 579 l 694 463 l 694 347 l 694 232 l 694 115 l 579 115 l 579 0 l 463 0 z "},"Ɩ":{"ha":694,"x_min":232,"x_max":694,"o":"m 463 0 l 463 115 l 347 115 l 347 232 l 347 347 l 347 463 l 347 579 l 347 694 l 347 810 l 232 810 l 232 926 l 347 926 l 463 926 l 463 810 l 463 694 l 463 579 l 463 463 l 463 347 l 463 232 l 463 115 l 579 115 l 579 232 l 694 232 l 694 115 l 579 115 l 579 0 l 463 0 z "},"Ɨ":{"ha":694,"x_min":232,"x_max":579,"o":"m 463 926 l 579 926 l 579 810 l 463 810 l 463 694 l 463 579 l 579 579 l 579 463 l 463 463 l 463 347 l 463 232 l 463 115 l 579 115 l 579 0 l 347 0 l 232 0 l 232 115 l 347 115 l 347 232 l 347 347 l 347 463 l 232 463 l 232 579 l 347 579 l 347 694 l 347 810 l 232 810 l 232 926 l 347 926 l 463 926 z "},"Ƙ":{"ha":694,"x_min":115,"x_max":694,"o":"m 579 579 l 579 694 l 579 810 l 463 810 l 463 926 l 579 926 l 579 810 l 694 810 l 694 694 l 694 579 l 579 579 m 579 0 l 579 115 l 579 232 l 463 232 l 463 347 l 463 463 l 347 463 l 232 463 l 232 347 l 232 232 l 232 115 l 232 0 l 115 0 l 115 115 l 115 232 l 115 347 l 115 463 l 115 579 l 115 694 l 115 810 l 115 926 l 232 926 l 232 810 l 232 694 l 232 579 l 347 579 l 347 694 l 347 810 l 463 810 l 463 694 l 463 579 l 463 463 l 579 463 l 579 347 l 579 232 l 694 232 l 694 115 l 694 0 l 579 0 z "},"ƙ":{"ha":694,"x_min":115,"x_max":694,"o":"m 347 810 l 347 926 l 232 926 l 232 1042 l 347 1042 l 347 926 l 463 926 l 463 810 l 347 810 m 579 0 l 579 115 l 463 115 l 463 232 l 347 232 l 232 232 l 232 115 l 232 0 l 115 0 l 115 115 l 115 232 l 115 347 l 115 463 l 115 579 l 115 694 l 115 810 l 115 926 l 232 926 l 232 810 l 232 694 l 232 579 l 232 463 l 232 347 l 347 347 l 347 463 l 463 463 l 463 579 l 579 579 l 579 694 l 694 694 l 694 579 l 579 579 l 579 463 l 463 463 l 463 347 l 463 232 l 579 232 l 579 115 l 694 115 l 694 0 l 579 0 z "},"ƚ":{"ha":694,"x_min":232,"x_max":579,"o":"m 347 1042 l 463 1042 l 463 926 l 463 810 l 463 694 l 579 694 l 579 579 l 463 579 l 463 463 l 463 347 l 463 232 l 463 115 l 579 115 l 579 0 l 347 0 l 347 115 l 347 232 l 347 347 l 347 463 l 347 579 l 232 579 l 232 694 l 347 694 l 347 810 l 347 926 l 232 926 l 232 1042 l 347 1042 z "},"ƛ":{"ha":694,"x_min":115,"x_max":694,"o":"m 579 0 l 579 115 l 579 232 l 463 232 l 463 347 l 463 463 l 347 463 l 347 579 l 232 579 l 115 579 l 115 694 l 232 694 l 347 694 l 347 810 l 232 810 l 115 810 l 115 926 l 232 926 l 347 926 l 347 810 l 463 810 l 463 694 l 579 694 l 694 694 l 694 579 l 579 579 l 463 579 l 463 463 l 579 463 l 579 347 l 579 232 l 694 232 l 694 115 l 694 0 l 579 0 m 115 0 l 115 115 l 115 232 l 232 232 l 232 347 l 232 463 l 347 463 l 347 347 l 347 232 l 232 232 l 232 115 l 232 0 l 115 0 z "},"Ɯ":{"ha":694,"x_min":115,"x_max":694,"o":"m 232 0 l 232 115 l 115 115 l 115 232 l 115 347 l 115 463 l 115 579 l 115 694 l 115 810 l 115 926 l 115 1042 l 232 1042 l 232 926 l 232 810 l 232 694 l 232 579 l 232 463 l 232 347 l 232 232 l 232 115 l 347 115 l 347 232 l 347 347 l 347 463 l 347 579 l 347 694 l 347 810 l 347 926 l 347 1042 l 463 1042 l 463 926 l 463 810 l 463 694 l 463 579 l 463 463 l 463 347 l 463 232 l 463 115 l 347 115 l 347 0 l 232 0 m 579 926 l 579 1042 l 694 1042 l 694 926 l 694 810 l 694 694 l 694 579 l 694 463 l 694 347 l 694 232 l 694 115 l 694 0 l 463 0 l 463 115 l 579 115 l 579 232 l 579 347 l 579 463 l 579 579 l 579 694 l 579 810 l 579 926 z "}}}
